<?xml version="1.0" encoding="utf-8"?>
<!-- Generator: Adobe Illustrator 15.0.0, SVG Export Plug-In . SVG Version: 6.00 Build 0)  -->
<!DOCTYPE svg PUBLIC "-//W3C//DTD SVG 1.1//EN" "http://www.w3.org/Graphics/SVG/1.1/DTD/svg11.dtd">
<svg version="1.1"
	 id="svg3039" inkscape:version="0.47 r22583" sodipodi:docname="Chromium_11_Logo.svg" xmlns:dc="http://purl.org/dc/elements/1.1/" xmlns:cc="http://creativecommons.org/ns#" xmlns:rdf="http://www.w3.org/1999/02/22-rdf-syntax-ns#" xmlns:svg="http://www.w3.org/2000/svg" xmlns:sodipodi="http://sodipodi.sourceforge.net/DTD/sodipodi-0.dtd" xmlns:inkscape="http://www.inkscape.org/namespaces/inkscape"
	 xmlns="http://www.w3.org/2000/svg" xmlns:xlink="http://www.w3.org/1999/xlink" x="0px" y="0px" width="1126.23px"
	 height="244.61px" viewBox="12.332 16.101 1126.23 244.61" enable-background="new 12.332 16.101 1126.23 244.61"
	 xml:space="preserve">
<sodipodi:namedview  id="namedview6" inkscape:window-maximized="1" inkscape:current-layer="svg3039" inkscape:window-y="-8" inkscape:window-x="-8" inkscape:window-height="750" inkscape:window-width="1280" inkscape:pageshadow="2" inkscape:pageopacity="0" guidetolerance="10" inkscape:cy="103.791" gridtolerance="10" inkscape:cx="372.87473" objecttolerance="10" inkscape:zoom="1.4142136" borderopacity="1" bordercolor="#666666" showgrid="false" pagecolor="#ffffff">
	</sodipodi:namedview>
<g>
	<g>
		
			<radialGradient id="path2814_1_" cx="-353.5835" cy="362.9893" r="25.4785" gradientTransform="matrix(0.1019 -4.5937 -4.5813 -0.1066 1828.1061 -1452.3468)" gradientUnits="userSpaceOnUse">
			<stop  offset="0" style="stop-color:#FFFFFF"/>
			<stop  offset="1" style="stop-color:#000000;stop-opacity:0"/>
		</radialGradient>
		
			<path id="path2814" sodipodi:ry="25.491526" sodipodi:rx="25.491526" sodipodi:cy="122.57627" sodipodi:cx="-118.23729" sodipodi:type="arc" fill="url(#path2814_1_)" d="
			M250.976,138.406c0,67.547-53.423,122.305-119.321,122.305c-65.9,0-119.323-54.758-119.323-122.305
			c0-67.548,53.422-122.306,119.323-122.306C197.553,16.101,250.976,70.858,250.976,138.406z"/>
		
			<linearGradient id="path3655_1_" gradientUnits="userSpaceOnUse" x1="162.2666" y1="169.96" x2="220.9565" y2="176.3239" gradientTransform="matrix(1 0 0 -1 3.3916 264.418)">
			<stop  offset="0" style="stop-color:#B2CDE9"/>
			<stop  offset="1" style="stop-color:#C4DBEE"/>
		</linearGradient>
		<path id="path3655" sodipodi:nodetypes="cssscc" fill="url(#path3655_1_)" d="M232.172,88.121
			c0,15.674-19.791,34.931-45.844,34.931s-59.922-16.081-59.922-31.755s21.119-28.38,47.172-28.38
			c19.902,0,46.361,18.293,56.46,20.352C230.83,84.979,231.406,86.194,232.172,88.121z"/>
		<path id="path3655-4-8" sodipodi:nodetypes="cssscc" fill="#2E5C91" d="M38.822,65.972c12.382-9.611,35.315-1.246,51.29,19.334
			c15.975,20.58,17.695,51.065,5.314,60.676c-12.382,9.611-34.176-5.292-50.151-25.872C33.07,104.389,41.224,78.92,36.658,69.68
			C37.274,68.558,38.04,67.224,38.822,65.972z"/>
		
			<radialGradient id="path3596_1_" cx="174.4043" cy="711.6436" r="95.627" gradientTransform="matrix(-0.0076 0.5575 1.0315 0.014 -606.6033 -72.6636)" gradientUnits="userSpaceOnUse">
			<stop  offset="0" style="stop-color:#658DB6"/>
			<stop  offset="0.7678" style="stop-color:#527FAB"/>
			<stop  offset="1" style="stop-color:#4071A0"/>
		</radialGradient>
		<path id="path3596" sodipodi:nodetypes="ccccsc" fill="url(#path3596_1_)" d="M230.043,83.262
			c-7.008-0.033-61.07,0.29-107.665,0.065c-17.371,5.108-31.705,13.259-39.182,29.155c-5.336-4.542-40.746-42.215-44.407-46.44
			c31.39-41.649,74.528-45.56,82.916-45.56S192.349,11.85,230.043,83.262L230.043,83.262z"/>
		<path id="path3655-4" sodipodi:nodetypes="cssscc" fill="#699DD3" d="M117.125,243.969c-12.499-9.459-14.575-36.939,1.146-57.715
			c15.721-20.773,41.036-34.947,53.534-25.488s7.448,38.967-8.273,59.741c-12.01,15.87-35.491,16.885-43.227,23.695
			C119.065,244.156,118.35,244.142,117.125,243.969z"/>
		
			<radialGradient id="path3596-1_1_" cx="-103.6514" cy="377.9736" r="60.481" gradientTransform="matrix(0.8129 1.6998 2.1519 -1.0292 -597.4859 692.4889)" gradientUnits="userSpaceOnUse">
			<stop  offset="0" style="stop-color:#D0E2F1"/>
			<stop  offset="0.8558" style="stop-color:#CADEF0"/>
			<stop  offset="1" style="stop-color:#95BEE3"/>
		</radialGradient>
		<path id="path3596-1" sodipodi:nodetypes="ccccsc" fill="url(#path3596-1_1_)" d="M120.303,244.201
			c3.583-6.023,28.859-52.899,52.691-92.939c4.412-17.561,5.348-33.642-4.559-48.149c6.622-2.294,58.239-13.977,63.737-14.988
			c19.966,48.18,1.45,87.338-2.806,94.566C225.113,189.918,200.966,247.947,120.303,244.201z"/>
		
			<radialGradient id="path3596-1-7_1_" cx="-712.0078" cy="455.1006" r="59.402" gradientTransform="matrix(-1.2862 -0.086 -0.1145 1.7137 -770.7385 -712.0804)" gradientUnits="userSpaceOnUse">
			<stop  offset="0" style="stop-color:#96D0E1"/>
			<stop  offset="0.6782" style="stop-color:#89B7E1"/>
			<stop  offset="1" style="stop-color:#699DD3"/>
		</radialGradient>
		<path id="path3596-1-7" sodipodi:nodetypes="ccccsc" fill="url(#path3596-1-7_1_)" d="M36.697,69.643
			c3.469,6.089,30.723,52.78,53.779,93.272c13.094,12.505,27.685,19.485,45.191,18.033c-1.273,6.892-16.629,57.751-18.464,63.031
			c-51.756-6.421-76.669-41.854-80.854-49.123S-6.381,137.941,36.697,69.643z"/>
		
			<linearGradient id="path3645_1_" gradientUnits="userSpaceOnUse" x1="-345.543" y1="30.6812" x2="-345.2891" y2="128.5124" gradientTransform="matrix(0.7729 0 0 -0.7762 395.6045 192.888)">
			<stop  offset="0" style="stop-color:#3B79BC"/>
			<stop  offset="1" style="stop-color:#94B8E0"/>
		</linearGradient>
		<linearGradient id="path3645_2_" gradientUnits="userSpaceOnUse" x1="-559.541" y1="487.2197" x2="-558.8942" y2="358.9333">
			<stop  offset="0" style="stop-color:#D7DEF0"/>
			<stop  offset="0.5" style="stop-color:#FFFFFF"/>
			<stop  offset="1" style="stop-color:#D5DEF0"/>
		</linearGradient>
		<path id="path3645" fill="url(#path3645_1_)" stroke="url(#path3645_2_)" stroke-width="10.0701" d="M174.31,132
			c0,25.343-20.458,45.887-45.695,45.887S82.918,157.343,82.918,132s20.458-45.888,45.696-45.888S174.31,106.657,174.31,132z"/>
		<path id="rect3782" sodipodi:nodetypes="ccc" fill="#FFFFFF" d="M163.547,108.896c18.529,17.098,16.032,29.557,10.063,44
			C170.5,130.646,171.264,120.469,163.547,108.896z"/>
		<path id="rect3782-4" sodipodi:nodetypes="ccc" fill="#FFFFFF" d="M101.421,173.639c-22.646-14.473-29.81-45.719-8.813-62.99
			C81.76,130.424,86.382,143.047,101.421,173.639z"/>
	</g>
	<g>
		<path fill="#77787B" d="M357.765,180.768c-4.6,2.199-14.8,5.6-27.8,5.6c-29.199,0-48.199-19.8-48.199-49.399
			c0-29.8,20.4-51.599,51.999-51.599c10.4,0,19.601,2.6,24.4,5.2l-4,13.4c-4.2-2.2-10.8-4.6-20.4-4.6
			c-22.199,0-34.199,16.6-34.199,36.6c0,22.399,14.4,36.199,33.6,36.199c10,0,16.6-2.399,21.6-4.6L357.765,180.768z"/>
		<path fill="#77787B" d="M378.365,42.169h17.6v60.599h0.4c2.8-5,7.2-9.6,12.6-12.6c5.2-3,11.4-4.8,18-4.8
			c13,0,33.799,8,33.799,41.199v57.599h-17.6v-55.599c0-15.6-5.8-28.6-22.399-28.6c-11.399,0-20.199,8-23.6,17.4
			c-1,2.6-1.2,5.2-1.2,8.4v58.399h-17.6V42.169z"/>
		<path fill="#77787B" d="M489.363,117.568c0-11.4-0.2-21.2-0.8-30.199h15.399l0.801,19.2h0.6c4.399-13,15.199-21.2,27-21.2
			c1.8,0,3.199,0.2,4.8,0.4v16.6c-1.801-0.4-3.601-0.4-6-0.4c-12.4,0-21.2,9.2-23.6,22.399c-0.4,2.4-0.601,5.4-0.601,8.201v51.599
			h-17.6V117.568z"/>
		<path fill="#77787B" d="M640.362,134.968c0,35.8-24.999,51.399-48.199,51.399c-25.999,0-46.399-19.199-46.399-49.799
			c0-32.2,21.4-51.2,48-51.2C621.563,85.369,640.362,105.568,640.362,134.968z M563.764,135.968c0,21.2,12,37.199,29.199,37.199
			c16.8,0,29.399-15.8,29.399-37.599c0-16.4-8.199-37-28.999-37C572.764,98.568,563.764,117.768,563.764,135.968z"/>
		<path fill="#77787B" d="M662.563,113.568c0-10.2-0.399-18.2-0.8-26.199h15.399l0.801,15.8h0.6c5.399-9.2,14.399-17.8,30.6-17.8
			c13,0,22.999,8,27.199,19.399h0.4c3-5.6,7-9.6,11-12.6c5.8-4.4,11.999-6.8,21.199-6.8c13,0,32,8.4,32,41.999v56.799h-17.2v-54.599
			c0-18.8-7-29.8-21-29.8c-10.199,0-17.8,7.4-20.999,15.8c-0.8,2.6-1.4,5.6-1.4,8.8v59.799h-17.199v-57.999
			c0-15.4-6.8-26.4-20.2-26.4c-10.8,0-19,8.8-21.8,17.6c-1,2.4-1.399,5.6-1.399,8.6v58.199h-17.2V113.568z"/>
		<path fill="#77787B" d="M848.963,60.169c0,6-4.199,10.8-11.199,10.8c-6.4,0-10.601-4.8-10.601-10.8s4.4-11,11-11
			C844.563,49.169,848.963,53.969,848.963,60.169z M829.363,184.167V87.369h17.6v96.798H829.363z"/>
		<path fill="#77787B" d="M957.161,157.567c0,10.2,0.2,18.999,0.8,26.6h-15.6l-1-15.8h-0.4c-4.399,7.8-14.8,18-31.999,18
			c-15.2,0-33.399-8.6-33.399-42.399V87.369h17.6v53.399c0,18.4,5.8,31,21.6,31c11.8,0,20-8.2,23.199-16.2
			c1-2.399,1.601-5.601,1.601-9V87.369h17.6V157.567z"/>
		<path fill="#77787B" d="M986.361,113.568c0-10.2-0.399-18.2-0.8-26.199h15.399l0.801,15.8h0.6c5.399-9.2,14.399-17.8,30.6-17.8
			c13,0,22.999,8,27.199,19.399h0.4c3-5.6,7-9.6,11-12.6c5.8-4.4,11.999-6.8,21.199-6.8c13,0,32,8.4,32,41.999v56.799h-17.2v-54.599
			c0-18.8-7-29.8-21-29.8c-10.199,0-17.8,7.4-20.999,15.8c-0.8,2.6-1.4,5.6-1.4,8.8v59.799h-17.199v-57.999
			c0-15.4-6.8-26.4-20.2-26.4c-10.8,0-19,8.8-21.8,17.6c-1,2.4-1.399,5.6-1.399,8.6v58.199h-17.2V113.568z"/>
	</g>
</g>
</svg>
