<?xml version="1.0" encoding="UTF-8" ?>
<!DOCTYPE svg PUBLIC "-//W3C//DTD SVG 1.1//EN" "http://www.w3.org/Graphics/SVG/1.1/DTD/svg11.dtd">
<svg width="246pt" height="80pt" viewBox="0 0 246 80" version="1.1" xmlns="http://www.w3.org/2000/svg">
<g id="#ffffffff">
</g>
<g id="#da4d40ff">
<path fill="#da4d40" opacity="1.00" d=" M 6.89 18.65 C 12.89 9.95 23.40 4.39 34.05 5.09 C 44.88 5.27 54.65 12.09 60.00 21.27 C 51.34 21.27 42.65 20.87 34.01 21.68 C 28.23 21.18 22.30 24.46 19.97 29.82 C 18.45 32.89 18.72 36.39 19.14 39.68 C 15.18 32.60 10.96 25.67 6.89 18.65 Z" />
</g>
<g id="#757575ff">
<path fill="#757575" opacity="1.00" d=" M 110.70 17.81 C 112.07 17.81 113.44 17.81 114.81 17.81 C 114.83 21.92 114.86 26.04 114.69 30.15 C 118.29 25.79 126.48 25.53 128.85 31.24 C 130.70 37.00 129.34 43.22 129.75 49.17 C 128.40 49.18 127.05 49.18 125.70 49.19 C 125.46 44.06 126.20 38.83 125.24 33.77 C 123.84 29.18 116.62 29.97 115.39 34.33 C 114.18 39.16 115.09 44.25 114.81 49.18 C 113.44 49.18 112.07 49.18 110.70 49.18 C 110.68 38.72 110.68 28.27 110.70 17.81 Z" />
<path fill="#757575" opacity="1.00" d=" M 90.99 28.84 C 96.28 24.99 104.55 26.94 107.22 33.04 C 106.00 33.58 104.78 34.13 103.57 34.68 C 101.88 31.76 98.44 29.59 95.06 31.09 C 88.98 33.41 88.96 43.41 95.03 45.76 C 98.44 47.24 102.03 45.15 103.75 42.17 C 104.95 42.74 106.15 43.31 107.36 43.87 C 105.96 45.94 104.45 48.14 102.02 49.08 C 96.73 51.47 89.71 49.13 87.41 43.68 C 85.58 38.68 86.22 32.00 90.99 28.84 Z" />
<path fill="#757575" opacity="1.00" d=" M 137.83 30.79 C 140.02 27.69 143.85 26.30 147.50 27.47 C 146.98 28.73 146.46 29.98 145.94 31.23 C 142.75 30.62 139.00 32.07 138.33 35.55 C 137.73 40.06 138.21 44.64 138.06 49.18 C 136.69 49.18 135.31 49.18 133.94 49.18 C 133.93 41.98 133.93 34.77 133.94 27.57 C 135.25 27.56 136.55 27.56 137.86 27.55 C 137.85 28.36 137.84 29.98 137.83 30.79 Z" />
<path fill="#757575" opacity="1.00" d=" M 153.46 27.66 C 159.41 25.11 167.11 28.57 168.56 35.01 C 170.46 41.15 166.74 48.75 160.11 49.78 C 153.82 51.32 147.06 46.47 146.68 39.98 C 145.96 34.98 148.61 29.48 153.46 27.66 M 155.18 31.18 C 148.91 33.64 149.41 44.37 156.06 45.97 C 160.87 47.42 165.43 42.67 164.82 37.95 C 164.97 33.16 159.71 29.09 155.18 31.18 Z" />
<path fill="#757575" opacity="1.00" d=" M 175.85 30.30 C 179.26 26.03 186.69 25.47 189.49 30.69 C 192.73 25.95 201.42 25.17 203.81 31.07 C 205.61 36.90 204.29 43.15 204.70 49.15 C 203.34 49.16 201.98 49.18 200.63 49.20 C 200.53 44.51 200.81 39.81 200.50 35.12 C 200.43 33.11 199.21 30.92 197.01 30.73 C 193.70 29.97 190.80 33.00 190.52 36.12 C 190.17 40.47 190.47 44.84 190.37 49.19 C 188.99 49.18 187.62 49.17 186.24 49.16 C 186.16 44.45 186.43 39.73 186.13 35.02 C 186.15 32.75 184.38 30.55 181.99 30.66 C 178.57 30.35 176.08 33.81 176.11 36.95 C 175.94 41.03 176.13 45.11 176.06 49.18 C 174.68 49.18 173.31 49.18 171.94 49.18 C 171.93 41.98 171.93 34.77 171.94 27.56 C 173.25 27.56 174.56 27.56 175.87 27.56 C 175.87 28.25 175.86 29.62 175.85 30.30 Z" />
<path fill="#757575" opacity="1.00" d=" M 212.87 28.86 C 217.35 25.47 224.72 26.43 227.79 31.29 C 229.38 33.57 229.56 36.43 229.84 39.11 C 224.05 39.26 218.26 39.19 212.46 39.15 C 212.60 43.10 216.00 46.72 220.11 46.18 C 222.57 46.19 224.18 44.22 225.65 42.54 C 226.81 43.06 227.97 43.59 229.13 44.13 C 226.34 50.04 218.19 51.77 212.98 48.05 C 206.79 43.73 206.84 33.31 212.87 28.86 M 212.60 35.76 C 216.85 35.84 221.10 35.80 225.36 35.83 C 224.84 32.38 221.41 30.10 218.02 30.72 C 215.23 30.97 213.66 33.47 212.60 35.76 Z" />
</g>
<g id="#159f5cff">
<path fill="#159f5c" opacity="1.00" d=" M 5.42 49.60 C 0.22 39.97 1.20 27.85 6.89 18.65 C 10.96 25.67 15.18 32.60 19.14 39.68 C 21.09 44.68 25.56 48.79 31.05 49.29 C 35.63 49.97 39.91 47.69 43.22 44.74 C 38.96 51.77 34.96 58.96 30.89 66.10 C 20.32 65.37 10.23 59.13 5.42 49.60 Z" />
</g>
<g id="#fecb40ff">
<path fill="#fecb40" opacity="1.00" d=" M 36.86 21.91 C 44.60 21.77 52.34 21.96 60.08 21.79 C 64.34 30.69 64.29 41.77 59.37 50.40 C 53.89 60.56 42.33 66.61 30.89 66.10 C 34.96 58.96 38.96 51.77 43.22 44.74 C 46.45 40.53 47.65 34.63 45.23 29.75 C 43.65 26.07 40.14 23.88 36.86 21.91 Z" />
</g>
<g id="#4889f4ff">
<path fill="#4889f4" opacity="1.00" d=" M 30.39 24.54 C 38.26 22.60 45.97 30.88 43.42 38.60 C 41.43 46.90 29.50 49.51 24.16 42.89 C 18.45 36.91 22.21 25.79 30.39 24.54 Z" />
</g>
</svg>
