<svg width="850" height="610" xmlns="http://www.w3.org/2000/svg">
 <metadata id="metadata297">image/svg+xml</metadata>

 <g>
  <title>Layer 1</title>
  <path fill="none" stroke="#000000" stroke-width="1.423943px" d="m11.57307,39.073212l800.52477,0" id="path1873"/>
  <path fill="#000000" d="m814.636414,39.073212l-11.668884,3.712238l0,-7.424488l11.668884,3.71225z" id="path1875"/>
  <rect fill="#ffff00" stroke="#000000" stroke-linecap="round" stroke-linejoin="round" stroke-miterlimit="4" width="306.30951" height="25.833334" x="147.27277" y="143.11174" id="rect1877"/>
  <rect stroke="#000000" fill="#ffff00" stroke-width="1.058886" stroke-linecap="round" stroke-linejoin="round" stroke-miterlimit="4" width="365.987713" height="24.651297" x="427.427119" y="46.458755" id="rect2766"/>
  <rect stroke="#000000" fill="#ffff00" stroke-width="1.106637" stroke-linecap="round" stroke-linejoin="round" stroke-miterlimit="4" width="373.686595" height="23.911888" x="419.187261" y="78.935555" id="rect2768"/>
  <rect stroke="#000000" fill="#ffff00" stroke-width="1.134098" stroke-linecap="round" stroke-linejoin="round" stroke-miterlimit="4" width="320.282541" height="24.00099" x="472.56464" y="110.92467" id="rect2770"/>
  <rect fill="#ffff00" stroke="#000000" stroke-width="1.095563" stroke-linecap="round" stroke-linejoin="round" stroke-miterlimit="4" width="205.5018" height="22.41633" x="231.47569" y="177.11189" id="rect2772"/>
  <rect stroke="#000000" fill="#00ffff" stroke-width="1.069771" stroke-linecap="round" stroke-linejoin="round" stroke-miterlimit="4" width="389.430249" height="22.280537" x="397.11716" y="453.51859" id="rect2776"/>
  <rect fill="#ffff00" stroke="#000000" stroke-linecap="round" stroke-linejoin="round" stroke-miterlimit="4" width="102.22619" height="23.25" x="350.98709" y="214.70697" id="rect4548"/>
  <rect stroke="#000000" fill="#ffff00" stroke-width="1.210282" stroke-linecap="round" stroke-linejoin="round" stroke-miterlimit="4" width="230.444019" height="23.777813" x="555.1756" y="226.25259" id="rect4550"/>
  <rect stroke="#000000" fill="#7fff00" stroke-width="1.101368" stroke-linecap="round" stroke-linejoin="round" stroke-miterlimit="4" width="399.683874" height="22.041487" x="385.35916" y="311.81732" id="rect5437"/>
  <rect fill="#ff00ff" stroke="#000000" stroke-linecap="round" stroke-linejoin="round" stroke-miterlimit="4" width="102.96429" height="24.357143" x="249.12993" y="291.8381" id="rect5439"/>
  <rect fill="#ffc0c0" stroke="#000000" stroke-linecap="round" stroke-linejoin="round" stroke-miterlimit="4" width="115.88095" height="23.988094" x="199.30849" y="245.70697" id="rect5441"/>
  <rect fill="#ff7f00" stroke="#000000" stroke-width="0.818396" stroke-linecap="round" stroke-linejoin="round" stroke-miterlimit="4" width="203.6394" height="24.538748" x="238.34744" y="411.53674" id="rect5445"/>
  <rect stroke="#000000" fill="#00ffff" stroke-width="0.978014" stroke-linecap="round" stroke-linejoin="round" stroke-miterlimit="4" width="525.021964" height="21.426744" x="261.99875" y="492.8685" id="rect5447"/>
  <rect stroke="#000000" fill="#00ffff" stroke-width="1.037238" stroke-linecap="round" stroke-linejoin="round" stroke-miterlimit="4" width="479.913977" height="22.843716" x="306.35361" y="526.03711" id="rect5449"/>
  <rect fill="#00ffff" stroke="#000000" stroke-width="0.936215" stroke-linecap="round" stroke-linejoin="round" stroke-miterlimit="4" width="258.77768" height="25.111038" x="442.3475" y="410.72256" id="rect5451"/>
  <rect fill="#00ffff" stroke="#000000" stroke-width="0.890214" stroke-linecap="round" stroke-linejoin="round" stroke-miterlimit="4" width="219.4106" height="25.943121" x="429.66223" y="558.99908" id="rect5453"/>
  <path fill="none" stroke="#000000" stroke-width="2.096646px" d="m28.76376,39.69812l0,3.781719" id="path6418"/>
  <path fill="none" stroke="#000000" stroke-width="2.096646px" d="m198.646164,39.95908l0,3.781712" id="path6426"/>
  <path fill="none" stroke="#000000" stroke-width="2.096646px" d="m368.78952,39.95908l0,3.781712" id="path6428"/>
  <path fill="none" stroke="#000000" stroke-width="2.096646px" d="m538.671936,39.95908l0,3.781712" id="path6430"/>
  <path fill="none" stroke="#000000" stroke-width="1.12px" d="m45.0466,39.532139l0,2.153332" id="path6432"/>
  <path fill="none" stroke="#000000" stroke-width="1.12px" d="m62.20731,39.532139l0,2.153332" id="path6434"/>
  <path fill="none" stroke="#000000" stroke-width="1.12px" d="m79.183502,39.532139l0,2.153332" id="path6436"/>
  <path fill="none" stroke="#000000" stroke-width="1.12px" d="m96.159691,39.532139l0,2.153332" id="path6438"/>
  <path fill="none" stroke="#000000" stroke-width="1.12px" d="m113.13588,39.532139l0,2.153332" id="path6440"/>
  <path fill="none" stroke="#000000" stroke-width="1.12px" d="m130.112076,39.532139l0,2.153332" id="path6442"/>
  <path fill="none" stroke="#000000" stroke-width="1.12px" d="m147.272797,39.532139l0,2.153332" id="path6444"/>
  <path fill="none" stroke="#000000" stroke-width="1.12px" d="m164.248978,39.532139l0,2.153332" id="path6446"/>
  <path fill="none" stroke="#000000" stroke-width="1.12px" d="m181.040649,39.532139l0,2.153332" id="path6448"/>
  <path fill="none" stroke="#000000" stroke-width="1.12px" d="m214.992996,39.532139l0,2.153332" id="path6463"/>
  <path fill="none" stroke="#000000" stroke-width="1.12px" d="m232.153717,39.532139l0,2.153332" id="path6465"/>
  <path fill="none" stroke="#000000" stroke-width="1.12px" d="m249.129898,39.532139l0,2.153332" id="path6467"/>
  <path fill="none" stroke="#000000" stroke-width="1.12px" d="m266.106079,39.532139l0,2.153332" id="path6469"/>
  <path fill="none" stroke="#000000" stroke-width="1.12px" d="m283.082275,39.532139l0,2.153332" id="path6471"/>
  <path fill="none" stroke="#000000" stroke-width="1.12px" d="m300.058472,39.532139l0,2.153332" id="path6473"/>
  <path fill="none" stroke="#000000" stroke-width="1.12px" d="m317.219177,39.532139l0,2.153332" id="path6475"/>
  <path fill="none" stroke="#000000" stroke-width="1.12px" d="m334.195374,39.532139l0,2.153332" id="path6477"/>
  <path fill="none" stroke="#000000" stroke-width="1.12px" d="m350.987061,39.532139l0,2.153332" id="path6479"/>
  <path fill="none" stroke="#000000" stroke-width="1.12px" d="m385.123901,39.532139l0,2.153332" id="path6483"/>
  <path fill="none" stroke="#000000" stroke-width="1.12px" d="m436.237,39.532139l0,2.153332" id="path6489"/>
  <path fill="none" stroke="#000000" stroke-width="1.12px" d="m453.213165,39.532139l0,2.153332" id="path6491"/>
  <path fill="none" stroke="#000000" stroke-width="1.12px" d="m470.189362,39.532139l0,2.153332" id="path6493"/>
  <path fill="none" stroke="#000000" stroke-width="1.12px" d="m487.350098,39.532139l0,2.153332" id="path6495"/>
  <path fill="none" stroke="#000000" stroke-width="1.12px" d="m504.326294,39.532139l0,2.153332" id="path6497"/>
  <path fill="none" stroke="#000000" stroke-width="1.12px" d="m521.11792,39.532139l0,2.153332" id="path6499"/>
  <path fill="none" stroke="#000000" stroke-width="1.12px" d="m555.000061,39.532139l0,2.153332" id="path6528"/>
  <path fill="none" stroke="#000000" stroke-width="1.12px" d="m572.160828,39.532139l0,2.153332" id="path6530"/>
  <path fill="none" stroke="#000000" stroke-width="1.12px" d="m589.137024,39.532139l0,2.153332" id="path6532"/>
  <path fill="none" stroke="#000000" stroke-width="1.12px" d="m605.92865,39.532139l0,2.153332" id="path6534"/>
  <text font-size="18px" font-style="normal" font-weight="normal" fill="#000000" font-family="Bitstream Vera Sans" x="50.337009" y="510.80884" id="text6540" xml:space="preserve">
   <tspan font-size="20px" font-family="Arial" x="50.337009" y="510.80884" id="tspan6542">System III &amp; V family</tspan>
  </text>
  <path fill="none" stroke="#000000" stroke-width="1.12px" d="m402.284607,39.532139l0,2.153332" id="path6485"/>
  <path fill="none" stroke="#000000" stroke-width="1.12px" d="m419.260803,39.532139l0,2.153332" id="path6487"/>
  <path fill="none" stroke="#000000" stroke-width="1.23483px" id="path6623" d="m397.118042,142.558228l0,-86.469746l18.288544,0"/>
  <path fill="none" stroke="#000000" stroke-width="0.816262px" id="path6625" d="m397.259094,89.118233l13.278076,0"/>
  <path fill="none" stroke="#000000" stroke-width="1.05287px" id="path6627" d="m450.075897,121.707031l10.966003,0"/>
  <path fill="#000000" id="path6634" d="m428.185059,56.784271l-13.46228,4.01683l0,-8.033672l13.46228,4.016842z"/>
  <path fill="#000000" id="path6636" d="m418.595551,89.075943l-12.626343,4.01683l0,-8.033676l12.626343,4.016846z"/>
  <path fill="#000000" id="path6638" d="m473.199615,122.144814l-12.626343,4.016838l0,-8.033669l12.626343,4.01683z"/>
  <path fill="none" stroke="#000000" stroke-width="1px" id="path6693" d="m124.912659,379.351837l0,-223.378403l11.077515,0"/>
  <path fill="none" stroke="#000000" stroke-width="1px" id="path6695" d="m125.173607,257.746307l63.151375,0"/>
  <path fill="none" stroke="#000000" stroke-miterlimit="4" stroke-dasharray="4,8" stroke-dashoffset="0" id="path6697" d="m125.173607,346.73233l180.190163,0"/>
  <path fill="#000000" id="path6711" d="m147.641815,156.170654l-12.626343,4.01683l0,-8.033676l12.626343,4.016846z"/>
  <path fill="#000000" id="path6750" d="m199.493027,257.843262l-12.626343,4.016815l0,-8.033661l12.626343,4.016846z"/>
  <path fill="#000000" id="path6752" d="m316.665619,346.783752l-12.626343,4.016815l0,-8.033661l12.626343,4.016846z"/>
  <path fill="none" stroke="#000000" stroke-width="1px" id="path6762" d="m324.0466,334.647491l-7.75,0l0,24.357147l186.369049,0"/>
  <path fill="none" stroke="#000000" stroke-miterlimit="4" stroke-dasharray="4, 4" stroke-dashoffset="0" id="path6764" d="m363.165649,359.004639l0,-30.261902l10.702393,0"/>
  <path fill="#000000" id="path7651" d="m384.978912,328.558258l-12.626343,4.016846l0,-8.033691l12.626343,4.016846z"/>
  <path fill="none" stroke="#000000" stroke-width="1.136657" stroke-miterlimit="4" stroke-dashoffset="0" id="path7654" d="m501.879486,359.004639l250.890228,0"/>
  <path fill="#000000" id="path8541" d="m765.126343,359.090149l-12.626343,4.016846l0,-8.033691l12.626343,4.016846z"/>
  <g id="g8562">
   <path fill="none" stroke="#000000" stroke-width="1px" d="m198.69577,169.129639l0,54.619049l140.238098,0" id="path8550"/>
   <path fill="none" stroke="#000000" stroke-width="1px" d="m213.642181,223.748688l0,10.886902" id="path8552"/>
   <path fill="none" stroke="#000000" stroke-width="1px" d="m198.69577,187.766541l19.587799,0" id="path8554"/>
   <path fill="#000000" d="m230.907669,187.908768l-12.626328,4.01683l0,-8.033676l12.626328,4.016846z" id="path8556"/>
   <path fill="#000000" d="m350.927979,223.890854l-12.626312,4.016846l0,-8.033676l12.626312,4.01683z" id="path8558"/>
   <path fill="#000000" d="m213.787537,245.704254l-4.01683,-12.626343l8.033676,0l-4.016846,12.626343z" id="path8560"/>
  </g>
  <path fill="none" stroke="#000000" stroke-width="1.06736px" id="path8583" d="m453.246948,226.667374l38.713959,0l0,-10.635025l236.021027,0"/>
  <path fill="none" stroke="#000000" stroke-width="1.097376" stroke-miterlimit="4" id="path8585" d="m491.9534,226.494583l0,11.299866l50.775848,0"/>
  <path fill="#000000" id="path8587" d="m554.925293,237.956955l-12.626343,4.01683l0,-8.033676l12.626343,4.016846z"/>
  <path fill="#000000" id="path8590" d="m740.261353,215.998657l-12.626343,4.01683l0,-8.033661l12.626343,4.01683z"/>
  <path fill="none" stroke="#000000" stroke-width="1px" id="path8592" d="m559.461914,216.766541l2.767883,6.827377"/>
  <path fill="none" stroke="#000000" stroke-width="1px" id="path9481" d="m568.472839,216.766541l2.767822,6.827377"/>
  <path fill="none" stroke="#000000" stroke-width="1px" id="path9501" d="m613.527344,216.766541l2.767822,6.827377"/>
  <path fill="#000000" id="path3614" d="m609.129578,222.324432l-3.652527,1.212646l2.876465,2.556839l0.776062,-3.769485z"/>
  <path fill="#000000" id="path3618" d="m564.075012,222.324432l-3.652527,1.212646l2.876465,2.556839l0.776062,-3.769485z"/>
  <path fill="#000000" id="path3622" d="m573.085999,222.324432l-3.652527,1.212646l2.876465,2.556839l0.776062,-3.769485z"/>
  <path fill="none" stroke="#000000" stroke-width="1px" id="path3624" d="m576.766846,216.059998l2.767883,6.827377"/>
  <path fill="#000000" id="path3626" d="m581.710388,222.195602l-3.652527,1.212646l2.876465,2.556839l0.776062,-3.769485z"/>
  <path fill="none" stroke="#000000" stroke-width="1px" id="path3628" d="m586.494629,216.788696l2.767822,6.827377"/>
  <path fill="#000000" id="path3630" d="m591.107727,222.324432l-3.652527,1.212646l2.876465,2.556839l0.776062,-3.769485z"/>
  <path fill="none" stroke="#000000" stroke-width="1px" id="path3632" d="m595.505554,216.788696l2.767822,6.827377"/>
  <path fill="#000000" id="path3634" d="m600.118652,222.324432l-3.652527,1.212646l2.876465,2.556839l0.776062,-3.769485z"/>
  <path fill="none" stroke="#000000" stroke-width="1px" id="path3636" d="m604.516418,216.788696l2.767822,6.827377"/>
  <path fill="#000000" id="path3640" d="m618.140503,222.324432l-3.652527,1.212646l2.876465,2.556839l0.776062,-3.769485z"/>
  <path fill="#000000" id="path3642" d="m663.315491,222.324432l-3.652527,1.212646l2.876465,2.556839l0.776062,-3.769485z"/>
  <path fill="none" stroke="#000000" stroke-width="1px" id="path3648" d="m622.658813,216.788696l2.767822,6.827377"/>
  <path fill="#000000" id="path3650" d="m627.271912,222.324432l-3.652527,1.212646l2.876465,2.556839l0.776062,-3.769485z"/>
  <path fill="none" stroke="#000000" stroke-width="1px" id="path3652" d="m631.669678,216.788696l2.767822,6.827377"/>
  <path fill="#000000" id="path3654" d="m636.282776,222.324432l-3.652527,1.212646l2.876465,2.556839l0.776062,-3.769485z"/>
  <path fill="none" stroke="#000000" stroke-width="1px" id="path3656" d="m640.680542,216.788696l2.767822,6.827377"/>
  <path fill="#000000" id="path3658" d="m645.293701,222.324432l-3.652527,1.212646l2.876465,2.556839l0.776062,-3.769485z"/>
  <path fill="none" stroke="#000000" stroke-width="1px" id="path3660" d="m649.691467,216.788696l2.767822,6.827377"/>
  <path fill="#000000" id="path3662" d="m654.304626,222.324432l-3.652527,1.212646l2.876465,2.556839l0.776062,-3.769485z"/>
  <path fill="none" stroke="#000000" stroke-width="1px" id="path3664" d="m658.702393,216.788696l2.767822,6.827377"/>
  <path fill="none" stroke="#000000" stroke-width="1px" id="path3666" d="m667.713318,216.788696l2.767822,6.827377"/>
  <path fill="#000000" id="path3668" d="m672.326416,222.324432l-3.652527,1.212646l2.876465,2.556839l0.776062,-3.769485z"/>
  <path fill="#000000" id="path3670" d="m681.40155,222.324432l-3.652527,1.212646l2.876465,2.556839l0.776062,-3.769485z"/>
  <path fill="none" stroke="#000000" stroke-width="1px" id="path3676" d="m676.788391,216.788696l2.767822,6.827377"/>
  <path fill="#000000" id="path3980" d="m690.624634,222.288696l-3.652527,1.212646l2.876465,2.556854l0.776062,-3.769501z"/>
  <path fill="none" stroke="#000000" stroke-width="1px" id="path3982" d="m686.011536,216.788696l2.767883,6.827377"/>
  <path fill="none" stroke="#000000" stroke-width="1px" id="path9509" d="m352.205414,303.935547l10.438232,0l0,-9.394409l330.141388,0"/>
  <path fill="none" stroke="#000000" stroke-width="1px" id="path9531" d="m362.643646,303.065033l0,13.830658l10.699219,0"/>
  <path fill="#000000" id="path9533" d="m384.614319,316.89566l-12.626343,4.016815l0,-8.033661l12.626343,4.016846z"/>
  <path fill="#000000" d="m704.136414,294.802094l-12.626343,4.016815l0,-8.033661l12.626343,4.016846z" id="path9535"/>
  <path fill="none" stroke="#000000" stroke-width="0.951243px" id="path9537" d="m244.793533,436.976227l0,133.982147l174.765274,0"/>
  <path fill="none" stroke="#000000" stroke-width="0.715774px" id="path9541" d="m243.793472,536.53186l50.403519,0"/>
  <path fill="none" stroke="#000000" stroke-width="0.593491px" id="path9543" d="m245.603958,503.532654l16.682907,0"/>
  <path fill="#000000" id="path9545" d="m263.280212,504.037964l-12.626343,4.016815l0,-8.033661l12.626343,4.016846z"/>
  <path fill="#000000" id="path9547" d="m305.927063,537.318604l-12.626343,4.016846l0,-8.033691l12.626343,4.016846z"/>
  <path fill="#000000" id="path9551" d="m431.818573,571.053284l-12.626343,4.016846l0,-8.033691l12.626343,4.016846z"/>
  <text font-size="14px" font-family="Bitstream Vera Sans" xml:space="preserve" id="text6340" y="159.33896" x="154.35973">
   <tspan font-size="12px" font-weight="bold" id="tspan6342" y="159.33896" x="154.35973">BSD (Berkeley Software Distribution)</tspan>
  </text>
  <text font-size="14px" font-family="Bitstream Vera Sans" xml:space="preserve" id="text6344" y="63.152569" x="434.03293">
   <tspan font-size="12px" font-weight="bold" id="tspan6346" y="63.152569" x="434.03293">FreeBSD</tspan>
  </text>
  <text font-size="14px" font-family="Bitstream Vera Sans" xml:space="preserve" id="text6348" y="95.259666" x="425.48624">
   <tspan font-size="12px" font-weight="bold" id="tspan6350" y="95.259666" x="425.48624">NetBSD</tspan>
  </text>
  <text font-size="14px" font-family="Bitstream Vera Sans" xml:space="preserve" id="text6352" y="125.8347" x="479.95206">
   <tspan font-size="12px" font-weight="bold" id="tspan6354" y="125.8347" x="479.95206">OpenBSD</tspan>
  </text>
  <text font-size="12px" font-style="normal" font-weight="normal" text-anchor="start" font-family="Bitstream Vera Sans" xml:space="preserve" id="text6356" y="192.88135" x="238.56046">
   <tspan font-size="12px" font-style="normal" font-weight="bold" text-anchor="start" font-family="Bitstream Vera Sans" id="tspan6358" y="192.88135" x="238.56046">SunOS</tspan>
  </text>
  <text font-size="14px" font-family="Bitstream Vera Sans" xml:space="preserve" id="text6360" y="469.15152" x="408.09302">
   <tspan font-size="12px" font-weight="bold" id="tspan6362" y="469.15152" x="408.09302">Solaris</tspan>
  </text>
  <text fill="black" font-size="14px" font-family="Bitstream Vera Sans" xml:space="preserve" id="text6364" y="229.53705" x="358.7847">
   <tspan font-size="12px" font-weight="bold" id="tspan6366" y="229.53705" x="357.7847">NextStep</tspan>
  </text>
  <text font-size="14px" font-family="Bitstream Vera Sans" xml:space="preserve" id="text6374" y="262.17484" x="203.73706">
   <tspan font-size="12px" font-weight="bold" id="tspan6376" y="262.17484" x="203.73706">Xenix OS</tspan>
  </text>
  <text font-size="14px" font-family="Bitstream Vera Sans" xml:space="preserve" id="text6384" y="308.06531" x="254.29659">
   <tspan font-size="12px" font-weight="bold" id="tspan6386" y="308.06531" x="254.29659">GNU</tspan>
  </text>
  <text font-weight="bold" fill="black" font-size="14px" font-family="Bitstream Vera Sans" xml:space="preserve" id="text6394" y="326.84006" x="397.42465">Linux</text>
  <text font-size="14px" font-family="Bitstream Vera Sans" xml:space="preserve" id="text6398" y="428.78854" x="248.04549">
   <tspan font-size="12px" font-weight="bold" id="tspan6400" y="428.78854" x="248.04549">
    <tspan font-weight="normal" id="tspan3342">Commercial</tspan>UNIX</tspan>
  </text>
  <text font-size="14px" font-family="Bitstream Vera Sans" xml:space="preserve" id="text6402" y="508.70709" x="273.40842">
   <tspan font-size="12px" font-weight="bold" id="tspan6404" y="508.70709" x="273.40842">HP-UX</tspan>
  </text>
  <text font-size="14px" font-family="Bitstream Vera Sans" xml:space="preserve" id="text6406" y="542.23627" x="317.79782">
   <tspan font-size="12px" font-weight="bold" id="tspan6408" y="542.23627" x="317.79782">AIX</tspan>
  </text>
  <text font-size="14px" font-family="Bitstream Vera Sans" xml:space="preserve" id="text6410" y="428.92032" x="452.50192">
   <tspan font-size="12px" font-weight="bold" id="tspan6412" y="428.92032" x="452.50192">UnixWare</tspan>
  </text>
  <text fill="black" font-size="14px" font-family="Bitstream Vera Sans" xml:space="preserve" id="text6414" y="574.7323" x="436.47986">
   <tspan font-size="12px" id="tspan6416" y="575.7323" x="439.47986">
    <tspan font-weight="bold" id="tspan3406">IRIX</tspan>
   </tspan>
  </text>
  <text font-size="18px" font-style="normal" font-weight="normal" fill="#000000" font-family="Bitstream Vera Sans" xml:space="preserve" id="text6536" y="105.08699" x="210.50624">
   <tspan font-size="20px" id="tspan6538" y="105.08699" x="210.50624">BSD family</tspan>
  </text>
  <text font-size="14px" font-family="Bitstream Vera Sans" xml:space="preserve" id="text6544" y="34.969311" x="11.811221">
   <tspan font-size="14px" id="tspan6546" y="34.969311" x="11.811221">1970</tspan>
  </text>
  <text font-size="14px" font-family="Bitstream Vera Sans" xml:space="preserve" id="text6548" y="34.969311" x="181.95457">
   <tspan font-size="14px" id="tspan6550" y="34.969311" x="181.95457">1980</tspan>
  </text>
  <text font-size="14px" font-family="Bitstream Vera Sans" xml:space="preserve" id="text6552" y="34.969311" x="351.57605">
   <tspan font-size="14px" id="tspan6554" y="34.969311" x="351.57605">1990</tspan>
  </text>
  <text font-size="14px" font-family="Bitstream Vera Sans" xml:space="preserve" id="text6556" y="34.969311" x="521.19751">
   <tspan font-size="14px" id="tspan6558" y="34.969311" x="521.19751">2000</tspan>
  </text>
  <text fill="black" font-size="13px" font-family="Bitstream Vera Sans" xml:space="preserve" id="text6560" y="30.059797" x="764.65302">
   <tspan font-size="13px" id="tspan6562" y="30.059797" x="764.65302">Time</tspan>
  </text>
  <text font-size="14px" font-family="Bitstream Vera Sans" xml:space="preserve" id="text6572" y="282.94464" x="202.75919">
   <tspan font-size="12px" id="tspan6574" y="282.94464" x="202.75919">Microsoft/SCO</tspan>
  </text>
  <text font-size="14px" font-family="Bitstream Vera Sans" xml:space="preserve" id="text6576" y="329.39484" x="249.73128">
   <tspan font-size="12px" font-style="oblique" id="tspan6578" y="329.39484" x="249.73128">Richard Stallman</tspan>
  </text>
  <text font-size="14px" font-family="Bitstream Vera Sans" xml:space="preserve" id="text6580" y="213.61781" x="493.60263">
   <tspan font-size="12px" font-weight="bold" id="tspan6582" y="213.61781" x="493.60263">Darwin</tspan>
  </text>
  <text font-size="14px" font-family="Bitstream Vera Sans" xml:space="preserve" id="text6584" y="291.38287" x="590.66046">
   <tspan font-size="12px" font-weight="bold" id="tspan6586" y="291.38287" x="590.66046">GNU/Hurd
    <tspan font-weight="normal" id="tspan3433">K16</tspan></tspan>
  </text>
  <text font-size="14px" font-family="Bitstream Vera Sans" xml:space="preserve" id="text6588" y="347.66177" x="392.21329">
   <tspan font-size="12px" font-style="oblique" id="tspan6590" y="347.66177" x="392.21329">Linus Torvalds</tspan>
  </text>
  <text font-size="14px" font-family="Bitstream Vera Sans" xml:space="preserve" id="text6592" y="370.71356" x="320.18942">
   <tspan font-size="12px" font-style="oblique" id="tspan6594" y="370.71356" x="320.18942">Andrew S. Tanenbaum</tspan>
  </text>
  <text font-size="14px" font-family="Bitstream Vera Sans" xml:space="preserve" id="text6596" y="351.31516" x="322.71133">
   <tspan font-size="12px" font-weight="bold" id="tspan6598" y="351.31516" x="322.71133">Minix</tspan>
  </text>
  <text font-size="14px" font-family="Bitstream Vera Sans" xml:space="preserve" id="text6600" y="459.37714" x="19.00852"/>
  <text font-size="14px" font-family="Bitstream Vera Sans" xml:space="preserve" id="text9581" y="230.71924" x="426.97501">
   <tspan font-size="12px" id="tspan9583" y="230.71924" x="426.97501">3.3</tspan>
  </text>
  <text font-size="14px" font-family="Bitstream Vera Sans" xml:space="preserve" id="text9613" y="576.38855" x="597.10529">
   <tspan font-size="12px" id="tspan9615" y="576.38855" x="597.10529">6.5.30</tspan>
  </text>
  <text font-size="14px" font-family="Bitstream Vera Sans" xml:space="preserve" id="text9569-1" y="193.04539" x="398.99557">
   <tspan font-size="12px" id="tspan9571-7" y="193.04539" x="398.99557">4.1.4</tspan>
  </text>
  <path fill="none" stroke="#000000" stroke-width="1.12px" d="m623.068237,39.532139l0,2.153332" id="path3600"/>
  <path fill="none" stroke="#000000" stroke-width="1.12px" d="m640.044434,39.532139l0,2.153332" id="path3602"/>
  <path fill="none" stroke="#000000" stroke-width="1.12px" d="m656.83606,39.532139l0,2.153332" id="path3604"/>
  <path fill="none" stroke="#000000" stroke-width="1.12px" d="m673.570496,39.532139l0,2.153332" id="path3608"/>
  <path fill="none" stroke="#000000" stroke-width="1.12px" d="m690.361938,39.532139l0,2.153332" id="path3612"/>
  <path fill="none" stroke="#000000" stroke-width="1px" id="path3384" d="m449.777679,103.1968l0.295563,18.028587"/>
  <path fill="none" stroke="#000000" stroke-width="0.620596px" id="path6627-9" d="m372.978394,463.956482l11.333862,0.18454"/>
  <path fill="#000000" id="path6638-4" d="m397.230133,464.368073l-12.543549,5.312683l0,-10.625366l12.543549,5.312683z"/>
  <path fill="none" stroke="#000000" stroke-width="1.255354px" id="path3384-8" d="m373.262024,435.924744l0.042297,27.927063"/>
  <rect fill="#ff7f00" stroke="#000000" stroke-linecap="round" stroke-linejoin="round" stroke-miterlimit="4" width="306.30951" height="24.357143" x="46.882465" y="380.36261" id="rect5445-5"/>
  <text font-size="14px" font-family="Bitstream Vera Sans" xml:space="preserve" id="text6398-1" y="397.03391" x="53.755146">
   <tspan font-size="12px" id="tspan6400-7" y="397.03391" x="53.755146">Research
    <tspan font-weight="bold" id="tspan3379">UNIX</tspan></tspan>
  </text>
  <text font-size="14px" font-family="Bitstream Vera Sans" xml:space="preserve" id="text9593-1" y="397.03391" x="316.58087">
   <tspan font-size="12px" id="tspan9595-1" y="397.03391" x="316.58087">10.5</tspan>
  </text>
  <path fill="none" stroke="#000000" stroke-width="0.916838px" id="path3384-8-5" d="m213.750427,405.388824l0.03891,16.237"/>
  <path fill="#000000" id="path6638-4-7" d="m239.404648,422.501831l-12.543549,5.312683l0,-10.625366l12.543549,5.312683z"/>
  <path fill="none" stroke="#000000" stroke-width="1.943115px" id="path9543-6" d="m213.053635,421.72406l17.086502,0"/>
  <text font-size="14px" font-family="Bitstream Vera Sans" xml:space="preserve" id="text6576-8" y="418.02679" x="46.509552">
   <tspan font-size="12px" font-style="oblique" id="tspan6578-2" y="418.02679" x="46.509552">Bell Labs: Ken Thompson,</tspan>
  </text>
  <text font-size="14px" font-family="Bitstream Vera Sans" xml:space="preserve" id="text6576-8-3" y="432.74661" x="46.418697">
   <tspan font-size="12px" font-style="oblique" id="tspan3358">Dennis Ritchie, et al.</tspan>
  </text>
  <text font-size="14px" font-family="Bitstream Vera Sans" xml:space="preserve" id="text6576-8-2" y="184.4711" x="147.56793">
   <tspan font-size="12px" font-style="oblique" id="tspan3373">Bill Joy</tspan>
  </text>
  <text font-size="40px" font-style="normal" font-weight="normal" fill="#000000" font-family="Bitstream Vera Sans" id="text3381" y="451.17065" x="250.78322" xml:space="preserve">
   <tspan font-size="12px" y="451.17065" x="250.78322" id="tspan3383">AT&amp;T</tspan>
  </text>
  <text font-size="40px" font-style="normal" font-weight="normal" fill="#000000" font-family="Bitstream Vera Sans" id="text3381-1" y="561.52399" x="318.67157" xml:space="preserve">
   <tspan font-size="12px" y="561.52399" x="318.67157" id="tspan3383-1">IBM</tspan>
  </text>
  <text font-size="40px" font-style="normal" font-weight="normal" fill="#000000" font-family="Bitstream Vera Sans" id="text3381-1-9" y="595.98322" x="448.70676" xml:space="preserve">
   <tspan font-size="12px" y="595.98322" x="448.70676" id="tspan3383-1-7">SGI</tspan>
  </text>
  <text font-size="40px" font-style="normal" font-weight="normal" fill="#000000" font-family="Bitstream Vera Sans" id="text3429" y="448.66281" x="449.73792" xml:space="preserve">
   <tspan font-size="12px" y="448.66281" x="449.73792" id="tspan3431">Univel/SCO</tspan>
  </text>
  <path fill="none" stroke="#000000" stroke-width="2.096646px" d="m707.847595,39.90691l0,3.781712" id="path6430-1"/>
  <path fill="none" stroke="#000000" stroke-width="1.12px" d="m724.17572,39.47995l0,2.153339" id="path6528-3"/>
  <path fill="none" stroke="#000000" stroke-width="1.12px" d="m741.336426,39.47995l0,2.153339" id="path6530-1"/>
  <path fill="none" stroke="#000000" stroke-width="1.12px" d="m758.312622,39.47995l0,2.153339" id="path6532-6"/>
  <path fill="none" stroke="#000000" stroke-width="1.12px" d="m775.104309,39.47995l0,2.153339" id="path6534-4"/>
  <path fill="none" stroke="#000000" stroke-width="1.12px" d="m792.243835,39.47995l0,2.153339" id="path3600-2"/>
  <text fill="black" font-size="14px" font-family="Bitstream Vera Sans" xml:space="preserve" id="text6556-5" y="35.026482" x="690.41077">
   <tspan font-size="14px" id="tspan6558-3" y="35.026482" x="690.41077">2010</tspan>
  </text>
  <text font-size="14px" font-family="Bitstream Vera Sans" xml:space="preserve" id="text9581-2" y="160.26436" x="427.52646">
   <tspan font-size="12px" id="tspan9583-8" y="160.26436" x="427.52646">4.4</tspan>
  </text>
  <path fill="none" stroke="#000000" stroke-width="1px" id="path3666-6" d="m694.667542,216.686447l2.767822,6.827377"/>
  <path fill="#000000" id="path3668-7" d="m699.28064,222.222168l-3.652527,1.212646l2.876465,2.556839l0.776062,-3.769485z"/>
  <path fill="#000000" id="path3670-9" d="m708.355774,222.222168l-3.652527,1.212646l2.876465,2.556839l0.776062,-3.769485z"/>
  <path fill="none" stroke="#000000" stroke-width="1px" id="path3676-6" d="m703.742615,216.686447l2.767822,6.827377"/>
  <path fill="#000000" id="path3980-8" d="m717.578918,222.186447l-3.652527,1.212646l2.876465,2.556839l0.776062,-3.769485z"/>
  <path fill="none" stroke="#000000" stroke-width="1px" id="path3982-3" d="m712.965759,216.686447l2.767822,6.827377"/>
  <path fill="#000000" id="path6752-3" d="m248.492752,303.472046l-12.626343,4.016846l0,-8.033691l12.626343,4.016846z"/>
  <path fill="none" stroke="#000000" stroke-miterlimit="4" stroke-dasharray="4,8" stroke-dashoffset="0" id="path4371" d="m235.737656,303.941864l-110.783287,-0.015594"/>
  <text xml:space="preserve" text-anchor="middle" font-family="Bitstream Vera Sans" font-size="14px" id="svg_15" y="128" x="772" stroke-linecap="round" stroke-linejoin="round" stroke-dasharray="null" stroke-width="null" fill="black">5.8</text>
  <text xml:space="preserve" text-anchor="middle" font-family="Bitstream Vera Sans" font-size="14px" id="svg_18" y="65" x="772" stroke-linecap="round" stroke-linejoin="round" stroke-dasharray="null" stroke-width="null" fill="black">10.2</text>
  <text font-weight="bold" xml:space="preserve" text-anchor="middle" font-family="Bitstream Vera Sans" font-size="14px" id="svg_20" y="242" x="577" stroke-linecap="round" stroke-linejoin="round" stroke-dasharray="null" stroke-width="null" fill="black">OS X</text>
  <text xml:space="preserve" text-anchor="middle" font-family="Bitstream Vera Sans" font-size="14px" id="svg_21" y="243" x="765" stroke-linecap="round" stroke-linejoin="round" stroke-dasharray="null" stroke-width="null" fill="black">10.11</text>
  <text xml:space="preserve" text-anchor="middle" font-family="Bitstream Vera Sans" font-size="14px" id="svg_24" y="96" x="776" stroke-linecap="round" stroke-linejoin="round" stroke-dasharray="null" stroke-width="null" fill="black">7.0</text>
  <text xml:space="preserve" text-anchor="middle" font-family="Bitstream Vera Sans" font-size="14px" id="svg_25" y="470" x="768" stroke-linecap="round" stroke-linejoin="round" stroke-dasharray="null" stroke-width="null" fill="black">11.3</text>
  <text xml:space="preserve" text-anchor="middle" font-family="Bitstream Vera Sans" font-size="14px" id="svg_30" y="542" x="772" stroke-linecap="round" stroke-linejoin="round" stroke-dasharray="null" stroke-width="null" fill="black">7.2</text>
  <text xml:space="preserve" text-anchor="middle" font-family="Bitstream Vera Sans" font-size="14px" id="svg_31" y="508" x="760" stroke-linecap="round" stroke-linejoin="round" stroke-dasharray="null" stroke-width="null" fill="black">11i v 3</text>
  <text transform="matrix(1,0,0,0.8196078557594149,0,43.09019304630806) " font-style="normal" xml:space="preserve" text-anchor="middle" font-family="Bitstream Vera Sans" font-size="14px" id="svg_33" y="543.062197" x="433" stroke-linecap="round" stroke-linejoin="round" stroke-dasharray="null" stroke-width="null" fill="black">Sun/Oracle</text>
  <text transform="matrix(1,0,0,0.9333333373069762,539,42.86666578054428) " xml:space="preserve" text-anchor="middle" font-family="Bitstream Vera Sans" font-size="14px" id="svg_34" y="235" x="34" stroke-linecap="round" stroke-linejoin="round" stroke-dasharray="null" stroke-width="null" fill="black">Apple</text>
  <text xml:space="preserve" text-anchor="middle" font-family="Bitstream Vera Sans" font-size="14px" id="svg_35" y="327" x="773" stroke-linecap="round" stroke-linejoin="round" stroke-dasharray="null" stroke-width="null" fill="black">4.3</text>
  <text xml:space="preserve" text-anchor="middle" font-family="Bitstream Vera Sans" font-size="14px" id="svg_36" y="354" x="742" stroke-linecap="round" stroke-linejoin="round" stroke-dasharray="null" stroke-width="null" fill="black">3.3</text>
 </g>
</svg>
