<?xml version="1.0" encoding="UTF-8" standalone="no"?>
<!-- Created with Inkscape (http://www.inkscape.org/) -->
<svg
   xmlns:svg="http://www.w3.org/2000/svg"
   xmlns="http://www.w3.org/2000/svg"
   version="1.0"
   width="3000"
   height="3000"
   id="svg2">
  <defs
     id="defs4" />
  <g
     id="layer1">
    <path
       d="M 94.97945,1079.1665 L 620.17897,1079.1665 L 620.17897,1295.1583 L 94.97945,1295.1583 L 94.97945,1079.1665 z "
       style="fill:#959595;fill-opacity:0.94893619;stroke:#000000;stroke-width:11.84045124;stroke-linecap:round;stroke-linejoin:round;stroke-miterlimit:4;stroke-opacity:1"
       id="rect1307" />
    <path
       d="M 133.87821,1121.4614 L 296.64356,1121.4614 L 296.64356,1250.5512 L 133.87821,1250.5512 L 133.87821,1121.4614 z "
       style="fill:none;fill-opacity:0.94893619;stroke:#000000;stroke-width:10;stroke-linecap:round;stroke-linejoin:round;stroke-miterlimit:4;stroke-opacity:1"
       id="rect2183" />
    <path
       d="M 123.47717,626.76221 C 123.47717,637.61134 115.93863,646.4063 106.63937,646.4063 C 97.340117,646.4063 89.801579,637.61134 89.801579,626.76221 C 89.801579,615.91308 97.340117,607.11812 106.63937,607.11812 C 115.93863,607.11812 123.47717,615.91308 123.47717,626.76221 z "
       transform="matrix(1.16459,0,0,0.998214,217.64,515.4283)"
       style="opacity:1;fill:none;fill-opacity:0.94893619;stroke:#000000;stroke-width:10;stroke-linecap:round;stroke-linejoin:round;stroke-miterlimit:4;stroke-dasharray:none;stroke-opacity:1"
       id="path2186" />
    <path
       d="M 167.55881,1125.0788 C 167.55881,1247.1165 167.55881,1247.1165 167.55881,1247.1165 L 167.55881,1247.1165 L 167.55881,1247.1165"
       style="fill:none;fill-opacity:0.75;fill-rule:evenodd;stroke:#000000;stroke-width:7;stroke-linecap:round;stroke-linejoin:round;stroke-miterlimit:4;stroke-dasharray:none;stroke-opacity:1"
       id="path2190" />
    <path
       d="M 198.31629,1123.5905 C 198.31629,1245.6282 198.31629,1245.6282 198.31629,1245.6282 L 198.31629,1245.6282 L 198.31629,1245.6282"
       style="fill:none;fill-opacity:0.75;fill-rule:evenodd;stroke:#000000;stroke-width:7;stroke-linecap:round;stroke-linejoin:round;stroke-miterlimit:4;stroke-dasharray:none;stroke-opacity:1"
       id="path3065" />
    <path
       d="M 231.05813,1123.5905 C 231.05813,1245.6282 231.05813,1245.6282 231.05813,1245.6282 L 231.05813,1245.6282 L 231.05813,1245.6282"
       style="fill:none;fill-opacity:0.75;fill-rule:evenodd;stroke:#000000;stroke-width:7;stroke-linecap:round;stroke-linejoin:round;stroke-miterlimit:4;stroke-dasharray:none;stroke-opacity:1"
       id="path3067" />
    <path
       d="M 264.79211,1125.5749 C 264.79211,1247.6126 264.79211,1247.6126 264.79211,1247.6126 L 264.79211,1247.6126 L 264.79211,1247.6126"
       style="fill:none;fill-opacity:0.75;fill-rule:evenodd;stroke:#000000;stroke-width:7;stroke-linecap:round;stroke-linejoin:round;stroke-miterlimit:4;stroke-dasharray:none;stroke-opacity:1"
       id="path3069" />
    <path
       d="M 414.14952,1121.8849 L 576.91486,1121.8849 L 576.91486,1250.9747 L 414.14952,1250.9747 L 414.14952,1121.8849 z "
       style="fill:none;fill-opacity:0.94893619;stroke:#000000;stroke-width:10;stroke-linecap:round;stroke-linejoin:round;stroke-miterlimit:4;stroke-opacity:1"
       id="path3073" />
    <path
       d="M 447.83011,1125.5023 C 447.83011,1247.54 447.83011,1247.54 447.83011,1247.54 L 447.83011,1247.54 L 447.83011,1247.54"
       style="fill:none;fill-opacity:0.75;fill-rule:evenodd;stroke:#000000;stroke-width:7;stroke-linecap:round;stroke-linejoin:round;stroke-miterlimit:4;stroke-dasharray:none;stroke-opacity:1"
       id="path3077" />
    <path
       d="M 478.58759,1124.014 C 478.58759,1246.0518 478.58759,1246.0518 478.58759,1246.0518 L 478.58759,1246.0518 L 478.58759,1246.0518"
       style="fill:none;fill-opacity:0.75;fill-rule:evenodd;stroke:#000000;stroke-width:7;stroke-linecap:round;stroke-linejoin:round;stroke-miterlimit:4;stroke-dasharray:none;stroke-opacity:1"
       id="path3079" />
    <path
       d="M 511.32943,1124.014 C 511.32943,1246.0518 511.32943,1246.0518 511.32943,1246.0518 L 511.32943,1246.0518 L 511.32943,1246.0518"
       style="fill:none;fill-opacity:0.75;fill-rule:evenodd;stroke:#000000;stroke-width:7;stroke-linecap:round;stroke-linejoin:round;stroke-miterlimit:4;stroke-dasharray:none;stroke-opacity:1"
       id="path3081" />
    <path
       d="M 545.06341,1125.9984 C 545.06341,1248.0361 545.06341,1248.0361 545.06341,1248.0361 L 545.06341,1248.0361 L 545.06341,1248.0361"
       style="fill:none;fill-opacity:0.75;fill-rule:evenodd;stroke:#000000;stroke-width:7;stroke-linecap:round;stroke-linejoin:round;stroke-miterlimit:4;stroke-dasharray:none;stroke-opacity:1"
       id="path3083" />
    <path
       d="M 174.83109,1347.4777 L 700.03061,1347.4777 L 700.03061,1563.4695 L 174.83109,1563.4695 L 174.83109,1347.4777 z "
       style="fill:#959595;fill-opacity:0.94893619;stroke:#000000;stroke-width:11.84045124;stroke-linecap:round;stroke-linejoin:round;stroke-miterlimit:4;stroke-opacity:1"
       id="path3095" />
    <path
       d="M 213.72985,1389.7726 L 376.4952,1389.7726 L 376.4952,1518.8624 L 213.72985,1518.8624 L 213.72985,1389.7726 z "
       style="fill:none;fill-opacity:0.94893619;stroke:#000000;stroke-width:10;stroke-linecap:round;stroke-linejoin:round;stroke-miterlimit:4;stroke-opacity:1"
       id="path3097" />
    <path
       d="M 123.47717,626.76221 C 123.47717,637.61134 115.93863,646.4063 106.63937,646.4063 C 97.340117,646.4063 89.801579,637.61134 89.801579,626.76221 C 89.801579,615.91308 97.340117,607.11812 106.63937,607.11812 C 115.93863,607.11812 123.47717,615.91308 123.47717,626.76221 z "
       transform="matrix(1.16459,0,0,0.998214,297.4915,783.7395)"
       style="opacity:1;fill:#959595;fill-opacity:0.94893619;stroke:#000000;stroke-width:10;stroke-linecap:round;stroke-linejoin:round;stroke-miterlimit:4;stroke-dasharray:none;stroke-opacity:1"
       id="path3099" />
    <path
       d="M 247.41045,1393.39 C 247.41045,1515.4277 247.41045,1515.4277 247.41045,1515.4277 L 247.41045,1515.4277 L 247.41045,1515.4277"
       style="fill:none;fill-opacity:0.75;fill-rule:evenodd;stroke:#000000;stroke-width:7;stroke-linecap:round;stroke-linejoin:round;stroke-miterlimit:4;stroke-dasharray:none;stroke-opacity:1"
       id="path3101" />
    <path
       d="M 278.16793,1391.9017 C 278.16793,1513.9394 278.16793,1513.9394 278.16793,1513.9394 L 278.16793,1513.9394 L 278.16793,1513.9394"
       style="fill:none;fill-opacity:0.75;fill-rule:evenodd;stroke:#000000;stroke-width:7;stroke-linecap:round;stroke-linejoin:round;stroke-miterlimit:4;stroke-dasharray:none;stroke-opacity:1"
       id="path3103" />
    <path
       d="M 310.90977,1391.9017 C 310.90977,1513.9394 310.90977,1513.9394 310.90977,1513.9394 L 310.90977,1513.9394 L 310.90977,1513.9394"
       style="fill:none;fill-opacity:0.75;fill-rule:evenodd;stroke:#000000;stroke-width:7;stroke-linecap:round;stroke-linejoin:round;stroke-miterlimit:4;stroke-dasharray:none;stroke-opacity:1"
       id="path3105" />
    <path
       d="M 344.64375,1393.8861 C 344.64375,1515.9238 344.64375,1515.9238 344.64375,1515.9238 L 344.64375,1515.9238 L 344.64375,1515.9238"
       style="fill:none;fill-opacity:0.75;fill-rule:evenodd;stroke:#000000;stroke-width:7;stroke-linecap:round;stroke-linejoin:round;stroke-miterlimit:4;stroke-dasharray:none;stroke-opacity:1"
       id="path3107" />
    <path
       d="M 494.00116,1390.1961 L 656.7665,1390.1961 L 656.7665,1519.2859 L 494.00116,1519.2859 L 494.00116,1390.1961 z "
       style="fill:none;fill-opacity:0.94893619;stroke:#000000;stroke-width:10;stroke-linecap:round;stroke-linejoin:round;stroke-miterlimit:4;stroke-opacity:1"
       id="path3109" />
    <path
       d="M 527.68175,1393.8135 C 527.68175,1515.8512 527.68175,1515.8512 527.68175,1515.8512 L 527.68175,1515.8512 L 527.68175,1515.8512"
       style="fill:none;fill-opacity:0.75;fill-rule:evenodd;stroke:#000000;stroke-width:7;stroke-linecap:round;stroke-linejoin:round;stroke-miterlimit:4;stroke-dasharray:none;stroke-opacity:1"
       id="path3111" />
    <path
       d="M 558.43923,1392.3252 C 558.43923,1514.3629 558.43923,1514.3629 558.43923,1514.3629 L 558.43923,1514.3629 L 558.43923,1514.3629"
       style="fill:none;fill-opacity:0.75;fill-rule:evenodd;stroke:#000000;stroke-width:7;stroke-linecap:round;stroke-linejoin:round;stroke-miterlimit:4;stroke-dasharray:none;stroke-opacity:1"
       id="path3113" />
    <path
       d="M 591.18107,1392.3252 C 591.18107,1514.3629 591.18107,1514.3629 591.18107,1514.3629 L 591.18107,1514.3629 L 591.18107,1514.3629"
       style="fill:none;fill-opacity:0.75;fill-rule:evenodd;stroke:#000000;stroke-width:7;stroke-linecap:round;stroke-linejoin:round;stroke-miterlimit:4;stroke-dasharray:none;stroke-opacity:1"
       id="path3115" />
    <path
       d="M 624.91505,1394.3096 C 624.91505,1516.3473 624.91505,1516.3473 624.91505,1516.3473 L 624.91505,1516.3473 L 624.91505,1516.3473"
       style="fill:none;fill-opacity:0.75;fill-rule:evenodd;stroke:#000000;stroke-width:7;stroke-linecap:round;stroke-linejoin:round;stroke-miterlimit:4;stroke-dasharray:none;stroke-opacity:1"
       id="path3117" />
    <path
       d="M 373.33334,266.66666 C 373.33334,310.84944 338.71002,346.66666 296,346.66666 C 253.28998,346.66666 218.66666,310.84944 218.66666,266.66666 C 218.66666,222.48388 253.28998,186.66666 296,186.66666 C 338.71002,186.66666 373.33334,222.48388 373.33334,266.66666 z "
       transform="matrix(0.928511,0,0,0.89756,90.0306,702.3821)"
       style="opacity:1;fill:none;fill-opacity:1;stroke:#723c3c;stroke-width:21.90810013;stroke-linecap:round;stroke-linejoin:round;stroke-miterlimit:4;stroke-dasharray:none;stroke-opacity:1"
       id="path3119" />
    <path
       d="M 343.48079,971.6976 L 361.2054,971.6976 L 361.2054,910.52081 L 341.92317,914.388 L 341.92317,904.50519 L 361.09798,900.638 L 371.94759,900.638 L 371.94759,971.6976 L 389.6722,971.6976 L 389.6722,980.8284 L 343.48079,980.8284 L 343.48079,971.6976"
       style="font-size:48px;font-style:normal;font-variant:normal;font-weight:normal;font-stretch:normal;text-align:start;line-height:100%;writing-mode:lr-tb;text-anchor:start;fill:#723c3c;fill-opacity:1;stroke:none;stroke-width:1px;stroke-linecap:butt;stroke-linejoin:miter;stroke-opacity:1;font-family:Bitstream Vera Sans"
       id="text4867" />
    <path
       d="M 1145.9521,957.75554 L 1145.9521,370.24451 L 1498.7142,370.24451 L 1498.7142,957.75554 L 1145.9521,957.75554 z "
       style="fill:#959595;fill-opacity:0.94893619;stroke:#000000;stroke-width:16.00429153;stroke-linecap:round;stroke-linejoin:round;stroke-miterlimit:4;stroke-opacity:1"
       id="path5745" />
    <path
       d="M 1200.9138,450.12173 L 1441.7528,450.12173 L 1441.7528,579.21153 L 1200.9138,579.21153 L 1200.9138,450.12173 z "
       style="fill:none;fill-opacity:0.94893619;stroke:#000000;stroke-width:12.16417027;stroke-linecap:round;stroke-linejoin:round;stroke-miterlimit:4;stroke-opacity:1"
       id="path7495" />
    <path
       d="M 1436.7133,514.66668 C 1208.6197,514.66668 1208.6197,514.66668 1208.6197,514.66668 L 1208.6197,514.66668 L 1208.6197,514.66668"
       style="fill:none;fill-opacity:0.75;fill-rule:evenodd;stroke:#000000;stroke-width:10.29158306;stroke-linecap:round;stroke-linejoin:round;stroke-miterlimit:4;stroke-dasharray:none;stroke-opacity:1"
       id="path7497" />
    <path
       d="M 123.47717,626.76221 C 123.47717,637.61134 115.93863,646.4063 106.63937,646.4063 C 97.340117,646.4063 89.801579,637.61134 89.801579,626.76221 C 89.801579,615.91308 97.340117,607.11812 106.63937,607.11812 C 115.93863,607.11812 123.47717,615.91308 123.47717,626.76221 z "
       transform="matrix(1.16459,0,0,0.998214,1099.809,6.3572)"
       style="opacity:1;fill:none;fill-opacity:0.94893619;stroke:#000000;stroke-width:10;stroke-linecap:round;stroke-linejoin:round;stroke-miterlimit:4;stroke-dasharray:none;stroke-opacity:1"
       id="path9245" />
    <path
       d="M 1943.619,1461.7555 L 1943.619,874.2445 L 2296.381,874.2445 L 2296.381,1461.7555 L 1943.619,1461.7555 z "
       style="fill:#959595;fill-opacity:0.94893619;stroke:#000000;stroke-width:16.00429153;stroke-linecap:round;stroke-linejoin:round;stroke-miterlimit:4;stroke-opacity:1"
       id="path9247" />
    <path
       d="M 1998.5807,954.1217 L 2239.4197,954.1217 L 2239.4197,1083.2115 L 1998.5807,1083.2115 L 1998.5807,954.1217 z "
       style="fill:none;fill-opacity:0.94893619;stroke:#000000;stroke-width:12.16417027;stroke-linecap:round;stroke-linejoin:round;stroke-miterlimit:4;stroke-opacity:1"
       id="path9249" />
    <path
       d="M 2234.3801,1018.6667 C 2006.2866,1018.6667 2006.2866,1018.6667 2006.2866,1018.6667 L 2006.2866,1018.6667 L 2006.2866,1018.6667"
       style="fill:none;fill-opacity:0.75;fill-rule:evenodd;stroke:#000000;stroke-width:10.29158306;stroke-linecap:round;stroke-linejoin:round;stroke-miterlimit:4;stroke-dasharray:none;stroke-opacity:1"
       id="path9251" />
    <path
       d="M 123.47717,626.76221 C 123.47717,637.61134 115.93863,646.4063 106.63937,646.4063 C 97.340117,646.4063 89.801579,637.61134 89.801579,626.76221 C 89.801579,615.91308 97.340117,607.11812 106.63937,607.11812 C 115.93863,607.11812 123.47717,615.91308 123.47717,626.76221 z "
       transform="matrix(1.16459,0,0,0.998214,1897.476,510.3572)"
       style="opacity:1;fill:none;fill-opacity:0.94893619;stroke:#000000;stroke-width:10;stroke-linecap:round;stroke-linejoin:round;stroke-miterlimit:4;stroke-dasharray:none;stroke-opacity:1"
       id="path9253" />
    <path
       d="M 495.61895,2781.7555 L 495.61895,2194.2445 L 848.381,2194.2445 L 848.381,2781.7555 L 495.61895,2781.7555 z "
       style="fill:#959595;fill-opacity:0.94893619;stroke:#000000;stroke-width:16.00429153;stroke-linecap:round;stroke-linejoin:round;stroke-miterlimit:4;stroke-opacity:1"
       id="path9263" />
    <path
       d="M 550.58065,2274.1217 L 791.4197,2274.1217 L 791.4197,2403.2115 L 550.58065,2403.2115 L 550.58065,2274.1217 z "
       style="fill:none;fill-opacity:0.94893619;stroke:#000000;stroke-width:12.16417027;stroke-linecap:round;stroke-linejoin:round;stroke-miterlimit:4;stroke-opacity:1"
       id="path9265" />
    <path
       d="M 786.3801,2338.6667 C 558.28655,2338.6667 558.28655,2338.6667 558.28655,2338.6667 L 558.28655,2338.6667 L 558.28655,2338.6667"
       style="fill:none;fill-opacity:0.75;fill-rule:evenodd;stroke:#000000;stroke-width:10.29158306;stroke-linecap:round;stroke-linejoin:round;stroke-miterlimit:4;stroke-dasharray:none;stroke-opacity:1"
       id="path9267" />
    <path
       d="M 123.47717,626.76221 C 123.47717,637.61134 115.93863,646.4063 106.63937,646.4063 C 97.340117,646.4063 89.801579,637.61134 89.801579,626.76221 C 89.801579,615.91308 97.340117,607.11812 106.63937,607.11812 C 115.93863,607.11812 123.47717,615.91308 123.47717,626.76221 z "
       transform="matrix(1.16459,0,0,0.998214,449.4759,1830.357)"
       style="opacity:1;fill:none;fill-opacity:0.94893619;stroke:#000000;stroke-width:10;stroke-linecap:round;stroke-linejoin:round;stroke-miterlimit:4;stroke-dasharray:none;stroke-opacity:1"
       id="path9269" />
    <path
       d="M 903.619,2629.7555 L 903.619,2042.2445 L 1256.381,2042.2445 L 1256.381,2629.7555 L 903.619,2629.7555 z "
       style="fill:#959595;fill-opacity:0.94893619;stroke:#000000;stroke-width:16.00429153;stroke-linecap:round;stroke-linejoin:round;stroke-miterlimit:4;stroke-opacity:1"
       id="path9271" />
    <path
       d="M 958.5807,2122.1217 L 1199.4197,2122.1217 L 1199.4197,2251.2115 L 958.5807,2251.2115 L 958.5807,2122.1217 z "
       style="fill:none;fill-opacity:0.94893619;stroke:#000000;stroke-width:12.16417027;stroke-linecap:round;stroke-linejoin:round;stroke-miterlimit:4;stroke-opacity:1"
       id="path9273" />
    <path
       d="M 1194.3801,2186.6667 C 966.2866,2186.6667 966.2866,2186.6667 966.2866,2186.6667 L 966.2866,2186.6667 L 966.2866,2186.6667"
       style="fill:none;fill-opacity:0.75;fill-rule:evenodd;stroke:#000000;stroke-width:10.29158306;stroke-linecap:round;stroke-linejoin:round;stroke-miterlimit:4;stroke-dasharray:none;stroke-opacity:1"
       id="path9275" />
    <path
       d="M 123.47717,626.76221 C 123.47717,637.61134 115.93863,646.4063 106.63937,646.4063 C 97.340117,646.4063 89.801579,637.61134 89.801579,626.76221 C 89.801579,615.91308 97.340117,607.11812 106.63937,607.11812 C 115.93863,607.11812 123.47717,615.91308 123.47717,626.76221 z "
       transform="matrix(1.16459,0,0,0.998214,857.476,1678.357)"
       style="opacity:1;fill:none;fill-opacity:0.94893619;stroke:#000000;stroke-width:10;stroke-linecap:round;stroke-linejoin:round;stroke-miterlimit:4;stroke-dasharray:none;stroke-opacity:1"
       id="path9277" />
    <path
       d="M 1769.4744,2173.8485 L 2294.6739,2173.8485 L 2294.6739,2389.8403 L 1769.4744,2389.8403 L 1769.4744,2173.8485 z "
       style="fill:#959595;fill-opacity:0.94893619;stroke:#000000;stroke-width:11.84045124;stroke-linecap:round;stroke-linejoin:round;stroke-miterlimit:4;stroke-opacity:1"
       id="path9279" />
    <path
       d="M 1808.3732,2216.1434 L 1971.1385,2216.1434 L 1971.1385,2345.2332 L 1808.3732,2345.2332 L 1808.3732,2216.1434 z "
       style="fill:none;fill-opacity:0.94893619;stroke:#000000;stroke-width:10;stroke-linecap:round;stroke-linejoin:round;stroke-miterlimit:4;stroke-opacity:1"
       id="path9281" />
    <path
       d="M 123.47717,626.76221 C 123.47717,637.61134 115.93863,646.4063 106.63937,646.4063 C 97.340117,646.4063 89.801579,637.61134 89.801579,626.76221 C 89.801579,615.91308 97.340117,607.11812 106.63937,607.11812 C 115.93863,607.11812 123.47717,615.91308 123.47717,626.76221 z "
       transform="matrix(1.16459,0,0,0.998214,1892.135,1610.11)"
       style="opacity:1;fill:none;fill-opacity:0.94893619;stroke:#000000;stroke-width:10;stroke-linecap:round;stroke-linejoin:round;stroke-miterlimit:4;stroke-dasharray:none;stroke-opacity:1"
       id="path9283" />
    <path
       d="M 1842.0538,2219.7608 C 1842.0538,2341.7985 1842.0538,2341.7985 1842.0538,2341.7985 L 1842.0538,2341.7985 L 1842.0538,2341.7985"
       style="fill:none;fill-opacity:0.75;fill-rule:evenodd;stroke:#000000;stroke-width:7;stroke-linecap:round;stroke-linejoin:round;stroke-miterlimit:4;stroke-dasharray:none;stroke-opacity:1"
       id="path9285" />
    <path
       d="M 1872.8113,2218.2725 C 1872.8113,2340.3102 1872.8113,2340.3102 1872.8113,2340.3102 L 1872.8113,2340.3102 L 1872.8113,2340.3102"
       style="fill:none;fill-opacity:0.75;fill-rule:evenodd;stroke:#000000;stroke-width:7;stroke-linecap:round;stroke-linejoin:round;stroke-miterlimit:4;stroke-dasharray:none;stroke-opacity:1"
       id="path9287" />
    <path
       d="M 1905.5531,2218.2725 C 1905.5531,2340.3102 1905.5531,2340.3102 1905.5531,2340.3102 L 1905.5531,2340.3102 L 1905.5531,2340.3102"
       style="fill:none;fill-opacity:0.75;fill-rule:evenodd;stroke:#000000;stroke-width:7;stroke-linecap:round;stroke-linejoin:round;stroke-miterlimit:4;stroke-dasharray:none;stroke-opacity:1"
       id="path9289" />
    <path
       d="M 1939.2871,2220.2569 C 1939.2871,2342.2946 1939.2871,2342.2946 1939.2871,2342.2946 L 1939.2871,2342.2946 L 1939.2871,2342.2946"
       style="fill:none;fill-opacity:0.75;fill-rule:evenodd;stroke:#000000;stroke-width:7;stroke-linecap:round;stroke-linejoin:round;stroke-miterlimit:4;stroke-dasharray:none;stroke-opacity:1"
       id="path9291" />
    <path
       d="M 2088.6445,2216.5669 L 2251.4098,2216.5669 L 2251.4098,2345.6567 L 2088.6445,2345.6567 L 2088.6445,2216.5669 z "
       style="fill:none;fill-opacity:0.94893619;stroke:#000000;stroke-width:10;stroke-linecap:round;stroke-linejoin:round;stroke-miterlimit:4;stroke-opacity:1"
       id="path9293" />
    <path
       d="M 2122.3251,2220.1843 C 2122.3251,2342.222 2122.3251,2342.222 2122.3251,2342.222 L 2122.3251,2342.222 L 2122.3251,2342.222"
       style="fill:none;fill-opacity:0.75;fill-rule:evenodd;stroke:#000000;stroke-width:7;stroke-linecap:round;stroke-linejoin:round;stroke-miterlimit:4;stroke-dasharray:none;stroke-opacity:1"
       id="path9295" />
    <path
       d="M 2153.0826,2218.696 C 2153.0826,2340.7338 2153.0826,2340.7338 2153.0826,2340.7338 L 2153.0826,2340.7338 L 2153.0826,2340.7338"
       style="fill:none;fill-opacity:0.75;fill-rule:evenodd;stroke:#000000;stroke-width:7;stroke-linecap:round;stroke-linejoin:round;stroke-miterlimit:4;stroke-dasharray:none;stroke-opacity:1"
       id="path9297" />
    <path
       d="M 2185.8244,2218.696 C 2185.8244,2340.7338 2185.8244,2340.7338 2185.8244,2340.7338 L 2185.8244,2340.7338 L 2185.8244,2340.7338"
       style="fill:none;fill-opacity:0.75;fill-rule:evenodd;stroke:#000000;stroke-width:7;stroke-linecap:round;stroke-linejoin:round;stroke-miterlimit:4;stroke-dasharray:none;stroke-opacity:1"
       id="path9299" />
    <path
       d="M 2219.5584,2220.6804 C 2219.5584,2342.7181 2219.5584,2342.7181 2219.5584,2342.7181 L 2219.5584,2342.7181 L 2219.5584,2342.7181"
       style="fill:none;fill-opacity:0.75;fill-rule:evenodd;stroke:#000000;stroke-width:7;stroke-linecap:round;stroke-linejoin:round;stroke-miterlimit:4;stroke-dasharray:none;stroke-opacity:1"
       id="path9301" />
    <path
       d="M 1849.3261,2442.1597 L 2374.5256,2442.1597 L 2374.5256,2658.1515 L 1849.3261,2658.1515 L 1849.3261,2442.1597 z "
       style="fill:#959595;fill-opacity:0.94893619;stroke:#000000;stroke-width:11.84045124;stroke-linecap:round;stroke-linejoin:round;stroke-miterlimit:4;stroke-opacity:1"
       id="path9303" />
    <path
       d="M 1888.2248,2484.4546 L 2050.9902,2484.4546 L 2050.9902,2613.5444 L 1888.2248,2613.5444 L 1888.2248,2484.4546 z "
       style="fill:none;fill-opacity:0.94893619;stroke:#000000;stroke-width:10;stroke-linecap:round;stroke-linejoin:round;stroke-miterlimit:4;stroke-opacity:1"
       id="path9305" />
    <path
       d="M 123.47717,626.76221 C 123.47717,637.61134 115.93863,646.4063 106.63937,646.4063 C 97.340117,646.4063 89.801579,637.61134 89.801579,626.76221 C 89.801579,615.91308 97.340117,607.11812 106.63937,607.11812 C 115.93863,607.11812 123.47717,615.91308 123.47717,626.76221 z "
       transform="matrix(1.16459,0,0,0.998214,1971.986,1878.422)"
       style="opacity:1;fill:none;fill-opacity:0.94893619;stroke:#000000;stroke-width:10;stroke-linecap:round;stroke-linejoin:round;stroke-miterlimit:4;stroke-dasharray:none;stroke-opacity:1"
       id="path9307" />
    <path
       d="M 1921.9054,2488.072 C 1921.9054,2610.1097 1921.9054,2610.1097 1921.9054,2610.1097 L 1921.9054,2610.1097 L 1921.9054,2610.1097"
       style="fill:none;fill-opacity:0.75;fill-rule:evenodd;stroke:#000000;stroke-width:7;stroke-linecap:round;stroke-linejoin:round;stroke-miterlimit:4;stroke-dasharray:none;stroke-opacity:1"
       id="path9309" />
    <path
       d="M 1952.6629,2486.5837 C 1952.6629,2608.6214 1952.6629,2608.6214 1952.6629,2608.6214 L 1952.6629,2608.6214 L 1952.6629,2608.6214"
       style="fill:none;fill-opacity:0.75;fill-rule:evenodd;stroke:#000000;stroke-width:7;stroke-linecap:round;stroke-linejoin:round;stroke-miterlimit:4;stroke-dasharray:none;stroke-opacity:1"
       id="path9311" />
    <path
       d="M 1985.4047,2486.5837 C 1985.4047,2608.6214 1985.4047,2608.6214 1985.4047,2608.6214 L 1985.4047,2608.6214 L 1985.4047,2608.6214"
       style="fill:none;fill-opacity:0.75;fill-rule:evenodd;stroke:#000000;stroke-width:7;stroke-linecap:round;stroke-linejoin:round;stroke-miterlimit:4;stroke-dasharray:none;stroke-opacity:1"
       id="path9313" />
    <path
       d="M 2019.1387,2488.5681 C 2019.1387,2610.6058 2019.1387,2610.6058 2019.1387,2610.6058 L 2019.1387,2610.6058 L 2019.1387,2610.6058"
       style="fill:none;fill-opacity:0.75;fill-rule:evenodd;stroke:#000000;stroke-width:7;stroke-linecap:round;stroke-linejoin:round;stroke-miterlimit:4;stroke-dasharray:none;stroke-opacity:1"
       id="path9315" />
    <path
       d="M 2168.4961,2484.8781 L 2331.2615,2484.8781 L 2331.2615,2613.9679 L 2168.4961,2613.9679 L 2168.4961,2484.8781 z "
       style="fill:none;fill-opacity:0.94893619;stroke:#000000;stroke-width:10;stroke-linecap:round;stroke-linejoin:round;stroke-miterlimit:4;stroke-opacity:1"
       id="path9317" />
    <path
       d="M 2202.1767,2488.4955 C 2202.1767,2610.5332 2202.1767,2610.5332 2202.1767,2610.5332 L 2202.1767,2610.5332 L 2202.1767,2610.5332"
       style="fill:none;fill-opacity:0.75;fill-rule:evenodd;stroke:#000000;stroke-width:7;stroke-linecap:round;stroke-linejoin:round;stroke-miterlimit:4;stroke-dasharray:none;stroke-opacity:1"
       id="path9319" />
    <path
       d="M 2232.9342,2487.0072 C 2232.9342,2609.0449 2232.9342,2609.0449 2232.9342,2609.0449 L 2232.9342,2609.0449 L 2232.9342,2609.0449"
       style="fill:none;fill-opacity:0.75;fill-rule:evenodd;stroke:#000000;stroke-width:7;stroke-linecap:round;stroke-linejoin:round;stroke-miterlimit:4;stroke-dasharray:none;stroke-opacity:1"
       id="path9321" />
    <path
       d="M 2265.676,2487.0072 C 2265.676,2609.0449 2265.676,2609.0449 2265.676,2609.0449 L 2265.676,2609.0449 L 2265.676,2609.0449"
       style="fill:none;fill-opacity:0.75;fill-rule:evenodd;stroke:#000000;stroke-width:7;stroke-linecap:round;stroke-linejoin:round;stroke-miterlimit:4;stroke-dasharray:none;stroke-opacity:1"
       id="path9323" />
    <path
       d="M 2299.41,2488.9916 C 2299.41,2611.0293 2299.41,2611.0293 2299.41,2611.0293 L 2299.41,2611.0293 L 2299.41,2611.0293"
       style="fill:none;fill-opacity:0.75;fill-rule:evenodd;stroke:#000000;stroke-width:7;stroke-linecap:round;stroke-linejoin:round;stroke-miterlimit:4;stroke-dasharray:none;stroke-opacity:1"
       id="path9325" />
    <path
       d="M 1247.0685,1064.9535 L 1247.0685,726.82857 L 1584.5254,726.82857 L 1584.5254,1064.9535 L 1247.0685,1064.9535 z "
       style="fill:#fc7070;fill-opacity:1;stroke:#000000;stroke-width:11.87504673;stroke-linecap:round;stroke-linejoin:round;stroke-miterlimit:4;stroke-opacity:1"
       id="path9327" />
    <path
       d="M 123.47717,626.76221 C 123.47717,637.61134 115.93863,646.4063 106.63937,646.4063 C 97.340117,646.4063 89.801579,637.61134 89.801579,626.76221 C 89.801579,615.91308 97.340117,607.11812 106.63937,607.11812 C 115.93863,607.11812 123.47717,615.91308 123.47717,626.76221 z "
       transform="matrix(9.281578,0,0,7.955597,1236.555,-3572.604)"
       style="opacity:1;fill:#528600;fill-opacity:1;stroke:#000000;stroke-width:3.49119377;stroke-linecap:round;stroke-linejoin:round;stroke-miterlimit:4;stroke-dasharray:none;stroke-opacity:1"
       id="path11077" />
    <path
       d="M 2133.1175,1416.0808 L 2159.1673,1375.4753 L 2136.7161,1338.2 L 2153.3665,1338.2 L 2169.2112,1363.8738 L 2186.5061,1338.2 L 2203.1565,1338.2 L 2179.2552,1375.4753 L 2205.305,1416.0808 L 2188.6546,1416.0808 L 2169.2112,1386.8621 L 2149.7679,1416.0808 L 2133.1175,1416.0808"
       style="font-size:48px;font-style:normal;font-variant:normal;font-weight:normal;font-stretch:normal;text-align:start;line-height:100%;writing-mode:lr-tb;text-anchor:start;fill:#000000;fill-opacity:1;stroke:none;stroke-width:1px;stroke-linecap:butt;stroke-linejoin:miter;stroke-opacity:1;font-family:Bitstream Vera Sans"
       id="text12825" />
    <path
       d="M 2249.2753,1415.4232 L 2275.3251,1374.8177 L 2252.8739,1337.5424 L 2269.5243,1337.5424 L 2285.369,1363.2162 L 2302.6639,1337.5424 L 2319.3143,1337.5424 L 2295.413,1374.8177 L 2321.4628,1415.4232 L 2304.8124,1415.4232 L 2285.369,1386.2045 L 2265.9257,1415.4232 L 2249.2753,1415.4232"
       style="font-size:48px;font-style:normal;font-variant:normal;font-weight:normal;font-stretch:normal;text-align:start;line-height:100%;writing-mode:lr-tb;text-anchor:start;fill:#000000;fill-opacity:1;stroke:none;stroke-width:1px;stroke-linecap:butt;stroke-linejoin:miter;stroke-opacity:1;font-family:Bitstream Vera Sans"
       id="path12830" />
    <path
       d="M 2289.8194,1478.3062 C 2167.7817,1478.3062 2167.7817,1478.3062 2167.7817,1478.3062 L 2167.7817,1478.3062 L 2167.7817,1478.3062"
       style="fill:none;fill-opacity:0.75;fill-rule:evenodd;stroke:#000000;stroke-width:15;stroke-linecap:round;stroke-linejoin:round;stroke-miterlimit:4;stroke-dasharray:none;stroke-opacity:1"
       id="path12832" />
    <path
       d="M 2465.0016,1692.1623 L 2465.0016,1104.6513 L 2817.7636,1104.6513 L 2817.7636,1692.1623 L 2465.0016,1692.1623 z "
       style="fill:#959595;fill-opacity:0.94893619;stroke:#000000;stroke-width:16.00429153;stroke-linecap:round;stroke-linejoin:round;stroke-miterlimit:4;stroke-opacity:1"
       id="path13707" />
    <path
       d="M 2519.9633,1184.5285 L 2760.8023,1184.5285 L 2760.8023,1313.6183 L 2519.9633,1313.6183 L 2519.9633,1184.5285 z "
       style="fill:none;fill-opacity:0.94893619;stroke:#000000;stroke-width:12.16417027;stroke-linecap:round;stroke-linejoin:round;stroke-miterlimit:4;stroke-opacity:1"
       id="path13709" />
    <path
       d="M 2755.7627,1249.0735 C 2527.6692,1249.0735 2527.6692,1249.0735 2527.6692,1249.0735 L 2527.6692,1249.0735 L 2527.6692,1249.0735"
       style="fill:none;fill-opacity:0.75;fill-rule:evenodd;stroke:#000000;stroke-width:10.29158306;stroke-linecap:round;stroke-linejoin:round;stroke-miterlimit:4;stroke-dasharray:none;stroke-opacity:1"
       id="path13711" />
    <path
       d="M 123.47717,626.76221 C 123.47717,637.61134 115.93863,646.4063 106.63937,646.4063 C 97.340117,646.4063 89.801579,637.61134 89.801579,626.76221 C 89.801579,615.91308 97.340117,607.11812 106.63937,607.11812 C 115.93863,607.11812 123.47717,615.91308 123.47717,626.76221 z "
       transform="matrix(1.16459,0,0,0.998214,2418.859,740.764)"
       style="opacity:1;fill:none;fill-opacity:0.94893619;stroke:#000000;stroke-width:10;stroke-linecap:round;stroke-linejoin:round;stroke-miterlimit:4;stroke-dasharray:none;stroke-opacity:1"
       id="path13713" />
    <path
       d="M 123.47717,626.76221 C 123.47717,637.61134 115.93863,646.4063 106.63937,646.4063 C 97.340117,646.4063 89.801579,637.61134 89.801579,626.76221 C 89.801579,615.91308 97.340117,607.11812 106.63937,607.11812 C 115.93863,607.11812 123.47717,615.91308 123.47717,626.76221 z "
       transform="matrix(9.281578,0,0,7.955597,1757.938,-3342.197)"
       style="opacity:1;fill:#528600;fill-opacity:1;stroke:#000000;stroke-width:3.49119377;stroke-linecap:round;stroke-linejoin:round;stroke-miterlimit:4;stroke-dasharray:none;stroke-opacity:1"
       id="path13715" />
    <path
       d="M 2654.5001,1646.4876 L 2680.5499,1605.8821 L 2658.0987,1568.6068 L 2674.7491,1568.6068 L 2690.5938,1594.2806 L 2707.8887,1568.6068 L 2724.5391,1568.6068 L 2700.6378,1605.8821 L 2726.6876,1646.4876 L 2710.0372,1646.4876 L 2690.5938,1617.2689 L 2671.1505,1646.4876 L 2654.5001,1646.4876"
       style="font-size:48px;font-style:normal;font-variant:normal;font-weight:normal;font-stretch:normal;text-align:start;line-height:100%;writing-mode:lr-tb;text-anchor:start;fill:#000000;fill-opacity:1;stroke:none;stroke-width:1px;stroke-linecap:butt;stroke-linejoin:miter;stroke-opacity:1;font-family:Bitstream Vera Sans"
       id="path13717" />
    <path
       d="M 2770.6579,1645.83 L 2796.7077,1605.2245 L 2774.2565,1567.9492 L 2790.9069,1567.9492 L 2806.7516,1593.623 L 2824.0465,1567.9492 L 2840.6969,1567.9492 L 2816.7956,1605.2245 L 2842.8454,1645.83 L 2826.195,1645.83 L 2806.7516,1616.6113 L 2787.3083,1645.83 L 2770.6579,1645.83"
       style="font-size:48px;font-style:normal;font-variant:normal;font-weight:normal;font-stretch:normal;text-align:start;line-height:100%;writing-mode:lr-tb;text-anchor:start;fill:#000000;fill-opacity:1;stroke:none;stroke-width:1px;stroke-linecap:butt;stroke-linejoin:miter;stroke-opacity:1;font-family:Bitstream Vera Sans"
       id="path13719" />
    <path
       d="M 2811.202,1708.713 C 2689.1643,1708.713 2689.1643,1708.713 2689.1643,1708.713 L 2689.1643,1708.713 L 2689.1643,1708.713"
       style="fill:none;fill-opacity:0.75;fill-rule:evenodd;stroke:#000000;stroke-width:15;stroke-linecap:round;stroke-linejoin:round;stroke-miterlimit:4;stroke-dasharray:none;stroke-opacity:1"
       id="path13721" />
    <path
       d="M 373.33334,266.66666 C 373.33334,310.84944 338.71002,346.66666 296,346.66666 C 253.28998,346.66666 218.66666,310.84944 218.66666,266.66666 C 218.66666,222.48388 253.28998,186.66666 296,186.66666 C 338.71002,186.66666 373.33334,222.48388 373.33334,266.66666 z "
       transform="matrix(0.928511,0,0,0.89756,1061.161,8.6507)"
       style="opacity:1;fill:none;fill-opacity:1;stroke:#581472;stroke-width:21.90810013;stroke-linecap:round;stroke-linejoin:round;stroke-miterlimit:4;stroke-dasharray:none;stroke-opacity:1"
       id="path13723" />
    <path
       d="M 373.33334,266.66666 C 373.33334,310.84944 338.71002,346.66666 296,346.66666 C 253.28998,346.66666 218.66666,310.84944 218.66666,266.66666 C 218.66666,222.48388 253.28998,186.66666 296,186.66666 C 338.71002,186.66666 373.33334,222.48388 373.33334,266.66666 z "
       transform="matrix(0.928511,0,0,0.89756,2117.161,448.6507)"
       style="opacity:1;fill:none;fill-opacity:1;stroke:#6d0202;stroke-width:21.90810013;stroke-linecap:round;stroke-linejoin:round;stroke-miterlimit:4;stroke-dasharray:none;stroke-opacity:1"
       id="path13727" />
    <path
       d="M 373.33334,266.66666 C 373.33334,310.84944 338.71002,346.66666 296,346.66666 C 253.28998,346.66666 218.66666,310.84944 218.66666,266.66666 C 218.66666,222.48388 253.28998,186.66666 296,186.66666 C 338.71002,186.66666 373.33334,222.48388 373.33334,266.66666 z "
       transform="matrix(0.928511,0,0,0.89756,1125.161,936.6507)"
       style="opacity:1;fill:none;fill-opacity:1;stroke:#27505d;stroke-width:21.90810013;stroke-linecap:round;stroke-linejoin:round;stroke-miterlimit:4;stroke-dasharray:none;stroke-opacity:1"
       id="path13731" />
    <path
       d="M 373.33334,266.66666 C 373.33334,310.84944 338.71002,346.66666 296,346.66666 C 253.28998,346.66666 218.66666,310.84944 218.66666,266.66666 C 218.66666,222.48388 253.28998,186.66666 296,186.66666 C 338.71002,186.66666 373.33334,222.48388 373.33334,266.66666 z "
       transform="matrix(0.928511,0,0,0.89756,1965.161,1464.651)"
       style="opacity:1;fill:none;fill-opacity:1;stroke:#19954e;stroke-width:21.90810013;stroke-linecap:round;stroke-linejoin:round;stroke-miterlimit:4;stroke-dasharray:none;stroke-opacity:1"
       id="path13735" />
    <path
       d="M 373.33334,266.66666 C 373.33334,310.84944 338.71002,346.66666 296,346.66666 C 253.28998,346.66666 218.66666,310.84944 218.66666,266.66666 C 218.66666,222.48388 253.28998,186.66666 296,186.66666 C 338.71002,186.66666 373.33334,222.48388 373.33334,266.66666 z "
       transform="matrix(0.928511,0,0,0.89756,1837.161,2568.651)"
       style="opacity:1;fill:none;fill-opacity:1;stroke:#ff4500;stroke-width:21.90810013;stroke-linecap:round;stroke-linejoin:round;stroke-miterlimit:4;stroke-dasharray:none;stroke-opacity:1"
       id="path13739" />
    <path
       d="M 373.33334,266.66666 C 373.33334,310.84944 338.71002,346.66666 296,346.66666 C 253.28998,346.66666 218.66666,310.84944 218.66666,266.66666 C 218.66666,222.48388 253.28998,186.66666 296,186.66666 C 338.71002,186.66666 373.33334,222.48388 373.33334,266.66666 z "
       transform="matrix(0.928511,0,0,0.89756,757.1607,2616.651)"
       style="opacity:1;fill:none;fill-opacity:1;stroke:#ff0000;stroke-width:21.90810013;stroke-linecap:round;stroke-linejoin:round;stroke-miterlimit:4;stroke-dasharray:none;stroke-opacity:1"
       id="path13743" />
    <path
       d="M 373.33334,266.66666 C 373.33334,310.84944 338.71002,346.66666 296,346.66666 C 253.28998,346.66666 218.66666,310.84944 218.66666,266.66666 C 218.66666,222.48388 253.28998,186.66666 296,186.66666 C 338.71002,186.66666 373.33334,222.48388 373.33334,266.66666 z "
       transform="matrix(0.928511,0,0,0.89756,-26.8393,1640.651)"
       style="opacity:1;fill:none;fill-opacity:1;stroke:#3d50a3;stroke-width:21.90810013;stroke-linecap:round;stroke-linejoin:round;stroke-miterlimit:4;stroke-dasharray:none;stroke-opacity:1"
       id="path13747" />
    <path
       d="M 1324.2219,275.50626 L 1362.0881,275.50626 L 1362.0881,284.63712 L 1311.1702,284.63712 L 1311.1702,275.50626 C 1315.288,271.2452 1320.8918,265.53394 1327.9817,258.37247 C 1335.1073,251.17523 1339.5832,246.5382 1341.4094,244.46133 C 1344.8827,240.55838 1347.2997,237.26412 1348.6604,234.57852 C 1350.0568,231.85722 1350.7551,229.18958 1350.7551,226.57559 C 1350.7551,222.31459 1349.2512,218.84128 1346.2434,216.15567 C 1343.2714,213.47019 1339.3863,212.12742 1334.5881,212.12735 C 1331.1864,212.12742 1327.5878,212.71824 1323.7922,213.89981 C 1320.0325,215.08152 1316.0041,216.87188 1311.7073,219.2709 L 1311.7073,208.31387 C 1316.0758,206.55939 1320.1578,205.23453 1323.9534,204.33926 C 1327.7489,203.44416 1331.2222,202.99657 1334.3733,202.99649 C 1342.6805,202.99657 1349.3049,205.07339 1354.2463,209.22696 C 1359.1877,213.38068 1361.6584,218.9308 1361.6584,225.87735 C 1361.6584,229.17168 1361.0318,232.30481 1359.7786,235.27676 C 1358.5611,238.21301 1356.3231,241.68631 1353.0647,245.69669 C 1352.1695,246.73514 1349.3228,249.74294 1344.5247,254.72012 C 1339.7264,259.66155 1332.9589,266.59026 1324.2219,275.50626"
       style="font-size:48px;font-style:normal;font-variant:normal;font-weight:normal;font-stretch:normal;text-align:start;line-height:100%;writing-mode:lr-tb;text-anchor:start;fill:#581472;fill-opacity:1;stroke:none;stroke-width:1px;stroke-linecap:butt;stroke-linejoin:miter;stroke-opacity:1;font-family:Bitstream Vera Sans"
       id="text14624" />
    <path
       d="M 1410.8958,1172.1569 C 1416.0878,1173.2669 1420.134,1175.5765 1423.0344,1179.0856 C 1425.9706,1182.5947 1427.4387,1186.9274 1427.4387,1192.0836 C 1427.4387,1199.997 1424.7173,1206.1201 1419.2747,1210.4528 C 1413.8319,1214.7854 1406.0975,1216.9518 1396.0715,1216.9518 C 1392.7056,1216.9518 1389.2323,1216.6116 1385.6516,1215.9313 C 1382.1067,1215.2867 1378.4364,1214.302 1374.6409,1212.9772 L 1374.6409,1202.5035 C 1377.6487,1204.2581 1380.9429,1205.583 1384.5237,1206.4781 C 1388.1044,1207.3733 1391.8462,1207.8209 1395.7493,1207.8209 C 1402.5526,1207.8209 1407.7268,1206.4782 1411.2717,1203.7926 C 1414.8524,1201.1071 1416.6428,1197.2041 1416.6428,1192.0836 C 1416.6428,1187.3571 1414.9777,1183.6689 1411.6477,1181.0192 C 1408.3534,1178.3337 1403.7522,1176.9909 1397.844,1176.9908 L 1388.4983,1176.9908 L 1388.4983,1168.0748 L 1398.2737,1168.0748 C 1403.6089,1168.0749 1407.691,1167.0186 1410.5198,1164.9059 C 1413.3485,1162.7575 1414.7629,1159.6781 1414.7629,1155.6676 C 1414.7629,1151.5498 1413.2948,1148.3988 1410.3586,1146.2145 C 1407.4582,1143.9945 1403.2867,1142.8845 1397.844,1142.8844 C 1394.872,1142.8845 1391.6851,1143.2067 1388.2834,1143.8512 C 1384.8817,1144.4958 1381.1399,1145.4984 1377.0579,1146.859 L 1377.0579,1137.191 C 1381.1757,1136.0453 1385.025,1135.1859 1388.6057,1134.6129 C 1392.2222,1134.0401 1395.6239,1133.7536 1398.8108,1133.7535 C 1407.0464,1133.7536 1413.5633,1135.6335 1418.3616,1139.3932 C 1423.1597,1143.1172 1425.5588,1148.166 1425.5588,1154.5397 C 1425.5588,1158.9798 1424.2876,1162.7396 1421.7454,1165.819 C 1419.203,1168.8626 1415.5865,1170.9753 1410.8958,1172.1569"
       style="font-size:48px;font-style:normal;font-variant:normal;font-weight:normal;font-stretch:normal;text-align:start;line-height:100%;writing-mode:lr-tb;text-anchor:start;fill:#27505d;fill-opacity:1;stroke:none;stroke-width:1px;stroke-linecap:butt;stroke-linejoin:miter;stroke-opacity:1;font-family:Bitstream Vera Sans"
       id="text15502" />
    <path
       d="M 2395.5723,655.2627 L 2368.1797,698.07031 L 2395.5723,698.07031 L 2395.5723,655.2627 M 2392.7256,645.80957 L 2406.3682,645.80957 L 2406.3682,698.07031 L 2417.8086,698.07031 L 2417.8086,707.09375 L 2406.3682,707.09375 L 2406.3682,726 L 2395.5723,726 L 2395.5723,707.09375 L 2359.3711,707.09375 L 2359.3711,696.62012 L 2392.7256,645.80957"
       style="font-size:48px;font-style:normal;font-variant:normal;font-weight:normal;font-stretch:normal;text-align:start;line-height:100%;writing-mode:lr-tb;text-anchor:start;fill:#6d0202;fill-opacity:1;stroke:none;stroke-width:1px;stroke-linecap:butt;stroke-linejoin:miter;stroke-opacity:1;font-family:Bitstream Vera Sans"
       id="text16380" />
    <path
       d="M 2217.8701,1661.8096 L 2260.4629,1661.8096 L 2260.4629,1670.9404 L 2227.8066,1670.9404 L 2227.8066,1690.5986 C 2229.3821,1690.0616 2230.9577,1689.6677 2232.5332,1689.417 C 2234.1087,1689.1306 2235.6842,1688.9874 2237.2598,1688.9873 C 2246.2115,1688.9874 2253.3014,1691.4402 2258.5293,1696.3457 C 2263.7571,1701.2513 2266.371,1707.8936 2266.3711,1716.2725 C 2266.371,1724.902 2263.6855,1731.6159 2258.3145,1736.4141 C 2252.9433,1741.1764 2245.3701,1743.5576 2235.5947,1743.5576 C 2232.2288,1743.5576 2228.7913,1743.2712 2225.2822,1742.6982 C 2221.8089,1742.1253 2218.2103,1741.266 2214.4863,1740.1201 L 2214.4863,1729.2168 C 2217.709,1730.9714 2221.039,1732.2783 2224.4766,1733.1377 C 2227.914,1733.9971 2231.5485,1734.4268 2235.3799,1734.4268 C 2241.5745,1734.4268 2246.4801,1732.7975 2250.0967,1729.5391 C 2253.7132,1726.2806 2255.5214,1721.8584 2255.5215,1716.2725 C 2255.5214,1710.6866 2253.7132,1706.2644 2250.0967,1703.0059 C 2246.4801,1699.7474 2241.5745,1698.1182 2235.3799,1698.1182 C 2232.4795,1698.1182 2229.5791,1698.4405 2226.6787,1699.085 C 2223.8141,1699.7295 2220.8779,1700.7321 2217.8701,1702.0928 L 2217.8701,1661.8096"
       style="font-size:48px;font-style:normal;font-variant:normal;font-weight:normal;font-stretch:normal;text-align:start;line-height:100%;writing-mode:lr-tb;text-anchor:start;fill:#19954e;fill-opacity:1;stroke:none;stroke-width:1px;stroke-linecap:butt;stroke-linejoin:miter;stroke-opacity:1;font-family:Bitstream Vera Sans"
       id="text17258" />
    <path
       d="M 2109.3086,2803.5811 C 2104.4388,2803.5811 2100.5716,2805.2461 2097.707,2808.5762 C 2094.8782,2811.9063 2093.4638,2816.4717 2093.4639,2822.2725 C 2093.4638,2828.0375 2094.8782,2832.6029 2097.707,2835.9688 C 2100.5716,2839.2988 2104.4388,2840.9639 2109.3086,2840.9639 C 2114.1783,2840.9639 2118.0276,2839.2988 2120.8564,2835.9688 C 2123.721,2832.6029 2125.1533,2828.0375 2125.1533,2822.2725 C 2125.1533,2816.4717 2123.721,2811.9063 2120.8564,2808.5762 C 2118.0276,2805.2461 2114.1783,2803.5811 2109.3086,2803.5811 M 2130.8467,2769.582 L 2130.8467,2779.4648 C 2128.1253,2778.1759 2125.3681,2777.1912 2122.5752,2776.5107 C 2119.818,2775.8305 2117.0787,2775.4903 2114.3574,2775.4902 C 2107.1959,2775.4903 2101.7174,2777.9073 2097.9219,2782.7412 C 2094.1621,2787.5753 2092.0137,2794.8799 2091.4766,2804.6553 C 2093.5892,2801.5401 2096.2389,2799.1589 2099.4258,2797.5117 C 2102.6126,2795.8288 2106.1217,2794.9874 2109.9531,2794.9873 C 2118.0097,2794.9874 2124.3655,2797.4402 2129.0205,2802.3457 C 2133.7112,2807.2155 2136.0566,2813.8578 2136.0566,2822.2725 C 2136.0566,2830.5082 2133.6217,2837.1146 2128.752,2842.0918 C 2123.8821,2847.069 2117.401,2849.5576 2109.3086,2849.5576 C 2100.0345,2849.5576 2092.9446,2846.0127 2088.0391,2838.9229 C 2083.1335,2831.7972 2080.6807,2821.4847 2080.6807,2807.9854 C 2080.6807,2795.3096 2083.6885,2785.212 2089.7041,2777.6924 C 2095.7197,2770.1371 2103.7942,2766.3595 2113.9277,2766.3594 C 2116.649,2766.3595 2119.3883,2766.628 2122.1455,2767.165 C 2124.9384,2767.7022 2127.8388,2768.5079 2130.8467,2769.582"
       style="font-size:48px;font-style:normal;font-variant:normal;font-weight:normal;font-stretch:normal;text-align:start;line-height:100%;writing-mode:lr-tb;text-anchor:start;fill:#ff4500;fill-opacity:1;stroke:none;stroke-width:1px;stroke-linecap:butt;stroke-linejoin:miter;stroke-opacity:1;font-family:Bitstream Vera Sans"
       id="text18136" />
    <path
       d="M 1004.0234,2816.8096 L 1055.5859,2816.8096 L 1055.5859,2821.4287 L 1026.4746,2897 L 1015.1416,2897 L 1042.5342,2825.9404 L 1004.0234,2825.9404 L 1004.0234,2816.8096"
       style="font-size:48px;font-style:normal;font-variant:normal;font-weight:normal;font-stretch:normal;text-align:start;line-height:100%;writing-mode:lr-tb;text-anchor:start;fill:#ff0000;fill-opacity:1;stroke:none;stroke-width:1px;stroke-linecap:butt;stroke-linejoin:miter;stroke-opacity:1;font-family:Bitstream Vera Sans"
       id="text19014" />
    <path
       d="M 247.09787,1881.4598 C 241.94159,1881.4599 237.87747,1882.8385 234.90549,1885.5956 C 231.96927,1888.3528 230.50117,1892.1483 230.50119,1896.9823 C 230.50117,1901.8163 231.96927,1905.6119 234.90549,1908.369 C 237.87747,1911.1262 241.94159,1912.5048 247.09787,1912.5048 C 252.25408,1912.5048 256.3182,1911.1262 259.29025,1908.369 C 262.26221,1905.5761 263.74821,1901.7805 263.74826,1896.9823 C 263.74821,1892.1483 262.26221,1888.3528 259.29025,1885.5956 C 256.35401,1882.8385 252.28989,1881.4599 247.09787,1881.4598 M 236.24826,1876.8407 C 231.59329,1875.6949 227.95886,1873.5286 225.34494,1870.3417 C 222.7668,1867.1549 221.47774,1863.2698 221.47775,1858.6864 C 221.47774,1852.277 223.7515,1847.2102 228.29904,1843.4862 C 232.88235,1839.7623 239.14862,1837.9004 247.09787,1837.9003 C 255.08285,1837.9004 261.34912,1839.7623 265.8967,1843.4862 C 270.44417,1847.2102 272.71793,1852.277 272.71799,1858.6864 C 272.71793,1863.2698 271.41096,1867.1549 268.79709,1870.3417 C 266.21891,1873.5286 262.62028,1875.6949 258.00119,1876.8407 C 263.229,1878.0582 267.29313,1880.4394 270.19357,1883.9843 C 273.12971,1887.5292 274.59781,1891.8619 274.59787,1896.9823 C 274.59781,1904.7525 272.21662,1910.7144 267.45432,1914.868 C 262.7277,1919.0217 255.94223,1921.0985 247.09787,1921.0985 C 238.25344,1921.0985 231.45006,1919.0217 226.68771,1914.868 C 221.96114,1910.7144 219.59786,1904.7525 219.59787,1896.9823 C 219.59786,1891.8619 221.06596,1887.5292 224.00217,1883.9843 C 226.93835,1880.4394 231.02038,1878.0582 236.24826,1876.8407 M 232.27365,1859.7069 C 232.27363,1863.8606 233.56269,1867.1012 236.14084,1869.4286 C 238.75474,1871.7561 242.40708,1872.9198 247.09787,1872.9198 C 251.75278,1872.9198 255.38721,1871.7561 258.00119,1869.4286 C 260.65088,1867.1012 261.97575,1863.8606 261.9758,1859.7069 C 261.97575,1855.5533 260.65088,1852.3128 258.00119,1849.9852 C 255.38721,1847.6578 251.75278,1846.4941 247.09787,1846.494 C 242.40708,1846.4941 238.75474,1847.6578 236.14084,1849.9852 C 233.56269,1852.3128 232.27363,1855.5533 232.27365,1859.7069"
       style="font-size:48px;font-style:normal;font-variant:normal;font-weight:normal;font-stretch:normal;text-align:start;line-height:100%;writing-mode:lr-tb;text-anchor:start;fill:#3d50a3;fill-opacity:1;stroke:none;stroke-width:1px;stroke-linecap:butt;stroke-linejoin:miter;stroke-opacity:1;font-family:Bitstream Vera Sans"
       id="text20765" />
    <path
       d="M 781.47563,1494.2905 C 958.77347,1545.3779 1105.9161,1676.7415 1180.0133,1845.3177"
       transform="matrix(-1,0,0,-1,1622.079,3537.424)"
       style="fill:none;fill-opacity:1;fill-rule:evenodd;stroke:#0d1765;stroke-width:40;stroke-linecap:butt;stroke-linejoin:miter;stroke-miterlimit:4;stroke-dasharray:none;stroke-opacity:1"
       id="path20770" />
    <path
       d="M 400.03774,1624.0729 L 453.56159,1655.6987 L 523.14379,1695.037 L 468.99305,1725.5771 L 400.13402,1766.1679 L 400.76088,1704.002 L 400.03774,1624.0729 z "
       style="fill:#0d1765;fill-opacity:1;stroke:none;stroke-width:14.64041901;stroke-linecap:round;stroke-linejoin:miter;stroke-miterlimit:4;stroke-opacity:1"
       id="path21645" />
    <path
       d="M 1704.3719,2270.2658 C 1327.7019,2270.2658 1327.7019,2270.2658 1327.7019,2270.2658 L 1327.7019,2270.2658 L 1327.7019,2270.2658"
       style="fill:none;fill-opacity:0.75;fill-rule:evenodd;stroke:#000000;stroke-width:32.82134247;stroke-linecap:butt;stroke-linejoin:miter;stroke-miterlimit:4;stroke-dasharray:none;stroke-opacity:1"
       id="path24267" />
    <path
       d="M 1704.372,2513.5105 C 1327.702,2513.5105 1327.702,2513.5105 1327.702,2513.5105 L 1327.702,2513.5105 L 1327.702,2513.5105"
       style="fill:none;fill-opacity:0.75;fill-rule:evenodd;stroke:#000000;stroke-width:32.82134247;stroke-linecap:butt;stroke-linejoin:miter;stroke-miterlimit:4;stroke-dasharray:none;stroke-opacity:1"
       id="path25142" />
    <path
       d="M 1294.1353,2273.5535 L 1347.4453,2241.5684 L 1415.188,2199.1408 L 1416.2329,2261.3012 L 1419.1049,2341.1819 L 1364.7501,2311.0066 L 1294.1353,2273.5535 z "
       style="fill:#000000;fill-opacity:1;stroke:none;stroke-width:14.64041901;stroke-linecap:round;stroke-linejoin:miter;stroke-miterlimit:4;stroke-opacity:1"
       id="path25144" />
    <path
       d="M 1295.5152,2511.3921 L 1348.8252,2479.407 L 1416.5679,2436.9794 L 1417.6128,2499.1398 L 1420.4848,2579.0205 L 1366.13,2548.8452 L 1295.5152,2511.3921 z "
       style="fill:#000000;fill-opacity:1;stroke:none;stroke-width:14.64041901;stroke-linecap:round;stroke-linejoin:miter;stroke-miterlimit:4;stroke-opacity:1"
       id="path25146" />
    <path
       d="M 781.47563,1494.2905 C 958.77347,1545.3779 1105.9161,1676.7415 1180.0133,1845.3177"
       transform="matrix(0.163085,0.566773,-0.566773,0.163085,2936.516,1115.611)"
       style="fill:none;fill-opacity:1;fill-rule:evenodd;stroke:#000000;stroke-width:50.86727142;stroke-linecap:butt;stroke-linejoin:miter;stroke-miterlimit:4;stroke-dasharray:none;stroke-opacity:1"
       id="path29513" />
    <path
       d="M 2042.8552,2132.1968 L 2056.1822,2071.4729 L 2071.8205,1993.0852 L 2117.7454,2034.9887 L 2177.812,2087.7257 L 2118.5601,2106.546 L 2042.8552,2132.1968 z "
       style="fill:#000000;fill-opacity:1;stroke:none;stroke-width:14.64041901;stroke-linecap:round;stroke-linejoin:miter;stroke-miterlimit:4;stroke-opacity:1"
       id="path30388" />
    <path
       d="M 781.47563,1494.2905 C 958.77347,1545.3779 1105.9161,1676.7415 1180.0133,1845.3177"
       transform="matrix(0.361888,1.223317,-1.223317,0.361888,4316.545,373.9554)"
       style="fill:none;fill-opacity:1;fill-rule:evenodd;stroke:#000000;stroke-width:23.51609039;stroke-linecap:butt;stroke-linejoin:miter;stroke-miterlimit:4;stroke-dasharray:none;stroke-opacity:1"
       id="path33009" />
    <path
       d="M 2421.8799,2557.8745 L 2435.2069,2497.1506 L 2450.8452,2418.7629 L 2496.7701,2460.6664 L 2556.8367,2513.4034 L 2497.5848,2532.2237 L 2421.8799,2557.8745 z "
       style="fill:#000000;fill-opacity:1;stroke:none;stroke-width:14.64041901;stroke-linecap:round;stroke-linejoin:miter;stroke-miterlimit:4;stroke-opacity:1"
       id="path33884" />
    <path
       d="M 781.47563,1494.2905 C 958.77347,1545.3779 1105.9161,1676.7415 1180.0133,1845.3177"
       transform="matrix(1.084594,-0.508348,0.508348,1.084594,2.675216,-759.7811)"
       style="fill:none;fill-opacity:1;fill-rule:evenodd;stroke:#000000;stroke-width:25.04559517;stroke-linecap:butt;stroke-linejoin:miter;stroke-miterlimit:4;stroke-dasharray:none;stroke-opacity:1"
       id="path34759" />
    <path
       d="M 2141.9976,664.58208 L 2176.3021,612.7343 L 2219.1253,545.24082 L 2246.8744,600.87341 L 2283.9139,671.70604 L 2221.8602,667.92115 L 2141.9976,664.58208 z "
       style="fill:#000000;fill-opacity:1;stroke:none;stroke-width:14.64041901;stroke-linecap:round;stroke-linejoin:miter;stroke-miterlimit:4;stroke-opacity:1"
       id="path34761" />
    <path
       d="M 781.47563,1494.2905 C 958.77347,1545.3779 1105.9161,1676.7415 1180.0133,1845.3177"
       transform="matrix(0.452865,-1.104577,1.104577,0.452865,-1530.574,977.8173)"
       style="fill:none;fill-opacity:1;fill-rule:evenodd;stroke:#006b00;stroke-width:25.129673;stroke-linecap:butt;stroke-linejoin:miter;stroke-miterlimit:4;stroke-dasharray:none;stroke-opacity:1"
       id="path35636" />
    <path
       d="M 978.12529,585.62393 L 978.0499,523.45493 L 976.42418,443.53901 L 1030.3017,474.55837 L 1100.3238,513.10831 L 1046.5216,544.25793 L 978.12529,585.62393 z "
       style="fill:#006b00;fill-opacity:1;stroke:none;stroke-width:14.64041901;stroke-linecap:round;stroke-linejoin:miter;stroke-miterlimit:4;stroke-opacity:1"
       id="path36511" />
    <path
       d="M 647.4057,744.02545 L 637.64008,744.02545 L 637.54242,714.63092 C 630.70643,714.50071 623.8705,713.71946 617.03461,712.28717 C 610.19864,710.78978 603.33016,708.57624 596.42914,705.64655 L 596.42914,688.06842 C 603.06974,692.23511 609.77546,695.39266 616.54633,697.54108 C 623.38222,699.62442 630.41346,700.69864 637.64008,700.76373 L 637.64008,656.23248 C 623.25201,653.88879 612.77025,649.91744 606.19476,644.31842 C 599.68433,638.71954 596.42912,631.03725 596.42914,621.27155 C 596.42912,610.65967 599.9773,602.29379 607.07367,596.17389 C 614.16999,590.05422 624.35878,586.5386 637.64008,585.62701 L 637.64008,562.6778 L 647.4057,562.6778 L 647.4057,585.33405 C 653.46031,585.59459 659.31968,586.24563 664.98383,587.28717 C 670.6478,588.26386 676.18165,589.63105 681.58539,591.38873 L 681.58539,608.47858 C 676.18165,605.74431 670.61525,603.62843 664.88617,602.13092 C 659.22203,600.63364 653.39521,599.75473 647.4057,599.4942 L 647.4057,641.19342 C 662.18426,643.47214 673.05665,647.54114 680.02289,653.40045 C 686.98893,659.25988 690.472,667.26769 690.47211,677.42389 C 690.472,688.42652 686.76106,697.11792 679.33929,703.49811 C 671.98243,709.81322 661.33791,713.45905 647.4057,714.43561 L 647.4057,744.02545 M 637.64008,639.43561 L 637.64008,599.39655 C 630.08794,600.24301 624.32623,602.39145 620.35492,605.84186 C 616.38353,609.29248 614.39785,613.88232 614.39789,619.61139 C 614.39785,625.21044 616.22077,629.57241 619.86664,632.69733 C 623.57753,635.82241 629.50201,638.0685 637.64008,639.43561 M 647.4057,658.18561 L 647.4057,700.47076 C 655.67385,699.36401 661.8913,697.02026 666.05804,693.43951 C 670.28972,689.85881 672.40561,685.13876 672.4057,679.27936 C 672.40561,673.55023 670.38738,668.99295 666.35101,665.60748 C 662.37958,662.22212 656.06448,659.74816 647.4057,658.18561"
       style="font-size:110px;font-style:normal;font-variant:normal;font-weight:normal;font-stretch:normal;text-align:start;line-height:100%;writing-mode:lr-tb;text-anchor:start;fill:#000000;fill-opacity:1;stroke:none;stroke-width:1px;stroke-linecap:butt;stroke-linejoin:miter;stroke-opacity:1;font-family:Bitstream Vera Sans"
       id="text38259" />
    <path
       d="M 792.66321,597.41766 L 792.66321,615.09833 C 787.62731,609.28788 782.75752,605.1375 778.05383,602.64716 C 773.40532,600.15703 768.25884,598.91192 762.61438,598.9118 C 753.92617,598.91192 746.78751,601.67884 741.19836,607.21259 C 735.60913,612.74654 731.92912,620.68761 730.15833,631.03583 L 778.05383,631.03583 L 773.4884,641.24579 L 728.8302,641.24579 C 728.71949,642.57398 728.63648,643.87444 728.58118,645.14716 C 728.58114,646.42001 728.58114,648.02482 728.58118,649.96161 C 728.58114,651.7325 728.58114,653.25431 728.58118,654.52704 C 728.63648,655.79988 728.71949,657.10034 728.8302,658.42841 L 765.85168,658.42841 L 761.20325,668.63837 L 730.15833,668.63837 C 731.92912,678.98671 735.60913,686.95545 741.19836,692.54462 C 746.78751,698.13382 753.92617,700.92842 762.61438,700.92841 C 768.25884,700.92842 773.40532,699.6833 778.05383,697.19305 C 782.75752,694.70284 787.62731,690.55245 792.66321,684.74188 L 792.66321,702.25653 C 787.73799,706.24091 782.70218,709.22919 777.55579,711.22137 C 772.46456,713.21356 767.26275,714.20965 761.95032,714.20966 C 748.83503,714.20965 737.98869,710.19761 729.41125,702.17352 C 720.88909,694.14945 715.52126,682.97108 713.30774,668.63837 L 695.79309,668.63837 L 700.35852,658.42841 L 711.89661,658.42841 C 711.89659,657.15567 711.86892,655.88289 711.8136,654.61005 C 711.81358,653.28198 711.81358,651.7325 711.8136,649.96161 C 711.81358,648.02482 711.81358,646.42001 711.8136,645.14716 C 711.86892,643.8191 711.89659,642.51864 711.89661,641.24579 L 695.79309,641.24579 L 700.35852,631.03583 L 713.30774,631.03583 C 715.52126,616.81392 720.91676,605.69088 729.49426,597.66669 C 738.07169,589.64272 748.89037,585.63068 761.95032,585.63055 C 767.37342,585.63068 772.63058,586.62677 777.7218,588.61884 C 782.8682,590.55581 787.84866,593.48875 792.66321,597.41766"
       style="font-size:48px;font-style:normal;font-variant:normal;font-weight:normal;font-stretch:normal;text-align:start;line-height:100%;writing-mode:lr-tb;text-anchor:start;fill:#000000;fill-opacity:1;stroke:none;stroke-width:1px;stroke-linecap:butt;stroke-linejoin:miter;stroke-opacity:1;font-family:Bitstream Vera Sans"
       id="text38264" />
    <path
       d="M 897.57635,590.61102 L 897.57635,605.71844 C 893.37054,603.44967 889.38617,601.76185 885.62323,600.65497 C 881.86013,599.49297 878.2908,598.91192 874.91522,598.9118 C 866.72506,598.91192 861.02519,601.07012 857.81561,605.38641 C 854.60593,609.64758 853.00111,617.64399 853.00116,629.37567 L 853.00116,647.22235 L 885.45721,647.22235 L 885.45721,659.09247 L 853.00116,659.09247 L 853.00116,697.6911 L 899.23651,697.6911 L 899.23651,711.80243 L 816.80975,711.80243 L 816.80975,697.6911 C 816.80975,697.6911 829.50214,696.34076 834.3996,686.6911 C 839.29706,677.04144 836.3996,659.09247 836.3996,659.09247 L 819.88104,659.09247 L 819.88104,647.22235 L 836.3996,647.22235 L 836.3996,627.46649 C 836.39957,613.02323 839.36018,602.45358 845.28143,595.75751 C 851.20261,589.00633 860.58249,585.63068 873.42108,585.63055 C 876.79666,585.63068 880.55968,586.07339 884.71014,586.95868 C 888.91579,587.78888 893.20452,589.00633 897.57635,590.61102"
       style="font-size:48px;font-style:normal;font-variant:normal;font-weight:normal;font-stretch:normal;text-align:start;line-height:100%;writing-mode:lr-tb;text-anchor:start;fill:#000000;fill-opacity:1;stroke:none;stroke-width:1px;stroke-linecap:butt;stroke-linejoin:miter;stroke-opacity:1;font-family:Bitstream Vera Sans"
       id="text38269" />
  </g>
</svg>
