<?xml version="1.0" encoding="UTF-8" standalone="no"?>
<svg
   xmlns:dc="http://purl.org/dc/elements/1.1/"
   xmlns:cc="http://creativecommons.org/ns#"
   xmlns:rdf="http://www.w3.org/1999/02/22-rdf-syntax-ns#"
   xmlns:svg="http://www.w3.org/2000/svg"
   xmlns="http://www.w3.org/2000/svg"
   viewBox="0 0 618.75 166.25"
   height="166.25"
   width="618.75"
   xml:space="preserve"
   version="1.1"
   id="svg2"><metadata
     id="metadata8"><rdf:RDF><cc:Work
         rdf:about=""><dc:format>image/svg+xml</dc:format><dc:type
           rdf:resource="http://purl.org/dc/dcmitype/StillImage" /></cc:Work></rdf:RDF></metadata><defs
     id="defs6"><clipPath
       id="clipPath24"
       clipPathUnits="userSpaceOnUse"><path
         style="clip-rule:evenodd"
         id="path26"
         d="M 0,1330 0,0 l 4950,0 0,1330 -4950,0 z m 1527.2,-979 45,0 0,112.801 -22.2,-72 -22.8,72 0,-112.801 z" /></clipPath><clipPath
       id="clipPath38"
       clipPathUnits="userSpaceOnUse"><path
         style="clip-rule:evenodd"
         id="path40"
         d="M 0,1330 0,0 l 4950,0 0,1330 -4950,0 z m 3192.2,-979 45,0 0,112.801 -22.2,-72 -22.8,72 0,-112.801 z" /></clipPath><clipPath
       id="clipPath52"
       clipPathUnits="userSpaceOnUse"><path
         style="clip-rule:evenodd"
         id="path54"
         d="M 0,1330 0,0 l 4950,0 0,1330 -4950,0 z m 2697.2,-979 45,0 0,112.801 -22.2,-72 -22.8,72 0,-112.801 z" /></clipPath><clipPath
       id="clipPath66"
       clipPathUnits="userSpaceOnUse"><path
         style="clip-rule:evenodd"
         id="path68"
         d="M 0,1330 0,0 l 4950,0 0,1330 -4950,0 z m 2157.2,-979 45,0 0,112.801 -22.2,-72 -22.8,72 0,-112.801 z" /></clipPath></defs><g
     transform="matrix(1.25,0,0,-1.25,0,166.25)"
     id="g10"><g
       transform="scale(0.1,0.1)"
       id="g12"><g
         transform="scale(10,10)"
         id="g14"><text
           id="text16"
           style="font-variant:normal;font-weight:bold;font-size:32.40000153px;font-family:Helvetica;-inkscape-font-specification:Helvetica-Bold;writing-mode:lr-tb;fill:#ff0000;fill-opacity:1;fill-rule:nonzero;stroke:none"
           transform="matrix(1,0,0,-1,128,0)"><tspan
             id="tspan18"
             y="0"
             x="0 18.0144 36.028801 54.043201 63.0504 81.064796 99.079201 117.0936 126.1008 144.1152 162.12959 180.144 189.1512 207.1656">162.105.129.27</tspan></text>
</g><g
         id="g20"><g
           clip-path="url(#clipPath24)"
           id="g22"><path
             id="path28"
             style="fill:none;stroke:#000000;stroke-width:18;stroke-linecap:butt;stroke-linejoin:miter;stroke-miterlimit:10;stroke-dasharray:none;stroke-opacity:1"
             d="m 560,855 0,-270 990,0 0,-225" /></g></g><path
         id="path30"
         style="fill:#000000;fill-opacity:1;fill-rule:evenodd;stroke:none"
         d="m 1527.2,463.801 22.8,-72 22.2,72 -45,0" /><path
         id="path32"
         style="fill:none;stroke:#000000;stroke-width:18;stroke-linecap:butt;stroke-linejoin:miter;stroke-miterlimit:10;stroke-dasharray:none;stroke-opacity:1"
         d="m 1527.2,463.801 22.8,-72 22.2,72 -45,0 z" /><g
         id="g34"><g
           clip-path="url(#clipPath38)"
           id="g36"><path
             id="path42"
             style="fill:none;stroke:#000000;stroke-width:18;stroke-linecap:butt;stroke-linejoin:miter;stroke-miterlimit:10;stroke-dasharray:none;stroke-opacity:1"
             d="m 4160,855 0,-225 -945,0 0,-270" /></g></g><path
         id="path44"
         style="fill:#000000;fill-opacity:1;fill-rule:evenodd;stroke:none"
         d="m 3192.2,463.801 22.8,-72 22.2,72 -45,0" /><path
         id="path46"
         style="fill:none;stroke:#000000;stroke-width:18;stroke-linecap:butt;stroke-linejoin:miter;stroke-miterlimit:10;stroke-dasharray:none;stroke-opacity:1"
         d="m 3192.2,463.801 22.8,-72 22.2,72 -45,0 z" /><g
         id="g48"><g
           clip-path="url(#clipPath52)"
           id="g50"><path
             id="path56"
             style="fill:none;stroke:#000000;stroke-width:18;stroke-linecap:butt;stroke-linejoin:miter;stroke-miterlimit:10;stroke-dasharray:none;stroke-opacity:1"
             d="m 2990,855 0,-225 -270,0 0,-270" /></g></g><path
         id="path58"
         style="fill:#000000;fill-opacity:1;fill-rule:evenodd;stroke:none"
         d="m 2697.2,463.801 22.8,-72 22.2,72 -45,0" /><path
         id="path60"
         style="fill:none;stroke:#000000;stroke-width:18;stroke-linecap:butt;stroke-linejoin:miter;stroke-miterlimit:10;stroke-dasharray:none;stroke-opacity:1"
         d="m 2697.2,463.801 22.8,-72 22.2,72 -45,0 z" /><g
         id="g62"><g
           clip-path="url(#clipPath66)"
           id="g64"><path
             id="path70"
             style="fill:none;stroke:#000000;stroke-width:18;stroke-linecap:butt;stroke-linejoin:miter;stroke-miterlimit:10;stroke-dasharray:none;stroke-opacity:1"
             d="m 1820,855 0,-270 360,0 0,-225" /></g></g><path
         id="path72"
         style="fill:#000000;fill-opacity:1;fill-rule:evenodd;stroke:none"
         d="m 2157.2,463.801 22.8,-72 22.2,72 -45,0" /><path
         id="path74"
         style="fill:none;stroke:#000000;stroke-width:18;stroke-linecap:butt;stroke-linejoin:miter;stroke-miterlimit:10;stroke-dasharray:none;stroke-opacity:1"
         d="m 2157.2,463.801 22.8,-72 22.2,72 -45,0 z" /><g
         transform="scale(10,10)"
         id="g76"><text
           id="text78"
           style="font-variant:normal;font-weight:bold;font-size:27px;font-family:'Times New Roman';-inkscape-font-specification:Times-Bold;writing-mode:lr-tb;fill:#000000;fill-opacity:1;fill-rule:nonzero;stroke:none"
           transform="matrix(1,0,0,-1,6.5,94.5)"><tspan
             id="tspan80"
             y="0"
             x="0 13.5 27 40.5 54 67.5 81 94.5 126.00001 139.50002 153.00002 166.50002 180.00002 193.50002 207.00002 220.50002 247.50002 261 274.5 288 301.5 315 328.5 342 369 382.5 396 409.5 423 436.5 450 463.5">10100010011010011000000100011011</tspan></text>
</g><path
         id="path82"
         style="fill:none;stroke:#000000;stroke-width:18;stroke-linecap:butt;stroke-linejoin:miter;stroke-miterlimit:10;stroke-dasharray:none;stroke-opacity:1"
         d="m 20,765 4905,0 0,540 -4905,0 0,-540 z" /></g></g></svg>