<?xml version="1.0" encoding="UTF-8" standalone="no"?>
<svg
   xmlns:dc="http://purl.org/dc/elements/1.1/"
   xmlns:cc="http://creativecommons.org/ns#"
   xmlns:rdf="http://www.w3.org/1999/02/22-rdf-syntax-ns#"
   xmlns:svg="http://www.w3.org/2000/svg"
   xmlns="http://www.w3.org/2000/svg"
   viewBox="0 0 448.28751 206.8625"
   height="206.8625"
   width="448.28751"
   xml:space="preserve"
   version="1.1"
   id="svg2"><metadata
     id="metadata8"><rdf:RDF><cc:Work
         rdf:about=""><dc:format>image/svg+xml</dc:format><dc:type
           rdf:resource="http://purl.org/dc/dcmitype/StillImage" /></cc:Work></rdf:RDF></metadata><defs
     id="defs6" /><g
     transform="matrix(1.25,0,0,-1.25,0,206.8625)"
     id="g10"><g
       transform="scale(0.1,0.1)"
       id="g12"><path
         id="path14"
         style="fill:none;stroke:#000000;stroke-width:5;stroke-linecap:butt;stroke-linejoin:miter;stroke-miterlimit:4;stroke-dasharray:none;stroke-opacity:1"
         d="m 226.207,962.5 2723.79,0 0,180 -2723.79,0 0,-180 z" /><path
         id="path16"
         style="fill:none;stroke:#000000;stroke-width:5;stroke-linecap:butt;stroke-linejoin:miter;stroke-miterlimit:4;stroke-dasharray:none;stroke-opacity:1"
         d="m 308.738,1142.5 0,-180" /><path
         id="path18"
         style="fill:none;stroke:#000000;stroke-width:5;stroke-linecap:butt;stroke-linejoin:miter;stroke-miterlimit:4;stroke-dasharray:none;stroke-opacity:1"
         d="m 226.207,1452.5 0,-90 2723.793,0 0,90" /><path
         id="path20"
         style="fill:#ffffff;fill-opacity:1;fill-rule:nonzero;stroke:none"
         d="m 905.867,1452.5 0,-90" /><path
         id="path22"
         style="fill:none;stroke:#000000;stroke-width:5;stroke-linecap:butt;stroke-linejoin:miter;stroke-miterlimit:4;stroke-dasharray:none;stroke-opacity:1"
         d="m 905.867,1452.5 0,-90" /><path
         id="path24"
         style="fill:#ffffff;fill-opacity:1;fill-rule:nonzero;stroke:none"
         d="m 2269.05,1452.5 0,-90" /><path
         id="path26"
         style="fill:none;stroke:#000000;stroke-width:5;stroke-linecap:butt;stroke-linejoin:miter;stroke-miterlimit:4;stroke-dasharray:none;stroke-opacity:1"
         d="m 2269.05,1452.5 0,-90" /><path
         id="path28"
         style="fill:none;stroke:#000000;stroke-width:5;stroke-linecap:butt;stroke-linejoin:miter;stroke-miterlimit:4;stroke-dasharray:none;stroke-opacity:1"
         d="m 1588.1,1452.5 0,-90" /><path
         id="path30"
         style="fill:none;stroke:#000000;stroke-width:5;stroke-linecap:butt;stroke-linejoin:miter;stroke-miterlimit:4;stroke-dasharray:none;stroke-opacity:1"
         d="m 1588.1,902.5 0,-180" /><path
         id="path32"
         style="fill:#ffffff;fill-opacity:1;fill-rule:nonzero;stroke:none"
         d="m 311.488,1407.5 0,-45" /><path
         id="path34"
         style="fill:none;stroke:#000000;stroke-width:5;stroke-linecap:butt;stroke-linejoin:miter;stroke-miterlimit:4;stroke-dasharray:none;stroke-opacity:1"
         d="m 311.488,1407.5 0,-45" /><path
         id="path36"
         style="fill:#ffffff;fill-opacity:1;fill-rule:nonzero;stroke:none"
         d="m 396.602,1407.5 0,-45" /><path
         id="path38"
         style="fill:none;stroke:#000000;stroke-width:5;stroke-linecap:butt;stroke-linejoin:miter;stroke-miterlimit:4;stroke-dasharray:none;stroke-opacity:1"
         d="m 396.602,1407.5 0,-45" /><path
         id="path40"
         style="fill:#ffffff;fill-opacity:1;fill-rule:nonzero;stroke:none"
         d="m 481.715,1407.5 0,-45" /><path
         id="path42"
         style="fill:none;stroke:#000000;stroke-width:5;stroke-linecap:butt;stroke-linejoin:miter;stroke-miterlimit:4;stroke-dasharray:none;stroke-opacity:1"
         d="m 481.715,1407.5 0,-45" /><path
         id="path44"
         style="fill:#ffffff;fill-opacity:1;fill-rule:nonzero;stroke:none"
         d="m 566.824,1407.5 0,-45" /><path
         id="path46"
         style="fill:none;stroke:#000000;stroke-width:5;stroke-linecap:butt;stroke-linejoin:miter;stroke-miterlimit:4;stroke-dasharray:none;stroke-opacity:1"
         d="m 566.824,1407.5 0,-45" /><path
         id="path48"
         style="fill:#ffffff;fill-opacity:1;fill-rule:nonzero;stroke:none"
         d="m 651.941,1407.5 0,-45" /><path
         id="path50"
         style="fill:none;stroke:#000000;stroke-width:5;stroke-linecap:butt;stroke-linejoin:miter;stroke-miterlimit:4;stroke-dasharray:none;stroke-opacity:1"
         d="m 651.941,1407.5 0,-45" /><path
         id="path52"
         style="fill:#ffffff;fill-opacity:1;fill-rule:nonzero;stroke:none"
         d="m 737.055,1407.5 0,-45" /><path
         id="path54"
         style="fill:none;stroke:#000000;stroke-width:5;stroke-linecap:butt;stroke-linejoin:miter;stroke-miterlimit:4;stroke-dasharray:none;stroke-opacity:1"
         d="m 737.055,1407.5 0,-45" /><path
         id="path56"
         style="fill:#ffffff;fill-opacity:1;fill-rule:nonzero;stroke:none"
         d="m 822.168,1407.5 0,-45" /><path
         id="path58"
         style="fill:none;stroke:#000000;stroke-width:5;stroke-linecap:butt;stroke-linejoin:miter;stroke-miterlimit:4;stroke-dasharray:none;stroke-opacity:1"
         d="m 822.168,1407.5 0,-45" /><path
         id="path60"
         style="fill:#ffffff;fill-opacity:1;fill-rule:nonzero;stroke:none"
         d="m 992.395,1407.5 0,-45" /><path
         id="path62"
         style="fill:none;stroke:#000000;stroke-width:5;stroke-linecap:butt;stroke-linejoin:miter;stroke-miterlimit:4;stroke-dasharray:none;stroke-opacity:1"
         d="m 992.395,1407.5 0,-45" /><path
         id="path64"
         style="fill:#ffffff;fill-opacity:1;fill-rule:nonzero;stroke:none"
         d="m 1077.5,1407.5 0,-45" /><path
         id="path66"
         style="fill:none;stroke:#000000;stroke-width:5;stroke-linecap:butt;stroke-linejoin:miter;stroke-miterlimit:4;stroke-dasharray:none;stroke-opacity:1"
         d="m 1077.5,1407.5 0,-45" /><path
         id="path68"
         style="fill:#ffffff;fill-opacity:1;fill-rule:nonzero;stroke:none"
         d="m 1162.62,1407.5 0,-45" /><path
         id="path70"
         style="fill:none;stroke:#000000;stroke-width:5;stroke-linecap:butt;stroke-linejoin:miter;stroke-miterlimit:4;stroke-dasharray:none;stroke-opacity:1"
         d="m 1162.62,1407.5 0,-45" /><path
         id="path72"
         style="fill:#ffffff;fill-opacity:1;fill-rule:nonzero;stroke:none"
         d="m 1247.73,1407.5 0,-45" /><path
         id="path74"
         style="fill:none;stroke:#000000;stroke-width:5;stroke-linecap:butt;stroke-linejoin:miter;stroke-miterlimit:4;stroke-dasharray:none;stroke-opacity:1"
         d="m 1247.73,1407.5 0,-45" /><path
         id="path76"
         style="fill:#ffffff;fill-opacity:1;fill-rule:nonzero;stroke:none"
         d="m 1332.85,1407.5 0,-45" /><path
         id="path78"
         style="fill:none;stroke:#000000;stroke-width:5;stroke-linecap:butt;stroke-linejoin:miter;stroke-miterlimit:4;stroke-dasharray:none;stroke-opacity:1"
         d="m 1332.85,1407.5 0,-45" /><path
         id="path80"
         style="fill:#ffffff;fill-opacity:1;fill-rule:nonzero;stroke:none"
         d="m 1417.96,1407.5 0,-45" /><path
         id="path82"
         style="fill:none;stroke:#000000;stroke-width:5;stroke-linecap:butt;stroke-linejoin:miter;stroke-miterlimit:4;stroke-dasharray:none;stroke-opacity:1"
         d="m 1417.96,1407.5 0,-45" /><path
         id="path84"
         style="fill:#ffffff;fill-opacity:1;fill-rule:nonzero;stroke:none"
         d="m 1503.07,1407.5 0,-45" /><path
         id="path86"
         style="fill:none;stroke:#000000;stroke-width:5;stroke-linecap:butt;stroke-linejoin:miter;stroke-miterlimit:4;stroke-dasharray:none;stroke-opacity:1"
         d="m 1503.07,1407.5 0,-45" /><path
         id="path88"
         style="fill:#ffffff;fill-opacity:1;fill-rule:nonzero;stroke:none"
         d="m 1673.3,1407.5 0,-45" /><path
         id="path90"
         style="fill:none;stroke:#000000;stroke-width:5;stroke-linecap:butt;stroke-linejoin:miter;stroke-miterlimit:4;stroke-dasharray:none;stroke-opacity:1"
         d="m 1673.3,1407.5 0,-45" /><path
         id="path92"
         style="fill:#ffffff;fill-opacity:1;fill-rule:nonzero;stroke:none"
         d="m 1758.41,1407.5 0,-45" /><path
         id="path94"
         style="fill:none;stroke:#000000;stroke-width:5;stroke-linecap:butt;stroke-linejoin:miter;stroke-miterlimit:4;stroke-dasharray:none;stroke-opacity:1"
         d="m 1758.41,1407.5 0,-45" /><path
         id="path96"
         style="fill:#ffffff;fill-opacity:1;fill-rule:nonzero;stroke:none"
         d="m 1843.52,1407.5 0,-45" /><path
         id="path98"
         style="fill:none;stroke:#000000;stroke-width:5;stroke-linecap:butt;stroke-linejoin:miter;stroke-miterlimit:4;stroke-dasharray:none;stroke-opacity:1"
         d="m 1843.52,1407.5 0,-45" /><path
         id="path100"
         style="fill:#ffffff;fill-opacity:1;fill-rule:nonzero;stroke:none"
         d="m 1928.64,1407.5 0,-45" /><path
         id="path102"
         style="fill:none;stroke:#000000;stroke-width:5;stroke-linecap:butt;stroke-linejoin:miter;stroke-miterlimit:4;stroke-dasharray:none;stroke-opacity:1"
         d="m 1928.64,1407.5 0,-45" /><path
         id="path104"
         style="fill:#ffffff;fill-opacity:1;fill-rule:nonzero;stroke:none"
         d="m 2013.75,1407.5 0,-45" /><path
         id="path106"
         style="fill:none;stroke:#000000;stroke-width:5;stroke-linecap:butt;stroke-linejoin:miter;stroke-miterlimit:4;stroke-dasharray:none;stroke-opacity:1"
         d="m 2013.75,1407.5 0,-45" /><path
         id="path108"
         style="fill:#ffffff;fill-opacity:1;fill-rule:nonzero;stroke:none"
         d="m 2098.86,1407.5 0,-45" /><path
         id="path110"
         style="fill:none;stroke:#000000;stroke-width:5;stroke-linecap:butt;stroke-linejoin:miter;stroke-miterlimit:4;stroke-dasharray:none;stroke-opacity:1"
         d="m 2098.86,1407.5 0,-45" /><path
         id="path112"
         style="fill:#ffffff;fill-opacity:1;fill-rule:nonzero;stroke:none"
         d="m 2183.98,1407.5 0,-45" /><path
         id="path114"
         style="fill:none;stroke:#000000;stroke-width:5;stroke-linecap:butt;stroke-linejoin:miter;stroke-miterlimit:4;stroke-dasharray:none;stroke-opacity:1"
         d="m 2183.98,1407.5 0,-45" /><path
         id="path116"
         style="fill:#ffffff;fill-opacity:1;fill-rule:nonzero;stroke:none"
         d="m 2354.2,1407.5 0,-45" /><path
         id="path118"
         style="fill:none;stroke:#000000;stroke-width:5;stroke-linecap:butt;stroke-linejoin:miter;stroke-miterlimit:4;stroke-dasharray:none;stroke-opacity:1"
         d="m 2354.2,1407.5 0,-45" /><path
         id="path120"
         style="fill:#ffffff;fill-opacity:1;fill-rule:nonzero;stroke:none"
         d="m 2439.32,1407.5 0,-45" /><path
         id="path122"
         style="fill:none;stroke:#000000;stroke-width:5;stroke-linecap:butt;stroke-linejoin:miter;stroke-miterlimit:4;stroke-dasharray:none;stroke-opacity:1"
         d="m 2439.32,1407.5 0,-45" /><path
         id="path124"
         style="fill:#ffffff;fill-opacity:1;fill-rule:nonzero;stroke:none"
         d="m 2524.43,1407.5 0,-45" /><path
         id="path126"
         style="fill:none;stroke:#000000;stroke-width:5;stroke-linecap:butt;stroke-linejoin:miter;stroke-miterlimit:4;stroke-dasharray:none;stroke-opacity:1"
         d="m 2524.43,1407.5 0,-45" /><path
         id="path128"
         style="fill:#ffffff;fill-opacity:1;fill-rule:nonzero;stroke:none"
         d="m 2609.54,1407.5 0,-45" /><path
         id="path130"
         style="fill:none;stroke:#000000;stroke-width:5;stroke-linecap:butt;stroke-linejoin:miter;stroke-miterlimit:4;stroke-dasharray:none;stroke-opacity:1"
         d="m 2609.54,1407.5 0,-45" /><path
         id="path132"
         style="fill:#ffffff;fill-opacity:1;fill-rule:nonzero;stroke:none"
         d="m 2694.66,1407.5 0,-45" /><path
         id="path134"
         style="fill:none;stroke:#000000;stroke-width:5;stroke-linecap:butt;stroke-linejoin:miter;stroke-miterlimit:4;stroke-dasharray:none;stroke-opacity:1"
         d="m 2694.66,1407.5 0,-45" /><path
         id="path136"
         style="fill:#ffffff;fill-opacity:1;fill-rule:nonzero;stroke:none"
         d="m 2779.77,1407.5 0,-45" /><path
         id="path138"
         style="fill:none;stroke:#000000;stroke-width:5;stroke-linecap:butt;stroke-linejoin:miter;stroke-miterlimit:4;stroke-dasharray:none;stroke-opacity:1"
         d="m 2779.77,1407.5 0,-45" /><path
         id="path140"
         style="fill:#ffffff;fill-opacity:1;fill-rule:nonzero;stroke:none"
         d="m 2864.88,1407.5 0,-45" /><path
         id="path142"
         style="fill:none;stroke:#000000;stroke-width:5;stroke-linecap:butt;stroke-linejoin:miter;stroke-miterlimit:4;stroke-dasharray:none;stroke-opacity:1"
         d="m 2864.88,1407.5 0,-45" /><g
         transform="scale(10,10)"
         id="g144"><text
           id="text146"
           style="font-variant:normal;font-weight:normal;font-size:8px;font-family:Helvetica;-inkscape-font-specification:Helvetica;writing-mode:lr-tb;fill:#000000;fill-opacity:1;fill-rule:nonzero;stroke:none"
           transform="matrix(1,0,0,-1,146.928,158.046)"><tspan
             id="tspan148"
             y="0"
             x="0 4.448 8.8959999 11.12 16.455999 18.232 20.455999">32 Bits</tspan><tspan
             id="tspan150"
             y="25.3395"
             x="151.65601 157.43201 161.88 166.328 170.776 175.224 177.448 181.896 184.12 186.34399 190.79201 195.24001 199.24001 201.464">Range of host</tspan><tspan
             id="tspan152"
             y="34.3395"
             x="151.65601 156.104 160.552 165 167.664 172.112 176.112 180.112 184.56">addresses</tspan><tspan
             id="tspan154"
             y="48.8395"
             x="151.65601 156.104 158.328 162.776 165 169.448 171.672 176.12 178.34399 180.56799 185.01601">1.0.0.0 to</tspan><tspan
             id="tspan156"
             y="57.8395"
             x="151.65601 156.104 160.552 165 167.224 171.672 176.12 180.56799 182.79201 187.24001 191.688 196.136 198.36 202.808 207.256">127.255.255.255</tspan><tspan
             id="tspan158"
             y="74.8395"
             x="151.65601 156.104 160.552 165 167.224 171.672 173.896 178.34399 180.56799 185.01601 187.24001 189.464 193.912">128.0.0.0 to</tspan><tspan
             id="tspan160"
             y="83.8395"
             x="151.65601 156.104 160.552 165 167.224 171.672 176.12 180.56799 182.79201 187.24001 191.688 196.136 198.36 202.808 207.256">191.255.255.255</tspan><tspan
             id="tspan162"
             y="98.3395"
             x="151.65601 156.104 160.552 165 167.224 171.672 173.896 178.34399 180.56799 185.01601 187.24001 189.464 193.912">192.0.0.0 to</tspan><tspan
             id="tspan164"
             y="107.3395"
             x="151.65601 156.104 160.552 165 167.224 171.672 176.12 180.56799 182.79201 187.24001 191.688 196.136 198.36 202.808 207.256">223.255.255.255</tspan><tspan
             id="tspan166"
             y="122.3395"
             x="151.65601 156.104 160.552 165 167.224 171.672 173.896 178.34399 180.56799 185.01601 187.24001 189.464 193.912">224.0.0.0 to</tspan><tspan
             id="tspan168"
             y="131.33949"
             x="151.65601 156.104 160.552 165 167.224 171.672 176.12 180.56799 182.79201 187.24001 191.688 196.136 198.36 202.808 207.256">239.255.255.255</tspan><tspan
             id="tspan170"
             y="146.33949"
             x="151.65601 156.104 160.552 165 167.224 171.672 173.896 178.34399 180.56799 185.01601 187.24001 189.464 193.912">240.0.0.0 to</tspan><tspan
             id="tspan172"
             y="155.33949"
             x="151.65601 156.104 160.552 165 167.224 171.672 176.12 180.56799 182.79201 187.24001 191.688 196.136 198.36 202.808 207.256">255.255.255.255</tspan><tspan
             id="tspan174"
             y="32.3395"
             x="-146.92799 -141.15199 -139.37601 -134.92799 -130.92799">Class</tspan></text>
</g><path
         id="path176"
         style="fill:none;stroke:#000000;stroke-width:5;stroke-linecap:butt;stroke-linejoin:miter;stroke-miterlimit:4;stroke-dasharray:none;stroke-opacity:1"
         d="m 226.207,722.5 2723.79,0 0,180 -2723.79,0 0,-180 z" /><path
         id="path178"
         style="fill:none;stroke:#000000;stroke-width:5;stroke-linecap:butt;stroke-linejoin:miter;stroke-miterlimit:4;stroke-dasharray:none;stroke-opacity:1"
         d="m 226.207,482.5 2723.79,0 0,180 -2723.79,0 0,-180 z" /><path
         id="path180"
         style="fill:none;stroke:#000000;stroke-width:5;stroke-linecap:butt;stroke-linejoin:miter;stroke-miterlimit:4;stroke-dasharray:none;stroke-opacity:1"
         d="m 483.738,662.5 0,-180" /><path
         id="path182"
         style="fill:none;stroke:#000000;stroke-width:5;stroke-linecap:butt;stroke-linejoin:miter;stroke-miterlimit:4;stroke-dasharray:none;stroke-opacity:1"
         d="m 226.207,242.5 2723.79,0 0,180 -2723.79,0 0,-180 z" /><path
         id="path184"
         style="fill:none;stroke:#000000;stroke-width:5;stroke-linecap:butt;stroke-linejoin:miter;stroke-miterlimit:4;stroke-dasharray:none;stroke-opacity:1"
         d="m 568.738,422.5 0,-180" /><path
         id="path186"
         style="fill:none;stroke:#000000;stroke-width:5;stroke-linecap:butt;stroke-linejoin:miter;stroke-miterlimit:4;stroke-dasharray:none;stroke-opacity:1"
         d="m 226.207,2.5 2723.79,0 0,180 -2723.79,0 0,-180 z" /><path
         id="path188"
         style="fill:none;stroke:#000000;stroke-width:5;stroke-linecap:butt;stroke-linejoin:miter;stroke-miterlimit:4;stroke-dasharray:none;stroke-opacity:1"
         d="m 573.738,182.5 0,-180" /><path
         id="path190"
         style="fill:#ffffff;fill-opacity:1;fill-rule:nonzero;stroke:none"
         d="m 905.867,1142.5 0,-180" /><path
         id="path192"
         style="fill:none;stroke:#000000;stroke-width:5;stroke-linecap:butt;stroke-linejoin:miter;stroke-miterlimit:4;stroke-dasharray:none;stroke-opacity:1"
         d="m 905.867,1142.5 0,-180" /><path
         id="path194"
         style="fill:none;stroke:#000000;stroke-width:5;stroke-linecap:butt;stroke-linejoin:miter;stroke-miterlimit:4;stroke-dasharray:none;stroke-opacity:1"
         d="m 398.738,902.5 0,-180" /><g
         transform="scale(10,10)"
         id="g196"><text
           id="text198"
           style="font-variant:normal;font-weight:normal;font-size:8px;font-family:Helvetica;-inkscape-font-specification:Helvetica;writing-mode:lr-tb;fill:#000000;fill-opacity:1;fill-rule:nonzero;stroke:none"
           transform="matrix(1,0,0,-1,24.2762,103.207)"><tspan
             id="tspan200"
             y="0"
             x="0 20.30584 26.081841 30.52984 32.753841 38.529839 42.97784 45.641842 160.24985 166.02583 170.47385 174.47385">0NetworkHost</tspan><tspan
             id="tspan202"
             y="25"
             x="1.77578 6.2237802 59.055859 64.831863 69.279861 71.50386 77.279861 81.727859 84.391861 193.49986 199.27586 203.72386 207.72386">10NetworkHost</tspan><tspan
             id="tspan204"
             y="49"
             x="4.05195 8.4999504 12.94795 98.555946 104.33195 108.77995 111.00395 116.77995 121.22795 123.89195">110Network</tspan></text>
</g><path
         id="path206"
         style="fill:#ffffff;fill-opacity:1;fill-rule:nonzero;stroke:none"
         d="m 2269.05,662.5 0,-180" /><path
         id="path208"
         style="fill:none;stroke:#000000;stroke-width:5;stroke-linecap:butt;stroke-linejoin:miter;stroke-miterlimit:4;stroke-dasharray:none;stroke-opacity:1"
         d="m 2269.05,662.5 0,-180" /><g
         transform="scale(10,10)"
         id="g210"><text
           id="text212"
           style="font-variant:normal;font-weight:normal;font-size:8px;font-family:Helvetica;-inkscape-font-specification:Helvetica;writing-mode:lr-tb;fill:#000000;fill-opacity:1;fill-rule:nonzero;stroke:none"
           transform="matrix(1,0,0,-1,253.776,54.207)"><tspan
             id="tspan214"
             y="0"
             x="0 5.776 10.224 14.224">Host</tspan><tspan
             id="tspan216"
             y="24.5"
             x="-224.172 -219.724 -215.276 -210.828 -111.396 -104.732 -100.284 -98.508003 -96.283997 -94.508003 -90.508003 -86.059998 -82.059998 -79.835999 -77.612 -73.164001 -68.716003 -64.267998 -61.604 -57.155998 -53.155998">1110Multicast address</tspan><tspan
             id="tspan218"
             y="48"
             x="-222.50793 -218.05994 -213.61194 -209.16394 -204.71594 -122.57162 -116.79562 -112.34762 -108.34762 -103.89962 -101.23562 -97.235619 -92.787621 -88.339622 -86.115623 -83.891617 -79.443619 -76.779617 -74.555618 -72.331619 -67.883621 -65.659622 -61.21162 -58.547619 -54.099621 -51.875622 -47.42762 -43.42762">1111 Reserved for future use</tspan><tspan
             id="tspan220"
             y="-49"
             x="-245.44383">A</tspan><tspan
             id="tspan222"
             y="-24"
             x="-245.44383">B</tspan><tspan
             id="tspan224"
             y="0"
             x="-245.66376">C</tspan><tspan
             id="tspan226"
             y="24.5"
             x="-245.16376">D</tspan><tspan
             id="tspan228"
             y="48"
             x="-245.44383">E</tspan></text>
</g><path
         id="path230"
         style="fill:none;stroke:#000000;stroke-width:5;stroke-linecap:butt;stroke-linejoin:miter;stroke-miterlimit:4;stroke-dasharray:none;stroke-opacity:1"
         d="m 249.059,1610.3 1197.611,0" /><path
         id="path232"
         style="fill:none;stroke:#000000;stroke-width:5;stroke-linecap:butt;stroke-linejoin:miter;stroke-miterlimit:4;stroke-dasharray:none;stroke-opacity:1"
         d="m 1740,1610.3 1187.81,0" /><path
         id="path234"
         style="fill:#000000;fill-opacity:1;fill-rule:nonzero;stroke:none"
         d="m 280.836,1624.16 -51.555,-13.77 51.555,-13.86 0,27.63" /><path
         id="path236"
         style="fill:none;stroke:#000000;stroke-width:5;stroke-linecap:butt;stroke-linejoin:miter;stroke-miterlimit:1;stroke-dasharray:none;stroke-opacity:1"
         d="m 277.711,1610.39 -27.617,0" /><path
         id="path238"
         style="fill:#000000;fill-opacity:1;fill-rule:nonzero;stroke:none"
         d="m 2896.67,1624.16 51.55,-13.77 -51.55,-13.86 0,27.63" /><path
         id="path240"
         style="fill:none;stroke:#000000;stroke-width:5;stroke-linecap:butt;stroke-linejoin:miter;stroke-miterlimit:1;stroke-dasharray:none;stroke-opacity:1"
         d="m 2899.8,1610.39 27.61,0" /></g></g></svg>