<?xml version="1.0" encoding="UTF-8" standalone="no"?>
<svg
   xmlns:dc="http://purl.org/dc/elements/1.1/"
   xmlns:cc="http://creativecommons.org/ns#"
   xmlns:rdf="http://www.w3.org/1999/02/22-rdf-syntax-ns#"
   xmlns:svg="http://www.w3.org/2000/svg"
   xmlns="http://www.w3.org/2000/svg"
   viewBox="0 0 451.375 344.25"
   height="344.25"
   width="451.375"
   xml:space="preserve"
   version="1.1"
   id="svg2"><metadata
     id="metadata8"><rdf:RDF><cc:Work
         rdf:about=""><dc:format>image/svg+xml</dc:format><dc:type
           rdf:resource="http://purl.org/dc/dcmitype/StillImage" /></cc:Work></rdf:RDF></metadata><defs
     id="defs6" /><g
     transform="matrix(1.25,0,0,-1.25,0,344.25)"
     id="g10"><g
       transform="scale(0.1,0.1)"
       id="g12"><path
         id="path14"
         style="fill:#ffffff;fill-opacity:1;fill-rule:nonzero;stroke:none"
         d="m 1081.29,2562.87 149.102,0 0,164.012 -149.102,0 0,-164.012 z" /><path
         id="path16"
         style="fill:none;stroke:#000000;stroke-width:3;stroke-linecap:butt;stroke-linejoin:miter;stroke-miterlimit:4;stroke-dasharray:none;stroke-opacity:1"
         d="m 1081.29,2562.87 149.102,0 0,164.012 -149.102,0 0,-164.012 z" /><g
         transform="scale(10,10)"
         id="g18"><text
           id="text20"
           style="font-variant:normal;font-weight:normal;font-size:8px;font-family:Helvetica;-inkscape-font-specification:Helvetica;writing-mode:lr-tb;fill:#000000;fill-opacity:1;fill-rule:nonzero;stroke:none"
           transform="matrix(1,0,0,-1,17.5836,239.82)"><tspan
             id="tspan22"
             y="0"
             x="0 6.664 9.3280001 11.552 13.776 19.552 24 28.448 30.224001 34.672001 36.448002 38.672001 44.448002 48.896 55.560001 59.560001 64.008003 68.456001 70.68">Mr. Daniel Dumkopf</tspan><tspan
             id="tspan24"
             y="9.5"
             x="0 4.448 8.8959999 11.12 18.672001 20.448 22.224001 24 28.448 34.223999 36.448002 40.896 45.344002 49.792 54.240002">18 Willow Lane</tspan><tspan
             id="tspan26"
             y="19"
             x="0 7.552 12 13.776 16 20.448 22.672001 28.007999 29.784 34.231998 36.007999 40.456001 44.456001 46.68 48.903999 54.68 60.015999 62.240002 66.688004 71.136002 75.584 80.031998">White Plains, NY 10604</tspan></text>
</g><path
         id="path28"
         style="fill:none;stroke:#000000;stroke-width:5;stroke-linecap:butt;stroke-linejoin:miter;stroke-miterlimit:4;stroke-dasharray:none;stroke-opacity:1"
         d="m 2.5,2065.08 1260.21,0 0,686.461 -1260.21,0 0,-686.461 z" /><path
         id="path30"
         style="fill:none;stroke:#000000;stroke-width:5;stroke-linecap:butt;stroke-linejoin:miter;stroke-miterlimit:4;stroke-dasharray:none;stroke-opacity:1"
         d="m 1757.71,2028.2 1379.79,0 0,719.172 -1379.79,0 0,-719.172 z" /><path
         id="path32"
         style="fill:none;stroke:#000000;stroke-width:5;stroke-linecap:butt;stroke-linejoin:miter;stroke-miterlimit:4;stroke-dasharray:none;stroke-opacity:1"
         d="m 1757.71,1374.45 1379.79,0 0,653.75 -1379.79,0 0,-653.75 z" /><path
         id="path34"
         style="fill:none;stroke:#000000;stroke-width:5;stroke-linecap:butt;stroke-linejoin:miter;stroke-miterlimit:4;stroke-dasharray:none;stroke-opacity:1"
         d="m 1757.71,138.203 1379.79,0 0,1236.25 -1379.79,0 0,-1236.25 z" /><path
         id="path36"
         style="fill:none;stroke:#000000;stroke-width:5;stroke-linecap:butt;stroke-linejoin:miter;stroke-miterlimit:4;stroke-dasharray:none;stroke-opacity:1"
         d="m 2.5,134.875 1260.21,0 0,1831.45 -1260.21,0 0,-1831.45 z" /><path
         id="path38"
         style="fill:#b2b2b2;fill-opacity:1;fill-rule:nonzero;stroke:none"
         d="m 1089.17,2571.54 133.328,0 0,146.664 -133.328,0 0,-146.664 z" /><g
         transform="scale(10,10)"
         id="g40"><text
           id="text42"
           style="font-variant:normal;font-weight:normal;font-size:8px;font-family:Helvetica;-inkscape-font-specification:Helvetica;writing-mode:lr-tb;fill:#000000;fill-opacity:1;fill-rule:nonzero;stroke:none"
           transform="matrix(1,0,0,-1,57.25,186.133)"><tspan
             id="tspan44"
             y="0"
             x="0 5.776 10.224 12 14.224 18.672001 23.120001 25.344 31.568001 33.344002 37.344002 44.007999 48.456001">United Gizmo</tspan><tspan
             id="tspan46"
             y="9.5"
             x="0 4.448 8.8959999 13.344 15.568 22.232 26.68 28.455999 32.903999 35.127998 40.464001 42.688">180 Main St</tspan><tspan
             id="tspan48"
             y="19"
             x="0 5.336 9.7840004 13.784 16.007999 20.455999 24.903999 27.128 29.351999 36.015999 41.352001 43.576 48.023998 52.472 56.919998 61.368">Boston, MA 02120</tspan><tspan
             id="tspan50"
             y="30.666401"
             x="0 5.336 9.7840004 14.232 16.455999 18.68 20.903999 25.351999 27.576 29.799999 34.248001 38.695999 43.144001">Sept. 1, 2002</tspan><tspan
             id="tspan52"
             y="136.0004"
             x="0 5.336 9.7840004 14.232 16.896 20.896 23.120001 25.344 28.007999 32.456001 34.231998 38.231998">Yours truly</tspan><tspan
             id="tspan54"
             y="145.5004"
             x="0 5.776 10.224 12 14.224 18.672001 23.120001 25.344 31.568001 33.344002 37.344002 44.007999">United Gizmo</tspan><tspan
             id="tspan56"
             y="136.0004"
             x="189 194.336 198.784 203.23199 205.896 209.896 212.12 214.34399 217.008 221.45599 223.23199 227.23199">Yours truly</tspan><tspan
             id="tspan58"
             y="145.5004"
             x="189 194.776 199.224 201 203.224 207.672 212.12 214.34399 220.56799 222.34399 226.34399 233.008">United Gizmo</tspan><tspan
             id="tspan60"
             y="44.333401"
             x="-52.333 -46.997002 -42.549 -38.101002 -36.325001 -31.877001 -27.877001 -25.653 -23.429001 -21.205 -18.981001 -14.533 -10.533 -6.085 -4.309 -0.30899999 4.1389999 6.3629999 10.811 15.259 19.707001 24.155001">Subject: Invoice 1081</tspan><tspan
             id="tspan62"
             y="53.833401"
             x="-52.333"></tspan><tspan
             id="tspan64"
             y="63.333401"
             x="-52.333 -46.556999 -42.109001 -37.660999 -34.997002 -32.772999 -26.108999 -23.445 -21.221001 -18.997 -13.221 -8.7729998 -2.109 1.891 6.3390002 10.787 13.011 15.235">Dear Mr. Dumkopf,</tspan><tspan
             id="tspan66"
             y="72.833397"
             x="-52.333 -32.317001 -26.093 -21.645 -18.981001 -16.757 -12.757 -8.309 -1.645 2.803 7.2509999 9.4750004 13.923 16.587 18.811001 21.475 25.923 29.923 34.370998 37.035 41.483002 45.483002"> Our computer records</tspan><tspan
             id="tspan68"
             y="82.333397"
             x="-52.333 -48.333 -43.884998 -39.437 -33.660999 -31.437 -29.212999 -24.764999 -20.316999 -18.093 -15.869 -11.869 -7.421 -2.973 -0.74900001 3.2509999 5.4749999 7.2509999 9.0270004 10.803 13.027 17.475 21.923 25.923 30.371">show that you still have</tspan><tspan
             id="tspan70"
             y="91.833397"
             x="-52.333 -47.884998 -43.437 -41.213001 -38.988998 -34.541 -30.093 -28.316999 -23.868999 -21.645 -19.421 -14.973 -10.525 -8.3009996 -3.8529999 0.59500003 5.0430002 9.0430002 13.491 15.715 17.490999 21.938999 25.938999 30.386999 32.162998 36.162998 40.611">not paid the above invoice</tspan><tspan
             id="tspan72"
             y="101.3334"
             x="-52.333 -47.884998 -45.660999 -43.437 -38.988998 -34.541 -32.317001 -27.868999 -23.421 -21.197001 -18.973 -13.637 -11.861 -7.4130001 -2.9649999 1.035 5.4829998 7.7069998 11.707 16.155001 20.603001 25.051001 27.275 31.723 35.723 37.946999 42.395">of $0.00. Please send us a</tspan><tspan
             id="tspan74"
             y="110.8334"
             x="-52.333 -48.333 -43.884998 -39.437 -35.437 -31.437 -29.212999 -26.989 -22.541 -19.877001 -17.653 -13.205 -8.757 -6.533 -2.085 2.3629999 4.5869999 9.0349998 11.699 16.146999 22.811001 27.259001 29.483 31.259001 35.258999">check for $0.00 promptly.</tspan><tspan
             id="tspan76"
             y="62.167"
             x="131.86099 137.63699 142.08501 146.533 149.19701 151.42101 158.08501 160.74899 162.97301 165.19701 170.97301 175.42101 182.08501 186.08501 190.533 194.981 197.205 199.429">Dear Mr. Dumkopf,</tspan><tspan
             id="tspan78"
             y="71.667"
             x="131.86099 151.877 158.101 162.549 165.213 167.437 171.437 175.88499 182.549 186.99699 191.44501 193.66901 198.117 200.78101 203.005 205.66901 210.117 214.117 218.565 221.229 225.677 229.677"> Our computer records</tspan><tspan
             id="tspan80"
             y="81.167"
             x="131.86099 135.86099 140.30901 144.757 150.533 152.757 154.981 159.429 163.877 166.101 168.325 172.325 176.77299 181.22099 183.44501 187.44501 189.66901 191.44501 193.22099 194.99699 197.22099 201.66901 206.117 210.117 214.565">show that you still have</tspan><tspan
             id="tspan82"
             y="90.667"
             x="131.86099 136.30901 140.757 142.981 145.205 149.653 154.101 155.877 160.325 162.549 164.77299 169.22099 173.66901 175.89301 180.341 184.789 189.237 193.237 197.685 199.909 201.685 206.133 210.133 214.58099 216.35699 220.35699 224.80499">not paid the above invoice</tspan><tspan
             id="tspan84"
             y="100.167"
             x="131.86099 136.30901 138.533 140.757 145.205 149.653 151.877 156.325 160.77299 162.99699 165.22099 170.55701 172.33299 176.78101 181.229 185.229 189.677 191.901 195.901 200.349 204.797 209.245 211.46899 215.91701 219.91701 222.14101 226.589">of $0.00. Please send us a</tspan><tspan
             id="tspan86"
             y="109.667"
             x="131.86099 135.86099 140.30901 144.757 148.757 152.757 154.981 157.205 161.653 164.317 166.541 170.989 175.437 177.661 182.10899 186.55701 188.78101 193.229 195.89301 200.341 207.005 211.453 213.677 215.453 219.453">check for $0.00 promptly.</tspan><tspan
             id="tspan88"
             y="-77.958"
             x="131.86099 137.63699 142.08501 148.74899 153.19701 155.42101 157.645 164.30901 166.97301 169.19701 171.42101 177.19701 181.645 186.093 187.869 192.317 194.093 196.317 202.093 206.541 213.205 217.205 221.653 226.101 228.325">Name: Mr. Daniel Dumkopf</tspan><tspan
             id="tspan90"
             y="-68.458"
             x="131.86099 137.19701 139.42101 142.08501 146.533 150.981 153.205 155.429 157.653 162.101 166.549 168.77299 176.325 178.101 179.877 181.653 186.101 191.877 194.101 198.549 202.99699 207.44501 211.89301">Street: 18 Willow Lane</tspan><tspan
             id="tspan92"
             y="-58.958"
             x="131.86099 137.63699 139.41299 141.63699 145.63699 147.86099 150.08501 157.63699 162.08501 163.86099 166.08501 170.533 172.757 178.093 179.869 184.317 186.093 190.541 194.541">City: White Plains</tspan><tspan
             id="tspan94"
             y="-49.458"
             x="131.86099 137.19701 139.42101 143.869 146.093 150.541 152.765 154.989 160.765 166.101">State: NY</tspan><tspan
             id="tspan96"
             y="-39.958"
             x="131.86099 136.74899 138.52499 142.97301 145.19701 149.19701 153.645 158.093 162.541 164.765 166.989 171.437 175.88499 180.33299 184.78101 189.229">Zip code: 10604</tspan><tspan
             id="tspan98"
             y="-30.458"
             x="131.86099 137.19701 139.86099 141.63699 146.08501 148.74899 150.52499 152.74899 156.74899 158.97301 161.19701 166.97301 169.63699 174.08501 178.533 182.981 185.205">Priority: Urgent</tspan><tspan
             id="tspan100"
             y="-20.958"
             x="131.86099 137.19701 141.645 145.645 148.30901 152.30901 156.757 158.981 160.757 165.205 169.653 171.877 174.101 179.877 184.325 188.77299">Encryption: None</tspan><tspan
             id="tspan102"
             y="-5.6666002"
             x="131.86099 136.74899 139.41299 143.86099 150.52499 152.74899 154.97301 160.74899 165.19701 166.97301 169.19701 173.645 178.093 180.317 186.541 188.317 192.317 198.981 203.429">From: United Gizmo</tspan><tspan
             id="tspan104"
             y="3.8334"
             x="131.86099 137.19701 141.645 146.093 148.757 153.205 157.205 161.205 163.429 165.653 170.101 174.549 178.99699 181.22099 187.88499 192.33299 194.10899 198.55701 200.78101 206.117 208.341 210.565">Address: 180 Main St.</tspan><tspan
             id="tspan106"
             y="13.3334"
             x="131.86099 136.30901 140.757 144.757 149.205 151.429 153.205 157.653 162.101 164.325 166.549 171.88499 176.33299 180.33299 182.55701 187.005 191.453 193.677 195.901 202.565 207.901 210.125 214.573 219.021 223.46899 227.91701 232.36501">Location: Boston, MA 02120</tspan><tspan
             id="tspan108"
             y="22.833401"
             x="131.86099 137.63699 142.08501 144.30901 148.757 150.981 153.205 158.541 162.989 167.437 169.661 171.88499 174.10899 178.55701 180.78101 183.005 187.453 191.901 196.349 200.797 203.021">Date: Sept. 1, 2002 </tspan><tspan
             id="tspan110"
             y="32.333401"
             x="131.86099 137.19701 141.645 146.093 147.869 152.317 156.317 158.541 160.765 162.989 165.213 169.661 173.661 178.10899 179.88499 183.88499 188.33299 190.55701 195.005 199.453 203.901">Subject: Invoice 1081</tspan></text>
</g><path
         id="path112"
         style="fill:none;stroke:#000000;stroke-width:5;stroke-linecap:butt;stroke-linejoin:miter;stroke-miterlimit:4;stroke-dasharray:none;stroke-opacity:1"
         d="m 1392.54,138.309 257.09,0" /><path
         id="path114"
         style="fill:none;stroke:#000000;stroke-width:5;stroke-linecap:butt;stroke-linejoin:miter;stroke-miterlimit:4;stroke-dasharray:none;stroke-opacity:1"
         d="m 1392.54,1374.25 257.09,0" /><path
         id="path116"
         style="fill:none;stroke:#000000;stroke-width:5;stroke-linecap:butt;stroke-linejoin:miter;stroke-miterlimit:4;stroke-dasharray:none;stroke-opacity:1"
         d="m 1392.54,2018 257.09,0" /><path
         id="path118"
         style="fill:none;stroke:#000000;stroke-width:5;stroke-linecap:butt;stroke-linejoin:miter;stroke-miterlimit:4;stroke-dasharray:none;stroke-opacity:1"
         d="m 1392.54,2751.33 257.09,0" /><g
         transform="scale(10,10)"
         id="g120"><text
           id="text122"
           style="font-variant:normal;font-weight:normal;font-size:8px;font-family:Helvetica;-inkscape-font-specification:Helvetica;writing-mode:lr-tb;fill:#000000;fill-opacity:1;fill-rule:nonzero;stroke:none"
           transform="matrix(1,0,0,-1,327.75,239.966)"><tspan
             id="tspan124"
             y="0"
             x="0 5.336 9.7840004 13.784 18.232 20.007999 24.455999 28.903999">Envelope</tspan><tspan
             id="tspan126"
             y="135"
             x="0 6.664 11.112 15.112 19.112 23.559999 28.007999">Message</tspan></text>
</g><path
         id="path128"
         style="fill:none;stroke:#000000;stroke-width:5;stroke-linecap:butt;stroke-linejoin:miter;stroke-miterlimit:4;stroke-dasharray:none;stroke-opacity:1"
         d="m 3172.5,2019.66 c 16.57,0 30,-13.43 30,-30 l 0,-882.5 c 0,-16.56 13.43,-30 30,-30 -16.57,0 -30,-13.43 -30,-30 l 0,-872.496 c 0,-16.566 -13.43,-30 -30,-30" /><path
         id="path130"
         style="fill:none;stroke:#000000;stroke-width:5;stroke-linecap:butt;stroke-linejoin:miter;stroke-miterlimit:4;stroke-dasharray:none;stroke-opacity:1"
         d="m 3172.5,2744.66 c 16.57,0 30,-13.43 30,-30 l 0,-300 c 0,-16.56 13.43,-30 30,-30 -16.57,0 -30,-13.43 -30,-30 l 0,-290 c 0,-16.56 -13.43,-30 -30,-30" /><g
         transform="scale(10,10)"
         id="g132"><text
           id="text134"
           style="font-variant:normal;font-weight:normal;font-size:8px;font-family:Helvetica;-inkscape-font-specification:Helvetica;writing-mode:lr-tb;fill:#000000;fill-opacity:1;fill-rule:nonzero;stroke:none"
           transform="matrix(1,0,0,-1,58.0293,1.8)"><tspan
             id="tspan136"
             y="0"
             x="0 2.664 7.112 182.666 185.33 189.778">(a)(b)</tspan></text>
</g><path
         id="path138"
         style="fill:none;stroke:#000000;stroke-width:5;stroke-linecap:butt;stroke-linejoin:miter;stroke-miterlimit:4;stroke-dasharray:none;stroke-opacity:1"
         d="m 1505.53,2712.89 0,-141.56" /><path
         id="path140"
         style="fill:#000000;fill-opacity:1;fill-rule:nonzero;stroke:none"
         d="m 1491.61,2684.51 13.76,51.55 13.86,-51.55 -27.62,0" /><path
         id="path142"
         style="fill:none;stroke:#000000;stroke-width:5;stroke-linecap:butt;stroke-linejoin:miter;stroke-miterlimit:4;stroke-dasharray:none;stroke-opacity:1"
         d="m 1515.53,1985.6 0,-120.94" /><path
         id="path144"
         style="fill:#000000;fill-opacity:1;fill-rule:nonzero;stroke:none"
         d="m 1501.61,1957.22 13.76,51.55 13.86,-51.55 -27.62,0" /><path
         id="path146"
         style="fill:none;stroke:#000000;stroke-width:5;stroke-linecap:butt;stroke-linejoin:miter;stroke-miterlimit:4;stroke-dasharray:none;stroke-opacity:1"
         d="m 1515.53,1338.73 0,-407.402" /><path
         id="path148"
         style="fill:#000000;fill-opacity:1;fill-rule:nonzero;stroke:none"
         d="m 1501.61,1310.35 13.76,51.55 13.86,-51.55 -27.62,0" /><path
         id="path150"
         style="fill:none;stroke:#000000;stroke-width:5;stroke-linecap:butt;stroke-linejoin:miter;stroke-miterlimit:4;stroke-dasharray:none;stroke-opacity:1"
         d="m 1515.53,176.016 0,461.984" /><path
         id="path152"
         style="fill:#000000;fill-opacity:1;fill-rule:nonzero;stroke:none"
         d="m 1501.61,204.398 13.76,-51.55 13.86,51.55 -27.62,0" /><path
         id="path154"
         style="fill:none;stroke:#000000;stroke-width:5;stroke-linecap:butt;stroke-linejoin:miter;stroke-miterlimit:4;stroke-dasharray:none;stroke-opacity:1"
         d="m 1515.53,1414.35 0,136.98" /><path
         id="path156"
         style="fill:#000000;fill-opacity:1;fill-rule:nonzero;stroke:none"
         d="m 1501.61,1442.73 13.76,-51.55 13.86,51.55 -27.62,0" /><path
         id="path158"
         style="fill:none;stroke:#000000;stroke-width:5;stroke-linecap:butt;stroke-linejoin:miter;stroke-miterlimit:4;stroke-dasharray:none;stroke-opacity:1"
         d="m 1509.55,2056.07 0,128.59" /><path
         id="path160"
         style="fill:#000000;fill-opacity:1;fill-rule:nonzero;stroke:none"
         d="m 1495.63,2084.45 13.76,-51.54 13.86,51.54 -27.62,0" /><g
         transform="scale(10,10)"
         id="g162"><text
           id="text164"
           style="font-variant:normal;font-weight:normal;font-size:8px;font-family:Helvetica;-inkscape-font-specification:Helvetica;writing-mode:lr-tb;fill:#000000;fill-opacity:1;fill-rule:nonzero;stroke:none"
           transform="matrix(0,1,1,0,153.25,69.3504)"><tspan
             id="tspan166"
             y="0"
             x="0 5.336 9.7840004 14.232 87.333603 93.109596 97.557602 102.0056 106.4536 110.9016">BodyHeader</tspan><tspan
             id="tspan168"
             y="-1"
             x="151.77299 157.10899 161.55701 165.55701 170.005 171.78101 176.229 180.677">Envelope</tspan></text>
</g><path
         id="path170"
         style="fill:#4d4d4d;fill-opacity:1;fill-rule:nonzero;stroke:none"
         d="m 1118.55,2637.79 36.6641,0 0,65 -36.6641,0 0,-65 z" /><g
         transform="scale(10,10)"
         id="g172"><text
           id="text174"
           style="font-variant:normal;font-weight:normal;font-size:6px;font-family:Helvetica;-inkscape-font-specification:Helvetica;writing-mode:lr-tb;fill:#000000;fill-opacity:1;fill-rule:nonzero;stroke:none"
           transform="matrix(1,0,0,-1,112.834,257.841)"><tspan
             id="tspan176"
             y="0"
             x="0 3.336 6.6719999 10.008">37¢</tspan></text>
</g><path
         id="path178"
         style="fill:#737373;fill-opacity:1;fill-rule:nonzero;stroke:none"
         d="m 1160.52,2661.38 c 13.27,0 24.02,10.75 24.02,24.01 0,13.26 -10.75,24.02 -24.02,24.02 -13.26,0 -24.01,-10.76 -24.01,-24.02 0,-13.26 10.75,-24.01 24.01,-24.01" /><path
         id="path180"
         style="fill:#000000;fill-opacity:1;fill-rule:nonzero;stroke:none"
         d="m 1182.4,2634.51 c 13.26,0 24.01,10.75 24.01,24.01 0,13.26 -10.75,24.01 -24.01,24.01 -13.26,0 -24.02,-10.75 -24.02,-24.01 0,-13.26 10.76,-24.01 24.02,-24.01" /><g
         transform="scale(10,10)"
         id="g182"><text
           id="text184"
           style="font-variant:normal;font-weight:normal;font-size:6px;font-family:Helvetica;-inkscape-font-specification:Helvetica;writing-mode:lr-tb;fill:#231f20;fill-opacity:1;fill-rule:nonzero;stroke:none"
           transform="matrix(1,0,0,-1,280.188,255.113)"><tspan
             id="tspan186"
             y="0"
             x="0"></tspan></text>
</g></g></g></svg>