<?xml version="1.0" encoding="UTF-8" standalone="no"?>
<svg
   xmlns:dc="http://purl.org/dc/elements/1.1/"
   xmlns:cc="http://creativecommons.org/ns#"
   xmlns:rdf="http://www.w3.org/1999/02/22-rdf-syntax-ns#"
   xmlns:svg="http://www.w3.org/2000/svg"
   xmlns="http://www.w3.org/2000/svg"
   viewBox="0 0 483.98749 167.52499"
   height="167.52499"
   width="483.98749"
   xml:space="preserve"
   version="1.1"
   id="svg2"><metadata
     id="metadata8"><rdf:RDF><cc:Work
         rdf:about=""><dc:format>image/svg+xml</dc:format><dc:type
           rdf:resource="http://purl.org/dc/dcmitype/StillImage" /></cc:Work></rdf:RDF></metadata><defs
     id="defs6" /><g
     transform="matrix(1.25,0,0,-1.25,0,167.525)"
     id="g10"><g
       transform="scale(0.1,0.1)"
       id="g12"><path
         id="path14"
         style="fill:none;stroke:#000000;stroke-width:5;stroke-linecap:butt;stroke-linejoin:miter;stroke-miterlimit:4;stroke-dasharray:none;stroke-opacity:1"
         d="m 491.805,1210 c -16.571,0 -30,-13.43 -30,-30 l 0,-393.75 c 0,-16.566 -13.434,-30 -30,-30 16.566,0 30,-13.434 30,-30 l 0,-372.918 c 0,-16.566 13.429,-30 30,-30" /><path
         id="path16"
         style="fill:none;stroke:#000000;stroke-width:5;stroke-linecap:butt;stroke-linejoin:miter;stroke-miterlimit:4;stroke-dasharray:none;stroke-opacity:1"
         d="m 490.973,21.5 c -16.571,0 -30,13.4336 -30,30 l 0,86 c 0,16.566 -13.434,30 -30,30 16.566,0 30,13.434 30,30 l 0,86 c 0,16.566 13.429,30 30,30" /><path
         id="path18"
         style="fill:none;stroke:#000000;stroke-width:5;stroke-linecap:butt;stroke-linejoin:miter;stroke-miterlimit:4;stroke-dasharray:none;stroke-opacity:1"
         d="m 516.82,20 2550,0 0,1200 -2550,0 0,-1200 z" /><path
         id="path20"
         style="fill:none;stroke:#000000;stroke-width:5;stroke-linecap:butt;stroke-linejoin:miter;stroke-miterlimit:4;stroke-dasharray:none;stroke-opacity:1"
         d="m 3066.82,916.719 -2550,0" /><path
         id="path22"
         style="fill:none;stroke:#000000;stroke-width:5;stroke-linecap:butt;stroke-linejoin:miter;stroke-miterlimit:4;stroke-dasharray:none;stroke-opacity:1"
         d="m 3066.82,619.844 -2550,0" /><path
         id="path24"
         style="fill:none;stroke:#000000;stroke-width:5;stroke-linecap:butt;stroke-linejoin:miter;stroke-miterlimit:4;stroke-dasharray:none;stroke-opacity:1"
         d="m 3066.82,319.844 -2550,0" /><path
         id="path26"
         style="fill:none;stroke:#000000;stroke-width:5;stroke-linecap:butt;stroke-linejoin:miter;stroke-miterlimit:4;stroke-dasharray:none;stroke-opacity:1"
         d="m 616.82,76.668 466.664,0 0,193.332 -466.664,0 0,-193.332 z" /><g
         transform="scale(10,10)"
         id="g28"><text
           id="text30"
           style="font-variant:normal;font-weight:normal;font-size:8px;font-family:Helvetica;-inkscape-font-specification:Helvetica;writing-mode:lr-tb;fill:#000000;fill-opacity:1;fill-rule:nonzero;stroke:none"
           transform="matrix(1,0,0,-1,66.4582,13.9063)"><tspan
             id="tspan32"
             y="0"
             x="0 5.336 11.112 16.448 21.784 27.559999 32.896">ARPANET</tspan><tspan
             id="tspan34"
             y="-59.510502"
             x="-58.450401 -53.114399 -50.450401 -46.002399 -43.7784 -39.330399 -35.330399 -30.882401 -29.1064">Protocols</tspan><tspan
             id="tspan36"
             y="0"
             x="-58.442589 -52.666588 -48.218586 -45.994587 -40.218586 -35.770588 -33.106586 -29.106588">Networks</tspan></text>
</g><path
         id="path38"
         style="fill:none;stroke:#000000;stroke-width:5;stroke-linecap:butt;stroke-linejoin:miter;stroke-miterlimit:4;stroke-dasharray:none;stroke-opacity:1"
         d="m 616.82,976.668 466.664,0 0,193.332 -466.664,0 0,-193.332 z" /><g
         transform="scale(10,10)"
         id="g40"><text
           id="text42"
           style="font-variant:normal;font-weight:normal;font-size:8px;font-family:Helvetica;-inkscape-font-specification:Helvetica;writing-mode:lr-tb;fill:#000000;fill-opacity:1;fill-rule:nonzero;stroke:none"
           transform="matrix(1,0,0,-1,70.0145,103.558)"><tspan
             id="tspan44"
             y="0"
             x="0 4.888 10.224 14.672 20.448 25.784">TELNET</tspan></text>
</g><path
         id="path46"
         style="fill:none;stroke:#000000;stroke-width:5;stroke-linecap:butt;stroke-linejoin:miter;stroke-miterlimit:4;stroke-dasharray:none;stroke-opacity:1"
         d="m 923.902,676.457 466.668,0 0,193.336 -466.668,0 0,-193.336 z" /><g
         transform="scale(10,10)"
         id="g48"><text
           id="text50"
           style="font-variant:normal;font-weight:normal;font-size:8px;font-family:Helvetica;-inkscape-font-specification:Helvetica;writing-mode:lr-tb;fill:#000000;fill-opacity:1;fill-rule:nonzero;stroke:none"
           transform="matrix(1,0,0,-1,108.058,73.4793)"><tspan
             id="tspan52"
             y="0"
             x="0 4.888 10.664">TCP</tspan></text>
</g><path
         id="path54"
         style="fill:none;stroke:#000000;stroke-width:5;stroke-linecap:butt;stroke-linejoin:miter;stroke-miterlimit:4;stroke-dasharray:none;stroke-opacity:1"
         d="m 2183.48,676.457 466.668,0 0,193.336 -466.668,0 0,-193.336 z" /><g
         transform="scale(10,10)"
         id="g56"><text
           id="text58"
           style="font-variant:normal;font-weight:normal;font-size:8px;font-family:Helvetica;-inkscape-font-specification:Helvetica;writing-mode:lr-tb;fill:#000000;fill-opacity:1;fill-rule:nonzero;stroke:none"
           transform="matrix(1,0,0,-1,233.572,73.4793)"><tspan
             id="tspan60"
             y="0"
             x="0 5.776 11.552 77.276558 82.164558 84.82856 89.276558 93.724564 97.724564 102.17256 106.62056 109.28456">UDPTransport</tspan></text>
</g><path
         id="path62"
         style="fill:none;stroke:#000000;stroke-width:5;stroke-linecap:butt;stroke-linejoin:miter;stroke-miterlimit:4;stroke-dasharray:none;stroke-opacity:1"
         d="m 2503.7,76.668 466.664,0 0,193.332 -466.664,0 0,-193.332 z" /><g
         transform="scale(10,10)"
         id="g64"><text
           id="text66"
           style="font-variant:normal;font-weight:normal;font-size:8px;font-family:Helvetica;-inkscape-font-specification:Helvetica;writing-mode:lr-tb;fill:#000000;fill-opacity:1;fill-rule:nonzero;stroke:none"
           transform="matrix(1,0,0,-1,266.257,13.9063)"><tspan
             id="tspan68"
             y="0"
             x="0 4.448 9.7840004">LAN</tspan></text>
</g><path
         id="path70"
         style="fill:none;stroke:#000000;stroke-width:5;stroke-linecap:butt;stroke-linejoin:miter;stroke-miterlimit:4;stroke-dasharray:none;stroke-opacity:1"
         d="m 2503.7,976.668 466.664,0 0,193.332 -466.664,0 0,-193.332 z" /><g
         transform="scale(10,10)"
         id="g72"><text
           id="text74"
           style="font-variant:normal;font-weight:normal;font-size:8px;font-family:Helvetica;-inkscape-font-specification:Helvetica;writing-mode:lr-tb;fill:#000000;fill-opacity:1;fill-rule:nonzero;stroke:none"
           transform="matrix(1,0,0,-1,265.593,103.558)"><tspan
             id="tspan76"
             y="0"
             x="0 5.776 11.552 46.026958 51.362961 55.810959 60.258961 62.034962 63.810959 67.810959 72.258957 74.482964 76.258957 80.706963">DNSApplication</tspan><tspan
             id="tspan78"
             y="-18.941799"
             x="46.027 50.474998 54.923 58.923 63.370998 66.035004 68.259003 70.922997 77.147003 82.483002 84.707001 86.931 91.378998 95.827003 102.491 106.939 110.939">Layer (OSI names)</tspan></text>
</g><path
         id="path80"
         style="fill:none;stroke:#000000;stroke-width:5;stroke-linecap:butt;stroke-linejoin:miter;stroke-miterlimit:4;stroke-dasharray:none;stroke-opacity:1"
         d="m 1873.48,76.668 466.668,0 0,193.332 -466.668,0 0,-193.332 z" /><g
         transform="scale(10,10)"
         id="g82"><text
           id="text84"
           style="font-variant:normal;font-weight:normal;font-size:8px;font-family:Helvetica;-inkscape-font-specification:Helvetica;writing-mode:lr-tb;fill:#000000;fill-opacity:1;fill-rule:nonzero;stroke:none"
           transform="matrix(1,0,0,-1,198.789,18.4168)"><tspan
             id="tspan86"
             y="0"
             x="0 5.336 9.7840004 13.784 17.784 22.232 24.455999">Packet</tspan><tspan
             id="tspan88"
             y="8"
             x="3.33672 6.00072 10.44872 14.89672 16.67272">radio</tspan><tspan
             id="tspan90"
             y="0"
             x="112.05972 117.39572 121.84372 125.84372 129.84372 131.61972 135.61972 140.06772 141.84372 144.06772 148.73972">Physical +</tspan><tspan
             id="tspan92"
             y="8"
             x="112.05972 116.50772 120.95572 123.17972 127.62772 129.85172 131.62772 133.40372 137.85172">data link</tspan></text>
</g><path
         id="path94"
         style="fill:none;stroke:#000000;stroke-width:5;stroke-linecap:butt;stroke-linejoin:miter;stroke-miterlimit:4;stroke-dasharray:none;stroke-opacity:1"
         d="m 1873.48,976.668 466.668,0 0,193.332 -466.668,0 0,-193.332 z" /><g
         transform="scale(10,10)"
         id="g96"><text
           id="text98"
           style="font-variant:normal;font-weight:normal;font-size:8px;font-family:Helvetica;-inkscape-font-specification:Helvetica;writing-mode:lr-tb;fill:#000000;fill-opacity:1;fill-rule:nonzero;stroke:none"
           transform="matrix(1,0,0,-1,199.905,103.558)"><tspan
             id="tspan100"
             y="0"
             x="0 5.336 12 16.888">SMTP</tspan></text>
</g><path
         id="path102"
         style="fill:none;stroke:#000000;stroke-width:5;stroke-linecap:butt;stroke-linejoin:miter;stroke-miterlimit:4;stroke-dasharray:none;stroke-opacity:1"
         d="m 1239.95,76.25 466.664,0 0,193.332 -466.664,0 0,-193.332 z" /><g
         transform="scale(10,10)"
         id="g104"><text
           id="text106"
           style="font-variant:normal;font-weight:normal;font-size:8px;font-family:Helvetica;-inkscape-font-specification:Helvetica;writing-mode:lr-tb;fill:#000000;fill-opacity:1;fill-rule:nonzero;stroke:none"
           transform="matrix(1,0,0,-1,131.883,13.9063)"><tspan
             id="tspan108"
             y="0"
             x="0 5.336 10.672 15.56 21.336 26.672001">SATNET</tspan></text>
</g><path
         id="path110"
         style="fill:none;stroke:#000000;stroke-width:5;stroke-linecap:butt;stroke-linejoin:miter;stroke-miterlimit:4;stroke-dasharray:none;stroke-opacity:1"
         d="m 1239.95,976.25 466.664,0 0,193.332 -466.664,0 0,-193.332 z" /><g
         transform="scale(10,10)"
         id="g112"><text
           id="text114"
           style="font-variant:normal;font-weight:normal;font-size:8px;font-family:Helvetica;-inkscape-font-specification:Helvetica;writing-mode:lr-tb;fill:#000000;fill-opacity:1;fill-rule:nonzero;stroke:none"
           transform="matrix(1,0,0,-1,140.106,103.558)"><tspan
             id="tspan116"
             y="0"
             x="0 4.888 9.776">FTP</tspan></text>
</g><path
         id="path118"
         style="fill:none;stroke:#000000;stroke-width:5;stroke-linecap:butt;stroke-linejoin:miter;stroke-miterlimit:4;stroke-dasharray:none;stroke-opacity:1"
         d="m 1556.82,370 466.664,0 0,193.332 -466.664,0 0,-193.332 z" /><g
         transform="scale(10,10)"
         id="g120"><text
           id="text122"
           style="font-variant:normal;font-weight:normal;font-size:8px;font-family:Helvetica;-inkscape-font-specification:Helvetica;writing-mode:lr-tb;fill:#000000;fill-opacity:1;fill-rule:nonzero;stroke:none"
           transform="matrix(1,0,0,-1,175.569,42.75)"><tspan
             id="tspan124"
             y="0"
             x="0 2.224 134.61279 140.38879 144.83681 147.06081 152.83681 157.28481 159.94881">IPNetwork</tspan></text>
</g></g></g></svg>