<?xml version="1.0" encoding="UTF-8" standalone="no"?>
<svg
   xmlns:dc="http://purl.org/dc/elements/1.1/"
   xmlns:cc="http://creativecommons.org/ns#"
   xmlns:rdf="http://www.w3.org/1999/02/22-rdf-syntax-ns#"
   xmlns:svg="http://www.w3.org/2000/svg"
   xmlns="http://www.w3.org/2000/svg"
   viewBox="0 0 817.5 410"
   height="410"
   width="817.5"
   xml:space="preserve"
   version="1.1"
   id="svg2"><metadata
     id="metadata8"><rdf:RDF><cc:Work
         rdf:about=""><dc:format>image/svg+xml</dc:format><dc:type
           rdf:resource="http://purl.org/dc/dcmitype/StillImage" /></cc:Work></rdf:RDF></metadata><defs
     id="defs6"><clipPath
       id="clipPath18"
       clipPathUnits="userSpaceOnUse"><path
         style="clip-rule:evenodd"
         id="path20"
         d="M 0,3280 0,0 l 6540,0 0,3280 -6540,0 z m 1153.11,-2037.99 35.91,-66.14 199.68,107.08 -142.36,-34.01 106.45,100.78 -199.68,-107.71 z" /></clipPath><clipPath
       id="clipPath32"
       clipPathUnits="userSpaceOnUse"><path
         style="clip-rule:evenodd"
         id="path34"
         d="M 0,3280 0,0 l 6540,0 0,3280 -6540,0 z m 4675.51,-2643.328 0,75.59 -227.39,0 141.73,-37.793 -141.73,-37.797 227.39,0 z" /></clipPath><clipPath
       id="clipPath46"
       clipPathUnits="userSpaceOnUse"><path
         style="clip-rule:evenodd"
         id="path48"
         d="M 0,3280 0,0 l 6540,0 0,3280 -6540,0 z m 3728.14,-507.96 -35.9,66.13 -199.68,-107.08 142.99,33.39 -107.09,-100.16 199.68,107.72 z" /></clipPath></defs><g
     transform="matrix(1.25,0,0,-1.25,0,410)"
     id="g10"><g
       transform="scale(0.1,0.1)"
       id="g12"><g
         id="g14"><g
           clip-path="url(#clipPath18)"
           id="g16"><path
             id="path22"
             style="fill:none;stroke:#000000;stroke-width:18.89699936;stroke-linecap:butt;stroke-linejoin:miter;stroke-miterlimit:10;stroke-dasharray:none;stroke-opacity:1"
             d="M 3815.7,2630.3 1179.57,1213.03" /></g></g><path
         id="path24"
         style="fill:#000000;fill-opacity:1;fill-rule:evenodd;stroke:none"
         d="m 1352.79,1349.72 -106.45,-100.78 142.36,34.01 -42.84,20.16 6.93,46.61" /><path
         id="path26"
         style="fill:none;stroke:#000000;stroke-width:37.79399872;stroke-linecap:butt;stroke-linejoin:miter;stroke-miterlimit:10;stroke-dasharray:none;stroke-opacity:1"
         d="m 1352.79,1349.72 -106.45,-100.78 142.36,34.01 -42.84,20.16 6.93,46.61 z" /><g
         id="g28"><g
           clip-path="url(#clipPath32)"
           id="g30"><path
             id="path36"
             style="fill:none;stroke:#000000;stroke-width:18.89699936;stroke-linecap:butt;stroke-linejoin:miter;stroke-miterlimit:10;stroke-dasharray:none;stroke-opacity:1"
             d="m 1066.18,674.469 3599.88,0" /></g></g><path
         id="path38"
         style="fill:#000000;fill-opacity:1;fill-rule:evenodd;stroke:none"
         d="m 4448.12,636.672 141.73,37.797 -141.73,37.793 28.34,-37.793 -28.34,-37.797" /><path
         id="path40"
         style="fill:none;stroke:#000000;stroke-width:37.79399872;stroke-linecap:butt;stroke-linejoin:miter;stroke-miterlimit:10;stroke-dasharray:none;stroke-opacity:1"
         d="m 4448.12,636.672 141.73,37.797 -141.73,37.793 28.34,-37.793 -28.34,-37.797 z" /><g
         id="g42"><g
           clip-path="url(#clipPath46)"
           id="g44"><path
             id="path50"
             style="fill:none;stroke:#000000;stroke-width:18.89699936;stroke-linecap:butt;stroke-linejoin:miter;stroke-miterlimit:10;stroke-dasharray:none;stroke-opacity:1"
             d="M 3702.32,2800.38 1066.18,1383.11" /></g></g><path
         id="path52"
         style="fill:#000000;fill-opacity:1;fill-rule:evenodd;stroke:none"
         d="m 3528.46,2664.32 107.09,100.16 -142.99,-33.39 42.83,-20.16 -6.93,-46.61" /><path
         id="path54"
         style="fill:none;stroke:#000000;stroke-width:37.79399872;stroke-linecap:butt;stroke-linejoin:miter;stroke-miterlimit:10;stroke-dasharray:none;stroke-opacity:1"
         d="m 3528.46,2664.32 107.09,100.16 -142.99,-33.39 42.83,-20.16 -6.93,-46.61 z" /><path
         id="path56"
         style="fill:none;stroke:#494936;stroke-width:4.72424984;stroke-linecap:butt;stroke-linejoin:miter;stroke-miterlimit:10;stroke-dasharray:none;stroke-opacity:1"
         d="m 460.223,848.32 42.832,42.203 303.613,0 -42.836,-42.203 -303.609,0 z" /><path
         id="path58"
         style="fill:#b6b69c;fill-opacity:1;fill-rule:evenodd;stroke:none"
         d="m 460.223,794.777 303.609,0 0,53.543 -303.609,0 0,-53.543 z" /><path
         id="path60"
         style="fill:none;stroke:#494936;stroke-width:4.72424984;stroke-linecap:butt;stroke-linejoin:miter;stroke-miterlimit:10;stroke-dasharray:none;stroke-opacity:1"
         d="m 460.223,794.777 303.609,0 0,53.543 -303.609,0 0,-53.543 z" /><path
         id="path62"
         style="fill:#7a7a5a;fill-opacity:1;fill-rule:evenodd;stroke:none"
         d="m 763.832,794.777 42.836,37.793 0,57.953 -42.836,-42.203" /><path
         id="path64"
         style="fill:none;stroke:#494936;stroke-width:4.72424984;stroke-linecap:butt;stroke-linejoin:miter;stroke-miterlimit:10;stroke-dasharray:none;stroke-opacity:1"
         d="m 763.832,794.777 42.836,37.793 0,57.953 -42.836,-42.203 0,-53.543 z" /><path
         id="path66"
         style="fill:#000000;fill-opacity:1;fill-rule:evenodd;stroke:none"
         d="m 470.93,858.398 32.125,32.125 297.941,0 -32.125,-32.125" /><path
         id="path68"
         style="fill:none;stroke:#000000;stroke-width:4.72424984;stroke-linecap:butt;stroke-linejoin:miter;stroke-miterlimit:10;stroke-dasharray:none;stroke-opacity:1"
         d="m 470.93,858.398 32.125,32.125 297.941,0 -32.125,-32.125 -297.941,0 z" /><path
         id="path70"
         style="fill:#c8c8b5;fill-opacity:1;fill-rule:evenodd;stroke:none"
         d="m 460.223,1102.8 32.125,32.13 308.648,0 -37.164,-32.13" /><path
         id="path72"
         style="fill:none;stroke:#494936;stroke-width:4.72424984;stroke-linecap:butt;stroke-linejoin:miter;stroke-miterlimit:10;stroke-dasharray:none;stroke-opacity:1"
         d="m 460.223,1102.8 32.125,32.13 308.648,0 -37.164,-32.13 -303.609,0 z" /><path
         id="path74"
         style="fill:#b6b69c;fill-opacity:1;fill-rule:evenodd;stroke:none"
         d="m 460.223,864.066 308.648,0 0,238.734 -308.648,0 0,-238.734 z" /><path
         id="path76"
         style="fill:none;stroke:#494936;stroke-width:4.72424984;stroke-linecap:butt;stroke-linejoin:miter;stroke-miterlimit:10;stroke-dasharray:none;stroke-opacity:1"
         d="m 460.223,864.066 308.648,0 0,238.734 -308.648,0 0,-238.734 z" /><path
         id="path78"
         style="fill:#000000;fill-opacity:1;fill-rule:evenodd;stroke:none"
         d="m 486.676,885.484 255.742,0 0,185.191 -255.742,0 0,-185.191 z" /><path
         id="path80"
         style="fill:none;stroke:#494936;stroke-width:4.72424984;stroke-linecap:butt;stroke-linejoin:miter;stroke-miterlimit:10;stroke-dasharray:none;stroke-opacity:1"
         d="m 486.676,885.484 255.742,0 0,185.191 -255.742,0 0,-185.191 z" /><path
         id="path82"
         style="fill:#7a7a5a;fill-opacity:1;fill-rule:evenodd;stroke:none"
         d="m 763.832,864.066 37.164,31.497 0,239.367 -37.164,-32.13" /><path
         id="path84"
         style="fill:none;stroke:#494936;stroke-width:4.72424984;stroke-linecap:butt;stroke-linejoin:miter;stroke-miterlimit:10;stroke-dasharray:none;stroke-opacity:1"
         d="m 763.832,864.066 37.164,31.497 0,239.367 -37.164,-32.13 0,-238.734 z" /><path
         id="path86"
         style="fill:#c8c8b5;fill-opacity:1;fill-rule:evenodd;stroke:none"
         d="m 402.27,746.906 47.242,58.578 330.699,0 -47.871,-58.578" /><path
         id="path88"
         style="fill:none;stroke:#494936;stroke-width:4.72424984;stroke-linecap:butt;stroke-linejoin:miter;stroke-miterlimit:10;stroke-dasharray:none;stroke-opacity:1"
         d="m 402.27,746.906 47.242,58.578 330.699,0 -47.871,-58.578 -330.07,0 z" /><path
         id="path90"
         style="fill:#7a7a5a;fill-opacity:1;fill-rule:evenodd;stroke:none"
         d="m 732.34,736.828 47.871,47.871 0,20.785 -47.871,-58.578" /><path
         id="path92"
         style="fill:none;stroke:#494936;stroke-width:4.72424984;stroke-linecap:butt;stroke-linejoin:miter;stroke-miterlimit:10;stroke-dasharray:none;stroke-opacity:1"
         d="m 732.34,736.828 47.871,47.871 0,20.785 -47.871,-58.578 0,-10.078 z" /><path
         id="path94"
         style="fill:#b6b69c;fill-opacity:1;fill-rule:evenodd;stroke:none"
         d="m 402.27,736.828 330.07,0 0,10.0781 -330.07,0 0,-10.0781 z" /><path
         id="path96"
         style="fill:none;stroke:#494936;stroke-width:4.72424984;stroke-linecap:butt;stroke-linejoin:miter;stroke-miterlimit:10;stroke-dasharray:none;stroke-opacity:1"
         d="m 402.27,736.828 330.07,0 0,10.0781 -330.07,0 0,-10.0781 z" /><path
         id="path98"
         style="fill:#c8c8b5;fill-opacity:1;fill-rule:evenodd;stroke:none"
         d="m 800.996,752.574 21.418,37.164 42.832,0 -21.414,-37.164" /><path
         id="path100"
         style="fill:none;stroke:#494936;stroke-width:4.72424984;stroke-linecap:butt;stroke-linejoin:miter;stroke-miterlimit:10;stroke-dasharray:none;stroke-opacity:1"
         d="m 800.996,752.574 21.418,37.164 42.832,0 -21.414,-37.164 -42.836,0 z" /><path
         id="path102"
         style="fill:#7a7a5a;fill-opacity:1;fill-rule:evenodd;stroke:none"
         d="m 843.832,741.867 21.414,21.414 0,26.457 -21.414,-37.164" /><path
         id="path104"
         style="fill:none;stroke:#494936;stroke-width:4.72424984;stroke-linecap:butt;stroke-linejoin:miter;stroke-miterlimit:10;stroke-dasharray:none;stroke-opacity:1"
         d="m 843.832,741.867 21.414,21.414 0,26.457 -21.414,-37.164 0,-10.707 z" /><path
         id="path106"
         style="fill:#b6b69c;fill-opacity:1;fill-rule:evenodd;stroke:none"
         d="m 795.957,741.867 47.875,0 0,10.707 -47.875,0 0,-10.707 z" /><path
         id="path108"
         style="fill:none;stroke:#494936;stroke-width:4.72424984;stroke-linecap:butt;stroke-linejoin:miter;stroke-miterlimit:10;stroke-dasharray:none;stroke-opacity:1"
         d="m 795.957,741.867 47.875,0 0,10.707 -47.875,0 0,-10.707 z" /><path
         id="path110"
         style="fill:none;stroke:#4efe2a;stroke-width:4.72424984;stroke-linecap:butt;stroke-linejoin:miter;stroke-miterlimit:10;stroke-dasharray:none;stroke-opacity:1"
         d="m 503.055,981.227 5.039,0" /><path
         id="path112"
         style="fill:none;stroke:#4efe2a;stroke-width:4.72424984;stroke-linecap:butt;stroke-linejoin:miter;stroke-miterlimit:10;stroke-dasharray:none;stroke-opacity:1"
         d="m 521.953,981.227 5.039,0" /><path
         id="path114"
         style="fill:none;stroke:#4efe2a;stroke-width:4.72424984;stroke-linecap:butt;stroke-linejoin:miter;stroke-miterlimit:10;stroke-dasharray:none;stroke-opacity:1"
         d="m 540.219,981.227 5.039,0" /><path
         id="path116"
         style="fill:none;stroke:#4efe2a;stroke-width:4.72424984;stroke-linecap:butt;stroke-linejoin:miter;stroke-miterlimit:10;stroke-dasharray:none;stroke-opacity:1"
         d="m 559.117,981.227 5.039,0" /><path
         id="path118"
         style="fill:none;stroke:#4efe2a;stroke-width:4.72424984;stroke-linecap:butt;stroke-linejoin:miter;stroke-miterlimit:10;stroke-dasharray:none;stroke-opacity:1"
         d="m 577.383,981.227 5.668,0" /><path
         id="path120"
         style="fill:none;stroke:#4efe2a;stroke-width:4.72424984;stroke-linecap:butt;stroke-linejoin:miter;stroke-miterlimit:10;stroke-dasharray:none;stroke-opacity:1"
         d="m 596.281,981.227 5.039,0" /><path
         id="path122"
         style="fill:none;stroke:#4efe2a;stroke-width:4.72424984;stroke-linecap:butt;stroke-linejoin:miter;stroke-miterlimit:10;stroke-dasharray:none;stroke-opacity:1"
         d="m 614.547,981.227 5.668,0" /><path
         id="path124"
         style="fill:none;stroke:#4efe2a;stroke-width:4.72424984;stroke-linecap:butt;stroke-linejoin:miter;stroke-miterlimit:10;stroke-dasharray:none;stroke-opacity:1"
         d="m 633.445,981.227 5.039,0" /><path
         id="path126"
         style="fill:none;stroke:#4efe2a;stroke-width:4.72424984;stroke-linecap:butt;stroke-linejoin:miter;stroke-miterlimit:10;stroke-dasharray:none;stroke-opacity:1"
         d="m 652.34,981.227 5.039,0" /><path
         id="path128"
         style="fill:none;stroke:#4efe2a;stroke-width:4.72424984;stroke-linecap:butt;stroke-linejoin:miter;stroke-miterlimit:10;stroke-dasharray:none;stroke-opacity:1"
         d="m 671.238,981.227 5.039,0" /><path
         id="path130"
         style="fill:none;stroke:#4efe2a;stroke-width:4.72424984;stroke-linecap:butt;stroke-linejoin:miter;stroke-miterlimit:10;stroke-dasharray:none;stroke-opacity:1"
         d="m 688.875,981.227 5.668,0" /><path
         id="path132"
         style="fill:none;stroke:#4efe2a;stroke-width:4.72424984;stroke-linecap:butt;stroke-linejoin:miter;stroke-miterlimit:10;stroke-dasharray:none;stroke-opacity:1"
         d="m 708.402,981.227 5.039,0" /><path
         id="path134"
         style="fill:none;stroke:#4efe2a;stroke-width:4.72424984;stroke-linecap:butt;stroke-linejoin:miter;stroke-miterlimit:10;stroke-dasharray:none;stroke-opacity:1"
         d="m 726.668,981.227 5.672,0" /><path
         id="path136"
         style="fill:#222222;fill-opacity:1;fill-rule:evenodd;stroke:none"
         d="m 561.637,434.477 5.039,-74.329 10.707,-5.039 37.164,-27.086 5.668,-42.203 -63.617,0 0,-10.711 -42.836,-5.039 -27.086,0 0,37.164 5.672,10.711 10.707,26.453 -5.668,74.329" /><path
         id="path138"
         style="fill:none;stroke:#000000;stroke-width:4.72424984;stroke-linecap:butt;stroke-linejoin:miter;stroke-miterlimit:10;stroke-dasharray:none;stroke-opacity:1"
         d="m 561.637,434.477 5.039,-74.329 10.707,-5.039 37.164,-27.086 5.668,-42.203 -63.617,0 0,-10.711 -42.836,-5.039 -27.086,0 0,37.164 5.672,10.711 10.707,26.453 -5.668,74.329 64.25,15.75 z" /><path
         id="path140"
         style="fill:#a4a484;fill-opacity:1;fill-rule:evenodd;stroke:none"
         d="m 380.855,609.586 137.946,-5.039 37.797,5.039 20.785,-10.707 5.668,-20.785 10.711,-196.531 -16.379,-32.125 -32.125,-5.04 -47.871,5.04 -15.75,137.949" /><path
         id="path142"
         style="fill:none;stroke:#000000;stroke-width:4.72424984;stroke-linecap:butt;stroke-linejoin:miter;stroke-miterlimit:10;stroke-dasharray:none;stroke-opacity:1"
         d="m 380.855,609.586 137.946,-5.039 37.797,5.039 20.785,-10.707 5.668,-20.785 10.711,-196.531 -16.379,-32.125 -32.125,-5.04 -47.871,5.04 -15.75,137.949 -100.782,122.199 z" /><path
         id="path144"
         style="fill:#fec1a9;fill-opacity:1;fill-rule:evenodd;stroke:none"
         d="m 407.309,821.863 42.203,0 32.125,20.785 42.836,-10.078 15.746,-5.668 10.707,-10.707 -5.668,-26.457 -5.039,0 -10.707,15.746 -5.039,10.711 -21.418,-10.711 15.746,-5.039 5.672,0 0,-10.707 -48.504,-5.039 -31.496,5.039 -32.125,0" /><path
         id="path146"
         style="fill:none;stroke:#000000;stroke-width:4.72424984;stroke-linecap:butt;stroke-linejoin:miter;stroke-miterlimit:10;stroke-dasharray:none;stroke-opacity:1"
         d="m 407.309,821.863 42.203,0 32.125,20.785 42.836,-10.078 15.746,-5.668 10.707,-10.707 -5.668,-26.457 -5.039,0 -10.707,15.746 -5.039,10.711 -21.418,-10.711 15.746,-5.039 5.672,0 0,-10.707 -48.504,-5.039 -31.496,5.039 -32.125,0 -5.039,32.125 z" /><path
         id="path148"
         style="fill:#a4a484;fill-opacity:1;fill-rule:evenodd;stroke:none"
         d="m 263.691,832.57 175.743,-5.668 10.078,-15.746 0,-32.125 -137.946,-26.457" /><path
         id="path150"
         style="fill:none;stroke:#000000;stroke-width:4.72424984;stroke-linecap:butt;stroke-linejoin:miter;stroke-miterlimit:10;stroke-dasharray:none;stroke-opacity:1"
         d="m 263.691,832.57 175.743,-5.668 10.078,-15.746 0,-32.125 -137.946,-26.457 -47.875,79.996 z" /><path
         id="path152"
         style="fill:#222222;fill-opacity:1;fill-rule:evenodd;stroke:none"
         d="m 688.875,338.73 -10.078,-52.91 15.746,0 32.125,-20.789 42.203,0 16.379,-5.668 5.039,-15.746 -5.039,-16.379 -42.832,-26.457 -15.75,-5.039 -27.086,0 -42.203,-5.039 0,-16.375 -37.164,0 -15.746,5.668 -16.379,10.707 0,25.828 10.711,27.086 5.668,15.746 10.078,15.746 10.707,52.914" /><path
         id="path154"
         style="fill:none;stroke:#000000;stroke-width:4.72424984;stroke-linecap:butt;stroke-linejoin:miter;stroke-miterlimit:10;stroke-dasharray:none;stroke-opacity:1"
         d="m 688.875,338.73 -10.078,-52.91 15.746,0 32.125,-20.789 42.203,0 16.379,-5.668 5.039,-15.746 -5.039,-16.379 -42.832,-26.457 -15.75,-5.039 -27.086,0 -42.203,-5.039 0,-16.375 -37.164,0 -15.746,5.668 -16.379,10.707 0,25.828 10.711,27.086 5.668,15.746 10.078,15.746 10.707,52.914 63.621,10.707 z" /><path
         id="path156"
         style="fill:#008077;fill-opacity:1;fill-rule:evenodd;stroke:none"
         d="m 305.895,375.895 277.156,95.746 5.039,-10.711 0,-15.746 -5.039,-10.707 -266.446,-95.747" /><path
         id="path158"
         style="fill:#008077;fill-opacity:1;fill-rule:evenodd;stroke:none"
         d="m 305.895,375.895 277.156,95.746 5.039,-10.711 0,-15.746 -5.039,-10.707 -266.446,-95.747" /><path
         id="path160"
         style="fill:none;stroke:#000000;stroke-width:4.72424984;stroke-linecap:butt;stroke-linejoin:miter;stroke-miterlimit:10;stroke-dasharray:none;stroke-opacity:1"
         d="m 305.895,375.895 277.156,95.746 5.039,-10.711 0,-15.746 -5.039,-10.707 -266.446,-95.747 -10.71,37.165 z" /><path
         id="path162"
         style="fill:#a9a9a9;fill-opacity:1;fill-rule:evenodd;stroke:none"
         d="m 348.73,370.855 5.04,-116.531 138.578,52.91 10.707,-5.039 5.039,-37.164 -10.707,0 0,-16.375 -5.039,-10.711 -5.672,0 -10.707,5.672 -5.039,10.707 0,10.707 -106.453,-42.832 95.746,-105.824 5.668,-42.832 -5.668,-15.75 0,-10.7071 -5.039,-15.7461 -5.672,-5.6679 -5.039,0 -10.707,-5.043 -5.039,5.043 -5.668,16.375 -5.039,5.039 10.707,10.7071 5.039,5.0429 0,10.7071 5.668,0 5.039,10.707 -111.493,127.242 -186.449,-105.824 0,-16.3789 -5.039,-5.0391 0,-26.457 -5.668,-5.0391 -5.039,-5.668 -10.711,0 -10.707,10.7071 10.707,26.457 0,10.7109 10.711,15.7461 -5.672,32.125 175.742,90.074 -58.578,52.914 -10.711,-10.711 -5.039,-10.078 -10.707,-10.707 -21.418,15.746 0,5.039 5.672,10.711 15.746,5.668 5.039,15.746 26.457,20.789 64.25,-57.953 0,90.078" /><path
         id="path164"
         style="fill:none;stroke:#000000;stroke-width:4.72424984;stroke-linecap:butt;stroke-linejoin:miter;stroke-miterlimit:10;stroke-dasharray:none;stroke-opacity:1"
         d="m 348.73,370.855 5.04,-116.531 138.578,52.91 10.707,-5.039 5.039,-37.164 -10.707,0 0,-16.375 -5.039,-10.711 -5.672,0 -10.707,5.672 -5.039,10.707 0,10.707 -106.453,-42.832 95.746,-105.824 5.668,-42.832 -5.668,-15.75 0,-10.7071 -5.039,-15.7461 -5.672,-5.6679 -5.039,0 -10.707,-5.043 -5.039,5.043 -5.668,16.375 -5.039,5.039 10.707,10.7071 5.039,5.0429 0,10.7071 5.668,0 5.039,10.707 -111.493,127.242 -186.449,-105.824 0,-16.3789 -5.039,-5.0391 0,-26.457 -5.668,-5.0391 -5.039,-5.668 -10.711,0 -10.707,10.7071 10.707,26.457 0,10.7109 10.711,15.7461 -5.672,32.125 175.742,90.074 -58.578,52.914 -10.711,-10.711 -5.039,-10.078 -10.707,-10.707 -21.418,15.746 0,5.039 5.672,10.711 15.746,5.668 5.039,15.746 26.457,20.789 64.25,-57.953 0,90.078 37.164,10.707 z" /><path
         id="path166"
         style="fill:#fec1a9;fill-opacity:1;fill-rule:evenodd;stroke:none"
         d="m 598.801,720.449 37.164,21.418 0,21.414 21.414,15.75 5.672,0 0,-15.75 25.824,10.711 22.047,5.039 5.039,-15.75 -5.039,-5.039 0,-47.871 -42.832,-15.746 -10.711,0 -15.746,-10.711" /><path
         id="path168"
         style="fill:none;stroke:#000000;stroke-width:4.72424984;stroke-linecap:butt;stroke-linejoin:miter;stroke-miterlimit:10;stroke-dasharray:none;stroke-opacity:1"
         d="m 598.801,720.449 37.164,21.418 0,21.414 21.414,15.75 5.672,0 0,-15.75 25.824,10.711 22.047,5.039 5.039,-15.75 -5.039,-5.039 0,-47.871 -42.832,-15.746 -10.711,0 -15.746,-10.711 -42.832,36.535 z" /><path
         id="path170"
         style="fill:#fec1a9;fill-opacity:1;fill-rule:evenodd;stroke:none"
         d="m 418.02,1192.88 0,-57.95 15.746,-37.17 -5.039,-10.71 -10.707,0 0,-21.41 -10.711,0 5.039,-5.68 -5.039,-20.78 -5.039,-16.38 -10.707,-5.04 -16.379,0 -21.414,-15.74 -20.79,-37.168 -85.664,74.328 42.832,175.11" /><path
         id="path172"
         style="fill:#fec1a9;fill-opacity:1;fill-rule:evenodd;stroke:none"
         d="m 418.02,1192.88 0,-57.95 15.746,-37.17 -5.039,-10.71 -10.707,0 0,-21.41 -10.711,0 5.039,-5.68 -5.039,-20.78 -5.039,-16.38 -10.707,-5.04 -16.379,0 -21.414,-15.74 -20.79,-37.168 -85.664,74.328 42.832,175.11" /><path
         id="path174"
         style="fill:none;stroke:#000000;stroke-width:4.72424984;stroke-linecap:butt;stroke-linejoin:miter;stroke-miterlimit:10;stroke-dasharray:none;stroke-opacity:1"
         d="m 418.02,1192.88 0,-57.95 15.746,-37.17 -5.039,-10.71 -10.707,0 0,-21.41 -10.711,0 5.039,-5.68 -5.039,-20.78 -5.039,-16.38 -10.707,-5.04 -16.379,0 -21.414,-15.74 -20.79,-37.168 -85.664,74.328 42.832,175.11 127.872,-21.41 z" /><path
         id="path176"
         style="fill:#222222;fill-opacity:1;fill-rule:evenodd;stroke:none"
         d="m 338.02,1108.47 -16.375,-16.38 -15.75,-42.2 -47.872,-10.71 -20.785,5.04 -27.086,37.16 0,95.75 27.086,47.87 36.532,26.46 59.21,0 58.583,-15.75 15.746,-10.71 26.457,-26.46 0,-16.37 -37.164,-10.71 -26.457,5.67 -5.668,-26.46 5.668,-42.2 -21.415,-10.71 -5.039,5.04" /><path
         id="path178"
         style="fill:none;stroke:#b6b69c;stroke-width:4.72424984;stroke-linecap:butt;stroke-linejoin:miter;stroke-miterlimit:10;stroke-dasharray:none;stroke-opacity:1"
         d="m 338.02,1108.47 -16.375,-16.38 -15.75,-42.2 -47.872,-10.71 -20.785,5.04 -27.086,37.16 0,95.75 27.086,47.87 36.532,26.46 59.21,0 58.583,-15.75 15.746,-10.71 26.457,-26.46 0,-16.37 -37.164,-10.71 -26.457,5.67 -5.668,-26.46 5.668,-42.2 -21.415,-10.71 -5.039,5.04 -5.671,5.67 z" /><path
         id="path180"
         style="fill:#a4a484;fill-opacity:1;fill-rule:evenodd;stroke:none"
         d="m 598.801,476.68 -234.324,-84.407 32.125,116.532 -32.125,63.617 154.324,10.711 106.453,0 69.289,5.039 21.418,-10.078 10.707,-37.797 0,-57.949 -10.707,-100.785 5.039,-116.532 -26.457,-5.668 -26.453,-10.707 -74.328,10.707 15.746,201.567 -10.707,21.418" /><path
         id="path182"
         style="fill:#a4a484;fill-opacity:1;fill-rule:evenodd;stroke:none"
         d="m 598.801,476.68 -234.324,-84.407 32.125,116.532 -32.125,63.617 154.324,10.711 106.453,0 69.289,5.039 21.418,-10.078 10.707,-37.797 0,-57.949 -10.707,-100.785 5.039,-116.532 -26.457,-5.668 -26.453,-10.707 -74.328,10.707 15.746,201.567 -10.707,21.418" /><path
         id="path184"
         style="fill:none;stroke:#000000;stroke-width:4.72424984;stroke-linecap:butt;stroke-linejoin:miter;stroke-miterlimit:10;stroke-dasharray:none;stroke-opacity:1"
         d="m 598.801,476.68 -234.324,-84.407 32.125,116.532 -32.125,63.617 154.324,10.711 106.453,0 69.289,5.039 21.418,-10.078 10.707,-37.797 0,-57.949 -10.707,-100.785 5.039,-116.532 -26.457,-5.668 -26.453,-10.707 -74.328,10.707 15.746,201.567 -10.707,21.418" /><path
         id="path186"
         style="fill:#fefefe;fill-opacity:1;fill-rule:evenodd;stroke:none"
         d="m 210.152,1017.76 10.707,21.42 16.379,5.04 20.785,-5.04 21.418,-10.71 16.375,-10.71 20.789,-31.494 10.708,-42.832 -5.668,-47.871 -10.079,27.085 -95.746,26.454" /><path
         id="path188"
         style="fill:none;stroke:#000000;stroke-width:4.72424984;stroke-linecap:butt;stroke-linejoin:miter;stroke-miterlimit:10;stroke-dasharray:none;stroke-opacity:1"
         d="m 210.152,1017.76 10.707,21.42 16.379,5.04 20.785,-5.04 21.418,-10.71 16.375,-10.71 20.789,-31.494 10.708,-42.832 -5.668,-47.871 -10.079,27.085 -95.746,26.454 -5.668,68.658 z" /><path
         id="path190"
         style="fill:#b6b69c;fill-opacity:1;fill-rule:evenodd;stroke:none"
         d="m 215.82,1033.51 26.457,-10.71 21.414,-5.04 26.457,-20.783 10.707,-10.711 10.711,-21.414 15.747,-15.75 16.378,-21.414 10.079,-137.95 37.793,-90.074 42.203,-79.367 32.125,-80 0,-42.203 -16.379,-42.203 -10.078,-37.164 -5.668,-21.414 -10.707,-26.458 -69.289,-21.417 -42.204,-10.708 -101.414,143.618 -42.203,90.074 -74.9607,95.117 5.6719,64.25 5.0388,90.074 5.668,90.075 5.039,31.496 16.379,32.125 15.746,26.461 32.125,15.74 10.078,5.04" /><path
         id="path192"
         style="fill:none;stroke:#000000;stroke-width:4.72424984;stroke-linecap:butt;stroke-linejoin:miter;stroke-miterlimit:10;stroke-dasharray:none;stroke-opacity:1"
         d="m 215.82,1033.51 26.457,-10.71 21.414,-5.04 26.457,-20.783 10.707,-10.711 10.711,-21.414 15.747,-15.75 16.378,-21.414 10.079,-137.95 37.793,-90.074 42.203,-79.367 32.125,-80 0,-42.203 -16.379,-42.203 -10.078,-37.164 -5.668,-21.414 -10.707,-26.458 -69.289,-21.417 -42.204,-10.708 -101.414,143.618 -42.203,90.074 -74.9607,95.117 5.6719,64.25 5.0388,90.074 5.668,90.075 5.039,31.496 16.379,32.125 15.746,26.461 32.125,15.74 10.078,5.04 27.086,10.71 z" /><path
         id="path194"
         style="fill:#b6b69c;fill-opacity:1;fill-rule:evenodd;stroke:none"
         d="m 332.98,927.688 -48.5,-42.204 -5.039,-27.086 -5.671,-36.535 -5.04,-32.125 15.75,-69.289 42.833,-36.535 47.871,-26.453 69.289,-26.457 69.289,-16.379 90.707,32.125 58.582,37.164 -27.086,31.496 -26.457,16.379 -101.414,-27.086 -15.746,15.746 -26.457,0 -37.164,64.25 -26.457,47.871 -16.375,31.496 -10.711,37.164 -10.707,10.708" /><path
         id="path196"
         style="fill:none;stroke:#000000;stroke-width:4.72424984;stroke-linecap:butt;stroke-linejoin:miter;stroke-miterlimit:10;stroke-dasharray:none;stroke-opacity:1"
         d="m 332.98,927.688 -48.5,-42.204 -5.039,-27.086 -5.671,-36.535 -5.04,-32.125 15.75,-69.289 42.833,-36.535 47.871,-26.453 69.289,-26.457 69.289,-16.379 90.707,32.125 58.582,37.164 -27.086,31.496 -26.457,16.379 -101.414,-27.086 -15.746,15.746 -26.457,0 -37.164,64.25 -26.457,47.871 -16.375,31.496 -10.711,37.164 -10.707,10.708 -31.497,15.75 z" /><path
         id="path198"
         style="fill:#008077;fill-opacity:1;fill-rule:evenodd;stroke:none"
         d="m 40.0781,784.699 32.125,-47.871 74.3279,-32.125 100.785,-222.355 37.164,-58.582 37.165,-85.036 -69.29,0 L 146.531,402.98 7.95313,784.699" /><path
         id="path200"
         style="fill:none;stroke:#000000;stroke-width:4.72424984;stroke-linecap:butt;stroke-linejoin:miter;stroke-miterlimit:10;stroke-dasharray:none;stroke-opacity:1"
         d="m 40.0781,784.699 32.125,-47.871 74.3279,-32.125 100.785,-222.355 37.164,-58.582 37.165,-85.036 -69.29,0 L 146.531,402.98 7.95313,784.07" /><path
         id="path202"
         style="fill:none;stroke:#000000;stroke-width:4.72424984;stroke-linecap:butt;stroke-linejoin:miter;stroke-miterlimit:10;stroke-dasharray:none;stroke-opacity:1"
         d="m 7.95313,784.699 32.12497,0" /><g
         transform="scale(10,10)"
         id="g204"><text
           id="text206"
           style="font-variant:normal;font-weight:normal;font-size:32.12490082px;font-family:Helvetica;-inkscape-font-specification:Helvetica;writing-mode:lr-tb;fill:#000000;fill-opacity:1;fill-rule:nonzero;stroke:none"
           transform="matrix(1,0,0,-1,127.468,18.5664)"><tspan
             id="tspan208"
             y="0"
             x="0 17.861444 26.792166 35.722889 53.584332 62.515057 71.445778 80.376503 103.57068 126.76485 149.95903 158.88976 176.75121 192.81364 210.67509 219.60582 237.46725 255.3287 273.19016 282.12088 298.18332">http://www.pku.edu.cn</tspan></text>
</g><path
         id="path210"
         style="fill:#b6b695;fill-opacity:1;fill-rule:evenodd;stroke:none"
         d="m 4022.94,2089.85 505.18,0 0,1079.02 -505.18,0 0,-1079.02 z" /><path
         id="path212"
         style="fill:none;stroke:#000000;stroke-width:4.72424984;stroke-linecap:butt;stroke-linejoin:miter;stroke-miterlimit:10;stroke-dasharray:none;stroke-opacity:1"
         d="m 4022.94,2089.85 505.18,0 0,1079.02 -505.18,0 0,-1079.02 z" /><path
         id="path214"
         style="fill:none;stroke:#494936;stroke-width:4.72424984;stroke-linecap:butt;stroke-linejoin:miter;stroke-miterlimit:10;stroke-dasharray:none;stroke-opacity:1"
         d="m 4022.94,2089.85 505.18,0 0,1079.02 -505.18,0 0,-1079.02 z" /><path
         id="path216"
         style="fill:#c8c8b5;fill-opacity:1;fill-rule:evenodd;stroke:none"
         d="m 4022.94,3168.87 96.37,95.75 487.54,0 -78.73,-95.75" /><path
         id="path218"
         style="fill:none;stroke:#000000;stroke-width:4.72424984;stroke-linecap:butt;stroke-linejoin:miter;stroke-miterlimit:10;stroke-dasharray:none;stroke-opacity:1"
         d="m 4022.94,3168.87 96.37,95.75 487.54,0 -78.73,-95.75 -505.18,0 z" /><path
         id="path220"
         style="fill:none;stroke:#494936;stroke-width:4.72424984;stroke-linecap:butt;stroke-linejoin:miter;stroke-miterlimit:10;stroke-dasharray:none;stroke-opacity:1"
         d="m 4022.94,3168.87 96.37,95.75 487.54,0 -78.73,-95.75 -505.18,0 z" /><path
         id="path222"
         style="fill:#7a7a5a;fill-opacity:1;fill-rule:evenodd;stroke:none"
         d="m 4528.12,2089.85 78.73,149.92 0,1024.85 -78.73,-95.75 0,-1078.39" /><path
         id="path224"
         style="fill:none;stroke:#000000;stroke-width:4.72424984;stroke-linecap:butt;stroke-linejoin:miter;stroke-miterlimit:10;stroke-dasharray:none;stroke-opacity:1"
         d="m 4528.12,2089.85 78.73,149.92 0,1024.85 -78.73,-95.75 0,-1079.02 z" /><path
         id="path226"
         style="fill:none;stroke:#494936;stroke-width:4.72424984;stroke-linecap:butt;stroke-linejoin:miter;stroke-miterlimit:10;stroke-dasharray:none;stroke-opacity:1"
         d="m 4528.12,2089.85 78.73,149.92 0,1024.85 -78.73,-95.75 0,-1078.39" /><path
         id="path228"
         style="fill:#b6b695;fill-opacity:1;fill-rule:evenodd;stroke:none"
         d="m 4568.43,2041.98 -40.31,47.87 -505.18,0 -48.51,-47.87" /><path
         id="path230"
         style="fill:none;stroke:#000000;stroke-width:4.72424984;stroke-linecap:butt;stroke-linejoin:miter;stroke-miterlimit:10;stroke-dasharray:none;stroke-opacity:1"
         d="m 4568.43,2041.98 -40.31,47.87 -505.18,0 -48.51,-47.87 594,0 z" /><path
         id="path232"
         style="fill:none;stroke:#494936;stroke-width:4.72424984;stroke-linecap:butt;stroke-linejoin:miter;stroke-miterlimit:10;stroke-dasharray:none;stroke-opacity:1"
         d="m 4568.43,2041.98 -40.31,47.87 -505.18,0 -48.51,-47.87 594,0 z" /><path
         id="path234"
         style="fill:#b6b695;fill-opacity:1;fill-rule:evenodd;stroke:none"
         d="m 4568.43,2041.98 78.74,167.56 -40.32,30.23 -78.73,-149.92" /><path
         id="path236"
         style="fill:none;stroke:#000000;stroke-width:4.72424984;stroke-linecap:butt;stroke-linejoin:miter;stroke-miterlimit:10;stroke-dasharray:none;stroke-opacity:1"
         d="m 4568.43,2041.98 78.74,167.56 -40.32,30.23 -78.73,-149.92 40.31,-47.87 z" /><path
         id="path238"
         style="fill:none;stroke:#494936;stroke-width:4.72424984;stroke-linecap:butt;stroke-linejoin:miter;stroke-miterlimit:10;stroke-dasharray:none;stroke-opacity:1"
         d="m 4568.43,2041.98 78.74,167.56 -40.32,30.23 -78.73,-149.92 40.31,-47.87 z" /><path
         id="path240"
         style="fill:#b6b695;fill-opacity:1;fill-rule:evenodd;stroke:none"
         d="m 4528.12,2089.85 -505.18,0" /><path
         id="path242"
         style="fill:none;stroke:#494936;stroke-width:4.72424984;stroke-linecap:butt;stroke-linejoin:miter;stroke-miterlimit:10;stroke-dasharray:none;stroke-opacity:1"
         d="m 4528.12,2089.85 -505.18,0" /><path
         id="path244"
         style="fill:#b6b695;fill-opacity:1;fill-rule:evenodd;stroke:none"
         d="m 4606.85,2239.77 -78.73,-149.92" /><path
         id="path246"
         style="fill:none;stroke:#494936;stroke-width:4.72424984;stroke-linecap:butt;stroke-linejoin:miter;stroke-miterlimit:10;stroke-dasharray:none;stroke-opacity:1"
         d="m 4606.85,2239.77 -78.73,-149.92" /><path
         id="path248"
         style="fill:#b6b695;fill-opacity:1;fill-rule:evenodd;stroke:none"
         d="m 4022.94,3119.11 503.29,0" /><path
         id="path250"
         style="fill:none;stroke:#494936;stroke-width:4.72424984;stroke-linecap:butt;stroke-linejoin:miter;stroke-miterlimit:10;stroke-dasharray:none;stroke-opacity:1"
         d="m 4022.94,3119.11 503.29,0" /><path
         id="path252"
         style="fill:#b6b695;fill-opacity:1;fill-rule:evenodd;stroke:none"
         d="m 4022.3,3112.81 503.93,0" /><path
         id="path254"
         style="fill:none;stroke:#494936;stroke-width:4.72424984;stroke-linecap:butt;stroke-linejoin:miter;stroke-miterlimit:10;stroke-dasharray:none;stroke-opacity:1"
         d="m 4022.3,3112.81 503.93,0" /><path
         id="path256"
         style="fill:#b6b695;fill-opacity:1;fill-rule:evenodd;stroke:none"
         d="m 4423.55,2983.68 -366.6,0 0,-34.02 67.4,0" /><path
         id="path258"
         style="fill:none;stroke:#494936;stroke-width:4.72424984;stroke-linecap:butt;stroke-linejoin:miter;stroke-miterlimit:10;stroke-dasharray:none;stroke-opacity:1"
         d="m 4423.55,2983.68 -366.6,0 0,-34.02 67.4,0" /><path
         id="path260"
         style="fill:#b6b695;fill-opacity:1;fill-rule:evenodd;stroke:none"
         d="m 4423.55,2921.32 -366.6,0 0,-34.02 67.4,0" /><path
         id="path262"
         style="fill:none;stroke:#494936;stroke-width:4.72424984;stroke-linecap:butt;stroke-linejoin:miter;stroke-miterlimit:10;stroke-dasharray:none;stroke-opacity:1"
         d="m 4423.55,2921.32 -366.6,0 0,-34.02 67.4,0" /><path
         id="path264"
         style="fill:#b6b695;fill-opacity:1;fill-rule:evenodd;stroke:none"
         d="m 4423.55,2858.33 -366.6,0 0,-34.01 67.4,0" /><path
         id="path266"
         style="fill:none;stroke:#494936;stroke-width:4.72424984;stroke-linecap:butt;stroke-linejoin:miter;stroke-miterlimit:10;stroke-dasharray:none;stroke-opacity:1"
         d="m 4423.55,2858.33 -366.6,0 0,-34.01 67.4,0" /><path
         id="path268"
         style="fill:#b6b695;fill-opacity:1;fill-rule:evenodd;stroke:none"
         d="m 4423.55,2795.97 -366.6,0 0,-34.01 67.4,0" /><path
         id="path270"
         style="fill:none;stroke:#494936;stroke-width:4.72424984;stroke-linecap:butt;stroke-linejoin:miter;stroke-miterlimit:10;stroke-dasharray:none;stroke-opacity:1"
         d="m 4423.55,2795.97 -366.6,0 0,-34.01 67.4,0" /><path
         id="path272"
         style="fill:#b6b695;fill-opacity:1;fill-rule:evenodd;stroke:none"
         d="m 4423.55,2732.98 -366.6,0 0,-33.39 67.4,0" /><path
         id="path274"
         style="fill:none;stroke:#494936;stroke-width:4.72424984;stroke-linecap:butt;stroke-linejoin:miter;stroke-miterlimit:10;stroke-dasharray:none;stroke-opacity:1"
         d="m 4423.55,2732.98 -366.6,0 0,-33.39 67.4,0" /><path
         id="path276"
         style="fill:#b6b695;fill-opacity:1;fill-rule:evenodd;stroke:none"
         d="m 4423.55,2670.62 -366.6,0 0,-34.01 67.4,0" /><path
         id="path278"
         style="fill:none;stroke:#494936;stroke-width:4.72424984;stroke-linecap:butt;stroke-linejoin:miter;stroke-miterlimit:10;stroke-dasharray:none;stroke-opacity:1"
         d="m 4423.55,2670.62 -366.6,0 0,-34.01 67.4,0" /><path
         id="path280"
         style="fill:#b6b695;fill-opacity:1;fill-rule:evenodd;stroke:none"
         d="m 4423.55,2607.63 -366.6,0 0,-33.38 67.4,0" /><path
         id="path282"
         style="fill:none;stroke:#494936;stroke-width:4.72424984;stroke-linecap:butt;stroke-linejoin:miter;stroke-miterlimit:10;stroke-dasharray:none;stroke-opacity:1"
         d="m 4423.55,2607.63 -366.6,0 0,-33.38 67.4,0" /><path
         id="path284"
         style="fill:#b6b695;fill-opacity:1;fill-rule:evenodd;stroke:none"
         d="m 4423.55,2545.27 -366.6,0 0,-34.02 67.4,0" /><path
         id="path286"
         style="fill:none;stroke:#494936;stroke-width:4.72424984;stroke-linecap:butt;stroke-linejoin:miter;stroke-miterlimit:10;stroke-dasharray:none;stroke-opacity:1"
         d="m 4423.55,2545.27 -366.6,0 0,-34.02 67.4,0" /><path
         id="path288"
         style="fill:#b6b695;fill-opacity:1;fill-rule:evenodd;stroke:none"
         d="m 4423.55,2482.91 -366.6,0 0,-34.02 67.4,0" /><path
         id="path290"
         style="fill:none;stroke:#494936;stroke-width:4.72424984;stroke-linecap:butt;stroke-linejoin:miter;stroke-miterlimit:10;stroke-dasharray:none;stroke-opacity:1"
         d="m 4423.55,2482.91 -366.6,0 0,-34.02 67.4,0" /><path
         id="path292"
         style="fill:#b6b695;fill-opacity:1;fill-rule:evenodd;stroke:none"
         d="m 4423.55,2419.92 -366.6,0 0,-33.38 67.4,0" /><path
         id="path294"
         style="fill:none;stroke:#494936;stroke-width:4.72424984;stroke-linecap:butt;stroke-linejoin:miter;stroke-miterlimit:10;stroke-dasharray:none;stroke-opacity:1"
         d="m 4423.55,2419.92 -366.6,0 0,-33.38 67.4,0" /><path
         id="path296"
         style="fill:#b6b695;fill-opacity:1;fill-rule:evenodd;stroke:none"
         d="m 4423.55,2357.56 -366.6,0 0,-34.01 67.4,0" /><path
         id="path298"
         style="fill:none;stroke:#494936;stroke-width:4.72424984;stroke-linecap:butt;stroke-linejoin:miter;stroke-miterlimit:10;stroke-dasharray:none;stroke-opacity:1"
         d="m 4423.55,2357.56 -366.6,0 0,-34.01 67.4,0" /><path
         id="path300"
         style="fill:#b6b695;fill-opacity:1;fill-rule:evenodd;stroke:none"
         d="m 4423.55,2294.57 -366.6,0 0,-33.39 67.4,0" /><path
         id="path302"
         style="fill:none;stroke:#494936;stroke-width:4.72424984;stroke-linecap:butt;stroke-linejoin:miter;stroke-miterlimit:10;stroke-dasharray:none;stroke-opacity:1"
         d="m 4423.55,2294.57 -366.6,0 0,-33.39 67.4,0" /><path
         id="path304"
         style="fill:#b6b695;fill-opacity:1;fill-rule:evenodd;stroke:none"
         d="m 4423.55,2232.21 -366.6,0 0,-34.01 67.4,0" /><path
         id="path306"
         style="fill:none;stroke:#494936;stroke-width:4.72424984;stroke-linecap:butt;stroke-linejoin:miter;stroke-miterlimit:10;stroke-dasharray:none;stroke-opacity:1"
         d="m 4423.55,2232.21 -366.6,0 0,-34.01 67.4,0" /><path
         id="path308"
         style="fill:#b6b695;fill-opacity:1;fill-rule:evenodd;stroke:none"
         d="m 4423.55,2169.85 -366.6,0 0,-34.01 67.4,0" /><path
         id="path310"
         style="fill:none;stroke:#494936;stroke-width:4.72424984;stroke-linecap:butt;stroke-linejoin:miter;stroke-miterlimit:10;stroke-dasharray:none;stroke-opacity:1"
         d="m 4423.55,2169.85 -366.6,0 0,-34.01 67.4,0" /><g
         transform="scale(10,10)"
         id="g312"><text
           id="text314"
           style="font-variant:normal;font-weight:normal;font-size:32.12488937px;font-family:Helvetica;-inkscape-font-specification:Helvetica;writing-mode:lr-tb;fill:#000000;fill-opacity:1;fill-rule:nonzero;stroke:none"
           transform="matrix(0.866025,0.5,0.5,-0.866025,128.287,165.207)"><tspan
             id="tspan316"
             y="0"
             x="0 23.19417 46.38834 69.582512 78.513229 96.374664 112.43711 130.29855 139.22926 157.09071 174.95215 192.81358 201.74431 217.80675">www.pku.edu.cn</tspan><tspan
             id="tspan318"
             y="74.827072"
             x="23.277693 41.13913 59.000568 76.862007 85.792725 103.65417 121.5156 139.37704 148.30775 166.1692 184.03064 201.89207 210.8228 228.68423">162.105.129.12</tspan></text>
<text
           id="text320"
           style="font-variant:normal;font-weight:normal;font-size:21.73159981px;font-family:Helvetica;-inkscape-font-specification:Helvetica;writing-mode:lr-tb;fill:#000000;fill-opacity:1;fill-rule:nonzero;stroke:none"
           transform="matrix(1,0,0,-1,475.11,309.328)"><tspan
             id="tspan322"
             y="0"
             x="0 14.494977 28.989954 44.680168 50.721554 66.411766 82.101982 96.596962 102.63834 117.13332 129.21609 136.45271 147.31851 159.40129">PKU DNS Server</tspan><tspan
             id="tspan324"
             y="31.179701"
             x="0 6.0413847 20.536362 26.577747 32.619133 44.7019 56.784672 68.867439 74.908829 86.991592 99.074364 111.15714 117.19852 129.2813 141.36406 153.44682 159.4882 171.57098">IP: 162.105.129.27</tspan><tspan
             id="tspan326"
             y="62.359798"
             x="2.8343799 17.329357 29.412127 36.64875 42.690136 48.731518 54.772903 66.855675 78.938446 84.979828 100.67004 116.36026">Port: 53/UDP</tspan></text>
</g><path
         id="path328"
         style="fill:#c8c8b5;fill-opacity:1;fill-rule:evenodd;stroke:none"
         d="m 4919.91,275.738 93.86,88.188 701.08,0 -93.86,-88.188" /><path
         id="path330"
         style="fill:none;stroke:#494936;stroke-width:4.72424984;stroke-linecap:butt;stroke-linejoin:miter;stroke-miterlimit:10;stroke-dasharray:none;stroke-opacity:1"
         d="m 4919.91,275.738 93.86,88.188 701.08,0 -93.86,-88.188 -701.08,0 z" /><path
         id="path332"
         style="fill:#b6b69c;fill-opacity:1;fill-rule:evenodd;stroke:none"
         d="m 4919.91,144.09 701.078,0 0,131.648 -701.078,0 0,-131.648 z" /><path
         id="path334"
         style="fill:none;stroke:#494936;stroke-width:4.72424984;stroke-linecap:butt;stroke-linejoin:miter;stroke-miterlimit:10;stroke-dasharray:none;stroke-opacity:1"
         d="m 4919.91,144.09 701.078,0 0,131.648 -701.078,0 0,-131.648 z" /><path
         id="path336"
         style="fill:#7a7a5a;fill-opacity:1;fill-rule:evenodd;stroke:none"
         d="m 5620.99,144.09 93.86,93.226 0,126.61 -93.86,-88.188" /><path
         id="path338"
         style="fill:none;stroke:#494936;stroke-width:4.72424984;stroke-linecap:butt;stroke-linejoin:miter;stroke-miterlimit:10;stroke-dasharray:none;stroke-opacity:1"
         d="m 5620.99,144.09 93.86,93.226 0,126.61 -93.86,-88.188 0,-131.648 z" /><path
         id="path340"
         style="fill:#000000;fill-opacity:1;fill-rule:evenodd;stroke:none"
         d="m 4941.96,292.117 71.81,71.809 684.7,0 -71.81,-71.809" /><path
         id="path342"
         style="fill:none;stroke:#000000;stroke-width:4.72424984;stroke-linecap:butt;stroke-linejoin:miter;stroke-miterlimit:10;stroke-dasharray:none;stroke-opacity:1"
         d="m 4941.96,292.117 71.81,71.809 684.7,0 -71.81,-71.809 -684.7,0 z" /><path
         id="path344"
         style="fill:#c8c8b5;fill-opacity:1;fill-rule:evenodd;stroke:none"
         d="m 4919.91,857.77 76.85,71.175 701.71,0 -77.48,-71.175" /><path
         id="path346"
         style="fill:none;stroke:#494936;stroke-width:4.72424984;stroke-linecap:butt;stroke-linejoin:miter;stroke-miterlimit:10;stroke-dasharray:none;stroke-opacity:1"
         d="m 4919.91,857.77 76.85,71.175 701.71,0 -77.48,-71.175 -701.08,0 z" /><path
         id="path348"
         style="fill:#b6b69c;fill-opacity:1;fill-rule:evenodd;stroke:none"
         d="m 4919.91,303.457 706.746,0 0,554.313 -706.746,0 0,-554.313 z" /><path
         id="path350"
         style="fill:none;stroke:#494936;stroke-width:4.72424984;stroke-linecap:butt;stroke-linejoin:miter;stroke-miterlimit:10;stroke-dasharray:none;stroke-opacity:1"
         d="m 4919.91,303.457 706.117,0 0,554.313 -706.117,0 0,-554.313 z" /><path
         id="path352"
         style="fill:#5a777a;fill-opacity:1;fill-rule:evenodd;stroke:none"
         d="m 4980.38,358.258 585.18,0 0,427.703 -585.18,0 0,-427.703 z" /><path
         id="path354"
         style="fill:none;stroke:#494936;stroke-width:4.72424984;stroke-linecap:butt;stroke-linejoin:miter;stroke-miterlimit:10;stroke-dasharray:none;stroke-opacity:1"
         d="m 4980.38,358.887 585.18,0 0,427.074 -585.18,0 0,-427.074 z" /><path
         id="path356"
         style="fill:#7a7a5a;fill-opacity:1;fill-rule:evenodd;stroke:none"
         d="m 5620.99,308.496 77.48,76.848 0,543.601 -77.48,-71.175" /><path
         id="path358"
         style="fill:none;stroke:#494936;stroke-width:4.72424984;stroke-linecap:butt;stroke-linejoin:miter;stroke-miterlimit:10;stroke-dasharray:none;stroke-opacity:1"
         d="m 5620.99,308.496 77.48,76.848 0,543.601 -77.48,-71.175 0,-549.274 z" /><path
         id="path360"
         style="fill:#c8c8b5;fill-opacity:1;fill-rule:evenodd;stroke:none"
         d="m 4781.96,34.4883 110.24,136.6877 762.18,0 -110.86,-136.6877" /><path
         id="path362"
         style="fill:none;stroke:#494936;stroke-width:4.72424984;stroke-linecap:butt;stroke-linejoin:miter;stroke-miterlimit:10;stroke-dasharray:none;stroke-opacity:1"
         d="m 4781.96,34.4883 110.24,136.6877 762.18,0 -110.86,-136.6877 -761.56,0 z" /><path
         id="path364"
         style="fill:#7a7a5a;fill-opacity:1;fill-rule:evenodd;stroke:none"
         d="m 5543.52,7.40234 110.86,114.64066 0,49.133 -110.86,-136.6877" /><path
         id="path366"
         style="fill:none;stroke:#494936;stroke-width:4.72424984;stroke-linecap:butt;stroke-linejoin:miter;stroke-miterlimit:10;stroke-dasharray:none;stroke-opacity:1"
         d="m 5543.52,7.40234 110.86,114.64066 0,49.133 -110.86,-136.6877 0,-27.08596 z" /><path
         id="path368"
         style="fill:#b6b69c;fill-opacity:1;fill-rule:evenodd;stroke:none"
         d="m 4781.96,7.40234 761.551,0 0,27.0859 -761.551,0 0,-27.0859 z" /><path
         id="path370"
         style="fill:none;stroke:#494936;stroke-width:4.72424984;stroke-linecap:butt;stroke-linejoin:miter;stroke-miterlimit:10;stroke-dasharray:none;stroke-opacity:1"
         d="m 4781.96,7.40234 761.551,0 0,27.0859 -761.551,0 0,-27.0859 z" /><path
         id="path372"
         style="fill:#e6ebeb;fill-opacity:1;fill-rule:evenodd;stroke:none"
         d="m 5411.23,665.648 0,3.149 -0.62,3.781 -0.63,3.149 -1.27,3.148 -1.25,3.152 -1.89,3.149 -1.89,3.148 -1.89,3.149 -2.52,3.152 -2.52,3.148 -2.52,3.149 -3.78,2.519 -3.15,2.52 -3.15,2.519 -3.78,2.52 -4.41,2.52 -4.41,1.89 -4.41,1.891 -4.41,1.89 -5.03,2.52 -5.04,1.887 -5.04,1.261 -5.04,1.258 -5.67,1.262 -5.04,1.258 -5.67,0.633 -5.67,0.628 -5.04,0.629 -6.3,0.629 -5.67,0 -5.66,0.633 -5.68,-0.633 -5.66,0 -5.67,-0.629 -5.67,-0.629 -5.67,-0.628 -5.67,-0.633 -5.04,-1.258 -5.67,-1.262 -5.04,-1.258 -5.04,-1.261 -4.41,-1.887 -5.67,-2.52 -4.4,-1.89 -4.41,-1.891 -4.41,-1.89 -3.78,-2.52 -3.78,-2.52 -3.78,-2.519 -3.15,-2.52 -3.15,-2.519 -3.15,-3.149 -2.52,-3.148 -2.52,-3.152 -1.89,-3.149 -1.89,-3.148 -1.89,-3.149 -1.26,-3.152 -0.63,-3.148 -1.26,-3.149 0,-13.859 1.26,-3.149 0.63,-3.148 1.26,-3.152 1.89,-3.778 1.89,-3.148 1.89,-2.52 2.52,-3.152 2.52,-3.149 3.15,-2.519 3.15,-3.149 3.15,-2.519 3.78,-2.52 3.78,-2.519 3.78,-2.52 4.41,-1.89 4.41,-1.891 4.4,-2.519 5.67,-1.891 4.41,-1.887 5.04,-1.261 5.04,-1.258 5.67,-1.262 5.04,-1.258 5.67,-0.633 5.67,-0.629 5.67,-0.628 5.67,-0.629 5.66,-0.633 11.34,0 5.67,0.633 6.3,0.629 5.04,0.628 5.67,0.629 5.67,0.633 5.04,1.258 5.67,1.262 5.04,1.258 5.04,1.261 5.04,1.887 5.03,1.891 4.41,2.519 4.41,1.891 4.41,1.89 4.41,2.52 3.78,2.519 3.15,2.52 3.15,2.519 3.78,3.149 2.52,2.519 2.52,3.149 2.52,3.152 1.89,2.52 1.89,3.148 1.89,3.778 1.25,3.152 1.27,3.148 0.63,3.149 0.62,3.781" /><path
         id="path374"
         style="fill:#e6ebeb;fill-opacity:1;fill-rule:evenodd;stroke:none"
         d="m 5234.23,632.895 0,6.296 -0.62,3.153 -0.64,3.148 -1.26,3.778 -1.26,3.152 -1.25,3.148 -1.27,3.149 -2.52,3.148 -1.88,2.52 -1.89,3.152 -2.52,2.52 -2.52,2.519 -2.52,3.149 -3.15,1.89 -3.15,3.149 -3.15,1.89 -3.78,1.891 -3.15,1.887 -3.78,1.89 -3.15,1.891 -4.41,1.258 -3.78,1.89 -4.41,0.629 -3.78,1.262 -3.78,1.258 -4.41,0.633 -4.4,0.628 -4.41,0.629 -17.01,0 -4.41,-0.629 -4.41,-0.628 -4.41,-0.633 -3.78,-1.258 -3.78,-1.262 -4.41,-0.629 -3.78,-1.89 -3.77,-1.258 -3.79,-1.891 -3.77,-1.89 -3.16,-1.887 -3.77,-1.891 -3.15,-1.89 -3.15,-3.149 -2.52,-1.89 -3.15,-3.149 -2.52,-2.519 -2.52,-2.52 -1.89,-3.152 -1.89,-2.52 -1.89,-3.148 -1.89,-3.149 -1.26,-3.148 -1.26,-3.152 -0.63,-3.778 -1.26,-3.148 -0.63,-3.153 0,-13.226 0.63,-3.149 1.26,-3.781 0.63,-3.148 1.26,-3.149 1.26,-3.152 1.89,-2.52 1.89,-3.777 1.89,-2.519 1.89,-3.153 2.52,-2.519 2.52,-3.149 3.15,-1.89 2.52,-2.52 3.15,-2.519 3.15,-2.52 3.77,-1.887 3.16,-1.89 3.77,-1.891 3.79,-1.891 3.77,-1.257 3.78,-1.891 4.41,-1.258 3.78,-1.262 3.78,0 4.41,-1.257 4.41,-0.633 8.82,0 3.78,-0.629 5.04,0.629 8.19,0 4.4,0.633 4.41,1.257 3.78,0 3.78,1.262 4.41,1.258 3.78,1.891 4.41,1.257 3.15,1.891 3.78,1.891 3.15,1.89 3.78,1.887 3.15,2.52 3.15,2.519 3.15,2.52 2.52,1.89 2.52,3.149 2.52,2.519 1.89,3.153 1.88,2.519 2.52,3.777 1.27,2.52 1.25,3.152 1.26,3.149 1.26,3.148 0.64,3.781 0.62,3.149 0,3.777" /><path
         id="path376"
         style="fill:#e6ebeb;fill-opacity:1;fill-rule:evenodd;stroke:none"
         d="m 5124,564.234 0,5.039 -0.63,2.52 -0.63,2.52 -0.63,2.519 -0.63,2.52 -1.26,2.519 -0.63,2.52 -1.26,2.519 -1.26,2.52 -1.89,1.89 -1.26,2.52 -1.88,1.89 -1.9,1.887 -1.89,1.891 -2.52,2.519 -1.89,1.262 -2.52,1.891 -2.52,1.886 -1.89,1.262 -2.52,1.258 -2.51,1.262 -3.15,1.257 -2.52,0.633 -2.52,1.258 -3.15,0 -2.52,1.262 -3.15,0 -3.15,0.629 -11.34,0 -3.15,-0.629 -2.52,0 -3.15,-1.262 -2.52,0 -3.15,-1.258 -2.51,-0.633 -3.15,-1.257 -2.52,-1.262 -2.53,-1.258 -2.52,-1.262 -1.88,-1.886 -2.52,-1.891 -2.52,-1.262 -1.89,-2.519 -1.89,-1.891 -1.89,-1.887 -1.89,-1.89 -1.26,-2.52 -1.89,-1.89 -1.26,-2.52 -1.26,-2.519 -0.63,-2.52 -1.26,-2.519 -0.63,-2.52 -0.63,-2.519 -0.63,-2.52 -0.63,-2.52 0,-10.707 0.63,-2.519 0.63,-2.52 0.63,-2.519 0.63,-2.52 1.26,-2.519 0.63,-2.52 1.26,-2.519 1.26,-1.891 1.89,-2.519 1.26,-2.52 1.89,-1.891 1.89,-2.519 1.89,-1.891 1.89,-1.258 2.52,-1.89 2.52,-1.891 1.88,-1.258 2.52,-1.261 2.53,-1.891 2.52,-1.258 3.15,-0.629 2.51,-1.261 3.15,-1.258 2.52,-0.633 3.15,-0.629 2.52,0 3.15,-0.629 11.34,0 3.15,0.629 3.15,0 2.52,0.629 3.15,0.633 2.52,1.258 2.52,1.261 3.15,0.629 2.51,1.258 2.52,1.891 1.89,1.261 2.52,1.258 2.52,1.891 1.89,1.89 2.52,1.258 1.89,1.891 1.9,2.519 1.88,1.891 1.26,2.52 1.89,2.519 1.26,1.891 1.26,2.519 0.63,2.52 1.26,2.519 0.63,2.52 0.63,2.519 0.63,2.52 0.63,2.519 0,2.52" /><path
         id="path378"
         style="fill:#e6ebeb;fill-opacity:1;fill-rule:evenodd;stroke:none"
         d="m 5217.86,515.102 -0.63,2.519 0,5.668 -1.26,3.152 -1.26,3.149 -1.26,2.519 -1.26,2.52 -1.26,2.519 -1.89,3.149 -2.52,2.519 -1.89,2.52 -2.52,2.519 -3.15,1.891 -2.52,2.52 -3.15,2.519 -2.52,1.891 -3.78,1.89 -3.15,1.887 -3.78,1.891 -3.78,1.261 -3.78,1.258 -3.78,1.262 -4.4,1.258 -4.41,1.262 -3.78,0.628 -4.41,1.262 -4.41,0.629 -4.41,0.629 -4.41,0 -4.41,0.629 -8.82,0 -4.41,-0.629 -5.04,0 -3.77,-0.629 -4.41,-0.629 -4.42,-1.262 -4.41,-0.628 -3.77,-1.262 -4.41,-1.258 -3.78,-1.262 -3.78,-1.258 -3.78,-1.261 -3.78,-1.891 -3.15,-1.887 -3.15,-1.89 -3.78,-1.891 -2.52,-2.519 -3.15,-2.52 -2.52,-1.891 -2.52,-2.519 -1.89,-2.52 -2.52,-2.519 -1.26,-3.149 -1.89,-2.519 -1.88,-2.52 -0.64,-2.519 -1.25,-3.149 -1.27,-3.152 0,-3.148 -0.63,-2.52 0,-5.668 0.63,-3.148 0,-2.52 1.27,-3.152 1.25,-2.52 0.64,-3.148 1.88,-3.149 1.89,-2.519 1.26,-2.52 2.52,-2.519 1.89,-2.52 2.52,-2.519 2.52,-1.891 3.15,-2.519 2.52,-1.891 3.78,-2.52 3.15,-1.89 3.15,-1.887 3.78,-1.891 3.78,-1.261 3.78,-1.887 3.78,-1.262 4.41,-1.257 3.77,-0.633 4.41,-1.258 4.42,-0.629 4.41,-0.633 3.77,-0.629 5.04,0 4.41,-0.629 8.82,0 4.41,0.629 4.41,0 4.41,0.629 4.41,0.633 4.41,0.629 3.78,1.258 4.41,0.633 4.4,1.257 3.78,1.262 3.78,1.887 3.78,1.261 3.78,1.891 3.15,1.887 3.78,1.89 2.52,2.52 3.15,1.891 2.52,2.519 3.15,1.891 2.52,2.519 1.89,2.52 2.52,2.519 1.89,2.52 1.26,2.519 1.26,3.149 1.26,3.148 1.26,2.52 1.26,3.152 0,5.668" /><path
         id="path380"
         style="fill:#e6ebeb;fill-opacity:1;fill-rule:evenodd;stroke:none"
         d="m 5432.65,487.387 0,3.148 -0.63,3.781 -0.63,3.149 -1.26,3.781 -1.26,3.149 -1.89,3.148 -2.52,3.148 -2.51,3.782 -2.52,3.148 -3.16,2.52 -3.14,3.148 -3.78,3.152 -4.41,2.52 -3.78,2.519 -4.41,2.52 -5.04,3.148 -5.04,1.891 -5.04,1.891 -5.67,2.519 -5.67,1.887 -5.04,1.891 -6.3,1.261 -6.29,1.887 -5.68,1.262 -6.29,0.629 -6.93,1.261 -6.3,0.629 -6.93,0.629 -6.93,0.629 -6.3,0 -6.3,0.633 -6.93,-0.633 -6.93,0 -6.93,-0.629 -6.29,-0.629 -6.3,-0.629 -6.3,-1.261 -6.93,-0.629 -5.67,-1.262 -6.3,-1.887 -6.29,-1.261 -5.68,-1.891 -5.04,-1.887 -5.66,-2.519 -5.67,-1.891 -5.04,-1.891 -4.41,-3.148 -4.41,-2.52 -4.41,-2.519 -3.78,-2.52 -3.78,-3.152 -3.15,-3.148 -3.15,-2.52 -3.15,-3.148 -2.52,-3.782 -1.89,-3.148 -1.89,-3.148 -1.26,-3.149 -1.88,-3.781 -0.64,-3.149 -0.63,-3.781 0,-6.93 0.63,-3.148 0.64,-3.777 1.88,-3.153 1.26,-3.148 1.89,-3.777 1.89,-3.153 2.52,-3.148 3.15,-3.149 3.15,-3.152 3.15,-3.148 3.78,-2.52 3.78,-3.148 4.41,-2.52 4.41,-2.519 4.41,-2.52 5.04,-2.52 5.67,-1.89 5.66,-2.52 5.04,-1.89 5.68,-1.258 6.29,-1.891 6.3,-1.258 5.67,-1.261 6.93,-1.258 6.3,-0.633 6.3,-1.258 6.29,-0.633 6.93,0 6.93,-0.628 13.23,0 6.3,0.628 6.93,0 6.93,0.633 6.3,1.258 6.93,0.633 6.29,1.258 5.68,1.261 6.29,1.258 6.3,1.891 5.04,1.258 5.67,1.89 5.67,2.52 5.04,1.89 5.04,2.52 5.04,2.52 4.41,2.519 3.78,2.52 4.41,3.148 3.78,2.52 3.14,3.148 3.16,3.152 2.52,3.149 2.51,3.148 2.52,3.153 1.89,3.777 1.26,3.148 1.26,3.153 0.63,3.777 0.63,3.148" /><path
         id="path382"
         style="fill:#e6ebeb;fill-opacity:1;fill-rule:evenodd;stroke:none"
         d="m 5505.09,643.602 0,2.519 -0.63,2.52 -0.63,2.519 -0.63,2.52 -1.26,2.519 -0.63,1.891 -1.89,2.519 -1.26,2.52 -1.89,1.891 -1.89,2.519 -2.52,1.887 -2.52,2.523 -2.52,1.887 -2.52,1.891 -3.14,1.89 -3.16,1.891 -3.14,1.258 -3.15,1.89 -3.78,1.258 -3.78,1.262 -3.15,1.258 -3.78,1.261 -4.41,1.258 -3.78,0.633 -4.41,1.258 -3.78,0 -4.41,1.261 -4.41,0 -3.78,0.629 -17.63,0 -4.41,-0.629 -4.41,0 -3.78,-1.261 -4.41,0 -3.78,-1.258 -3.78,-0.633 -4.41,-1.258 -3.78,-1.261 -3.78,-1.258 -3.78,-1.262 -3.15,-1.258 -3.78,-1.89 -2.52,-1.258 -3.14,-1.891 -3.16,-1.89 -2.52,-1.891 -2.52,-1.887 -2.52,-2.523 -2.52,-1.887 -1.88,-2.519 -1.89,-1.891 -1.26,-2.52 -1.26,-2.519 -1.89,-1.891 -0.63,-2.519 -0.63,-2.52 -0.63,-2.519 0,-2.52 -0.63,-2.519 0.63,-2.52 0,-2.519 0.63,-2.52 0.63,-2.52 0.63,-1.89 1.89,-3.149 1.26,-1.89 1.26,-2.52 1.89,-1.89 1.88,-2.52 2.52,-1.887 2.52,-2.519 2.52,-1.262 2.52,-2.519 3.16,-1.891 3.14,-1.887 2.52,-1.261 3.78,-1.891 3.15,-1.258 3.78,-1.262 3.78,-1.257 3.78,-1.262 4.41,-1.258 3.78,-0.633 3.78,-1.258 4.41,0 3.78,-1.261 8.82,0 4.41,-0.629 8.81,0 4.41,0.629 8.19,0 4.41,1.261 3.78,0 4.41,1.258 3.78,0.633 4.41,1.258 3.78,1.262 3.15,1.257 3.78,1.262 3.78,1.258 3.15,1.891 3.14,1.261 3.16,1.887 3.14,1.891 2.52,2.519 2.52,1.262 2.52,2.519 2.52,1.887 1.89,2.52 1.89,1.89 1.26,2.52 1.89,1.89 0.63,3.149 1.26,1.89 0.63,2.52 0.63,2.52 0.63,2.519" /><path
         id="path384"
         style="fill:#e6ebeb;fill-opacity:1;fill-rule:evenodd;stroke:none"
         d="m 5527.14,577.461 -0.63,3.152 0,1.887 -0.63,2.52 -0.63,3.152 -1.26,1.887 -0.63,2.519 -1.26,2.52 -1.89,2.519 -1.89,1.891 -1.89,2.519 -1.89,1.891 -2.52,1.891 -2.52,1.89 -2.52,2.52 -3.15,1.258 -2.52,2.519 -3.15,1.262 -3.15,1.887 -3.78,1.261 -3.15,1.258 -3.78,1.262 -3.78,1.258 -3.77,1.261 -3.79,0.629 -3.77,0.629 -4.41,0.633 -3.78,0.629 -4.41,0.629 -3.78,0 -4.41,0.629 -8.19,0 -4.41,-0.629 -3.78,0 -4.41,-0.629 -3.78,-0.629 -4.4,-0.633 -3.79,-0.629 -4.41,-0.629 -3.77,-1.261 -3.78,-1.258 -3.15,-1.262 -3.78,-1.258 -3.15,-1.261 -3.15,-1.887 -3.15,-1.262 -3.15,-2.519 -3.15,-1.258 -2.52,-2.52 -2.52,-1.89 -1.89,-1.891 -2.52,-1.891 -1.89,-2.519 -1.89,-1.891 -1.26,-2.519 -1.26,-2.52 -1.26,-2.519 -0.63,-1.887 -1.25,-3.152 -0.64,-2.52 0,-9.445 0.64,-2.52 1.25,-2.519 0.63,-2.52 1.26,-2.523 1.26,-2.52 1.26,-2.519 1.89,-1.887 1.89,-2.52 2.52,-1.89 1.89,-1.891 2.52,-1.891 2.52,-1.886 3.15,-1.891 3.15,-1.89 3.15,-1.891 3.15,-1.258 3.15,-1.891 3.78,-1.257 3.15,-1.262 3.78,-1.258 3.77,-0.633 4.41,-1.258 3.79,-0.628 4.4,-1.262 3.78,0 4.41,-0.629 3.78,0 4.41,-0.629 8.19,0 4.41,0.629 3.78,0 4.41,0.629 3.78,0 4.41,1.262 3.77,0.628 3.79,1.258 3.77,0.633 3.78,1.258 3.78,1.262 3.15,1.257 3.78,1.891 3.15,1.258 3.15,1.891 2.52,1.89 3.15,1.891 2.52,1.886 2.52,1.891 2.52,1.891 1.89,1.89 1.89,2.52 1.89,1.887 1.89,2.519 1.26,2.52 0.63,2.523 1.26,2.52 0.63,2.519 0.63,2.52 0,2.519" /><path
         id="path386"
         style="fill:none;stroke:#494936;stroke-width:4.72424984;stroke-linecap:butt;stroke-linejoin:miter;stroke-miterlimit:10;stroke-dasharray:none;stroke-opacity:1"
         d="m 851.391,784.07 1.257,1.891 1.262,1.887 1.258,1.89 1.262,1.891 0.629,2.519 0.629,1.891 0.628,2.52 0.633,1.257 0,2.52 0.629,2.519 0,1.891 -0.629,1.891 0,4.406 -1.261,1.891 0,2.519 -1.258,1.891 -0.633,1.89 -1.258,1.891 -1.262,1.887 -1.257,1.89 -1.262,1.891 -1.887,1.891 -1.891,1.886 -1.261,1.262 -2.52,1.258 -1.886,1.89 -1.891,1.262 -2.52,1.258 -1.89,1.262 -2.52,1.258 -2.519,1.261 -2.52,0.629 -2.519,1.258 -2.52,0.633 -3.148,0.629 -2.52,0.629 -2.519,0 -3.153,0.629 -2.519,0 -3.149,0.632 -5.668,0 -2.519,-0.632 -2.52,0 -3.152,-0.629 -2.52,-0.629 -2.519,-0.629 -3.149,-0.633 -2.519,-0.629 -2.52,-1.258 -2.519,-0.633 -2.52,-1.257 -1.89,-1.262 -2.52,-1.258 -1.887,-1.262 -2.519,-1.257 -1.891,-1.891 -1.89,-1.258 -1.258,-1.89 -1.891,-1.891 -1.262,-1.891" /><path
         id="path388"
         style="fill:#e6ebeb;fill-opacity:1;fill-rule:evenodd;stroke:none"
         d="m 5438.32,572.422 0,4.41 -0.63,3.781 -0.63,4.407 -1.89,3.781 -1.89,4.41 -2.52,3.777 -2.52,3.782 -3.15,3.777 -3.78,4.41 -3.77,3.148 -4.41,3.782 -4.42,3.148 -5.03,3.781 -5.67,3.149 -5.67,3.148 -5.67,2.52 -6.3,3.148 -6.93,2.524 -6.93,2.519 -6.92,2.52 -7.57,1.886 -7.56,1.891 -7.55,1.891 -8.19,1.258 -8.19,1.261 -7.56,1.258 -8.82,1.262 -8.19,0.629 -8.82,0 -8.18,0.629 -17.01,0 -8.82,-0.629 -8.19,0 -8.81,-0.629 -8.2,-1.262 -8.18,-1.258 -8.19,-1.261 -7.56,-1.258 -7.56,-1.891 -8.19,-1.891 -6.93,-1.886 -6.93,-2.52 -6.93,-2.519 -6.92,-2.524 -6.3,-3.148 -5.67,-2.52 -5.67,-3.148 -5.67,-3.149 -5.04,-3.781 -5.04,-3.148 -3.78,-3.782 -3.78,-3.148 -3.78,-4.41 -3.15,-3.777 -3.14,-3.782 -2.53,-3.777 -1.26,-4.41 -1.89,-3.781 -0.63,-4.407 -0.62,-3.781 -0.64,-4.41 0.64,-4.406 0.62,-3.782 0.63,-4.41 1.89,-3.777 1.26,-4.41 2.53,-3.782 3.14,-3.777 3.15,-3.781 3.78,-4.406 3.78,-3.153 3.78,-3.777 5.04,-3.781 5.04,-3.149 5.67,-3.148 5.67,-3.153 5.67,-3.148 6.3,-2.519 6.92,-2.52 6.93,-2.52 6.93,-2.519 6.93,-1.891 8.19,-1.886 7.56,-1.891 7.56,-1.891 8.19,-0.629 8.18,-1.261 8.2,-1.258 8.81,-0.633 8.19,-0.629 8.82,-0.629 17.01,0 8.18,0.629 8.82,0.629 8.19,0.633 8.82,1.258 7.56,1.261 8.19,0.629 8.19,1.891 7.55,1.891 7.56,1.886 7.57,1.891 6.92,2.519 6.93,2.52 6.93,2.52 6.3,2.519 5.67,3.148 5.67,3.153 5.67,3.148 5.03,3.149 4.42,3.781 4.41,3.777 3.77,3.153 3.78,4.406 3.15,3.781 2.52,3.777 2.52,3.782 1.89,4.41 1.89,3.777 0.63,4.41 0.63,3.782" /><path
         id="path390"
         style="fill:#e6ebeb;fill-opacity:1;fill-rule:evenodd;stroke:none"
         d="m 5301,665.648 112.75,14.489 -1.88,3.777 -1.26,2.52 -1.9,3.152 -2.51,3.148 -2.52,3.149 -2.52,2.519 -3.15,3.149 -3.15,2.519 -4.41,2.524 -3.15,2.519 -4.41,3.149 -3.78,1.89 -4.41,1.887 -5.04,2.52 -4.41,1.89 -5.04,1.262 -5.03,1.887 -5.68,1.261 -5.04,1.891 -5.66,0.629 -5.04,1.258 -5.67,0.633 -6.3,0.628 -5.67,0.629 -5.67,0.629 -17.63,0 -5.68,-0.629 -5.66,0 -5.67,-0.629 -5.67,-1.261 -5.67,-0.629 -5.67,-1.258 -5.67,-1.262 -5.04,-1.258 -5.04,-1.89 -5.04,-1.262 -5.04,-1.887 -4.4,-2.519 -4.41,-1.891 -4.41,-2.519 -3.78,-2.52 -4.41,-1.89 -3.15,-3.149 -3.78,-2.519 -3.15,-2.52 -2.52,-3.152 -2.52,-3.149 -2.52,-2.519 -2.52,-3.149 -1.26,-3.148 -1.89,-3.152 -1.26,-3.778" /><path
         id="path392"
         style="fill:none;stroke:#5a777a;stroke-width:4.72424984;stroke-linecap:butt;stroke-linejoin:miter;stroke-miterlimit:10;stroke-dasharray:none;stroke-opacity:1"
         d="m 5413.75,680.137 -1.88,3.148 -1.26,3.149 -1.9,3.152 -2.51,3.148 -2.52,3.149 -2.52,2.519 -3.15,3.149 -3.15,2.519 -4.41,2.524 -3.15,2.519 -4.41,3.149 -4.41,1.89 -4.41,1.887 -4.41,2.52 -4.41,1.89 -5.04,1.262 -5.03,1.887 -5.04,1.261 -5.68,1.891 -5.66,0.629 -5.67,1.258 -5.67,0.633 -5.67,0.628 -5.67,0.629 -5.67,0.629 -17.63,0 -5.68,-0.629 -5.66,-0.629 -5.67,0 -5.67,-1.261 -5.67,-0.629 -5.67,-1.258 -5.67,-1.262 -5.04,-1.89 -5.04,-1.258 -5.04,-1.891 -5.04,-1.258 -5.04,-2.519 -4.4,-1.891 -3.78,-2.519 -4.41,-2.52 -3.78,-1.89 -3.15,-3.149 -3.15,-2.519 -3.78,-2.52 -2.52,-3.152 -2.52,-3.149 -2.52,-2.519 -1.89,-3.149 -1.89,-3.148 -1.89,-3.781 -1.26,-3.149" /><path
         id="path394"
         style="fill:#e6ebeb;fill-opacity:1;fill-rule:evenodd;stroke:none"
         d="m 5148.57,632.895 53.54,51.019 -3.15,2.52 -3.78,1.89 -3.78,1.262 -3.78,1.258 -3.78,1.89 -3.78,1.258 -4.41,1.262 -3.77,0.629 -4.42,0.629 -4.41,1.261 -4.41,0 -3.77,0.629 -13.23,0 -4.41,-0.629 -4.41,-0.628 -3.78,-0.633 -4.41,-0.629 -3.78,-1.258 -3.78,-1.262 -4.41,-1.258 -3.78,-1.261 -3.77,-1.891 -3.79,-1.887 -3.77,-1.89 -3.16,-1.891 -3.14,-1.89 -3.15,-2.52 -2.52,-2.52 -3.15,-2.519 -2.52,-2.52 -2.52,-2.519 -1.89,-3.149 -2.52,-2.519 -1.89,-3.149 -1.26,-3.152 -1.89,-3.148 -1.26,-3.149 -1.26,-3.148 -0.63,-3.153 -0.63,-3.148 -0.63,-3.148 0,-10.079 0.63,-3.152 0.63,-3.148" /><path
         id="path396"
         style="fill:none;stroke:#5a777a;stroke-width:4.72424984;stroke-linecap:butt;stroke-linejoin:miter;stroke-miterlimit:10;stroke-dasharray:none;stroke-opacity:1"
         d="m 5202.11,683.914 -3.15,1.891 -3.78,1.89 -3.78,1.891 -3.78,1.258 -3.78,1.89 -4.41,1.258 -3.78,1.262 -4.41,0.629 -3.78,0.629 -4.41,1.261 -4.41,0 -4.4,0.629 -12.6,0 -4.41,-0.629 -4.41,-0.628 -3.78,-0.633 -4.41,-0.629 -3.78,-1.258 -3.78,-1.262 -4.41,-1.258 -3.78,-1.261 -3.77,-1.891 -3.79,-1.887 -3.14,-1.89 -3.79,-1.891 -3.14,-1.89 -3.15,-2.52 -2.52,-2.52 -3.15,-2.519 -2.52,-2.52 -2.52,-2.519 -1.89,-3.149 -2.52,-2.519 -1.89,-3.149 -1.26,-3.152 -1.89,-3.148 -1.26,-3.149 -1.26,-3.148 -0.63,-3.153 -0.63,-3.148 -0.63,-3.148 0,-10.079 0.63,-3.152 0.63,-3.148" /><path
         id="path398"
         style="fill:#e6ebeb;fill-opacity:1;fill-rule:evenodd;stroke:none"
         d="m 5132.19,517.621 -90.71,1.891 0,-6.301 0.63,-3.148 0.64,-3.149 0.63,-3.148 1.25,-2.52 1.89,-3.152 1.27,-3.149 1.88,-2.519 1.89,-2.52 1.89,-3.148 3.15,-2.52 2.52,-2.519 2.52,-1.891 3.15,-2.519 3.15,-2.52 3.15,-1.891 3.78,-1.89 3.15,-1.887 3.78,-1.891 4.41,-1.261 3.78,-1.887 4.4,-1.262 3.79,-1.257 5.03,-1.262 3.78,-0.629 4.41,-1.262 4.41,-0.629 5.04,0 4.41,-0.629 13.86,0 4.41,0.629 5.04,0 4.41,0.629 4.41,1.262 4.41,0.629 4.4,1.262 3.78,1.257 4.41,1.262 3.78,1.887 4.41,1.261 3.78,1.891 3.78,1.258" /><path
         id="path400"
         style="fill:none;stroke:#5a777a;stroke-width:4.72424984;stroke-linecap:butt;stroke-linejoin:miter;stroke-miterlimit:10;stroke-dasharray:none;stroke-opacity:1"
         d="m 5041.48,519.512 0,-6.301 0.63,-3.148 0.64,-3.149 1.25,-3.148 0.63,-2.52 1.89,-3.152 1.27,-3.149 1.88,-2.519 1.89,-2.52 2.52,-2.519 1.89,-2.52 3.15,-3.148 2.52,-1.891 3.15,-2.519 3.15,-2.52 3.15,-1.891 3.78,-1.89 3.15,-1.887 3.78,-1.891 4.41,-1.261 3.78,-1.887 4.4,-1.262 4.41,-1.257 4.41,-0.633 3.78,-1.258 4.41,-0.629 5.04,-0.633 4.41,-0.629 5.04,0 4.41,-0.629 4.41,0 4.41,0.629 4.41,0 5.04,0.629 4.41,0.633 4.41,0.629 4.41,1.258 4.4,0.633 4.41,1.257 3.78,1.262 4.41,1.887 3.78,1.261 3.78,1.891 3.78,1.887" /><path
         id="path402"
         style="fill:#e6ebeb;fill-opacity:1;fill-rule:evenodd;stroke:none"
         d="m 5419.43,643.602 80.62,-15.747 1.26,2.52 1.26,2.52 0.63,1.886 0.63,2.524 0.63,2.519 0.63,2.52 0,2.519 -0.63,2.52 -0.63,2.519 -0.63,2.52 -0.63,2.519 -1.26,2.52 -1.26,2.519 -1.26,1.887 -1.89,2.52 -1.89,2.519 -2.52,1.891 -1.89,2.519 -2.52,1.891 -3.15,1.891 -2.52,1.89 -3.14,1.887 -3.15,1.891 -3.78,1.261 -3.15,1.887 -3.78,1.262 -3.78,1.258 -3.78,1.261 -3.78,1.258 -4.41,0.633 -3.78,0.629 -4.41,0.629 -3.78,0.629 -4.41,0.632 -4.41,0.629 -17.64,0 -4.4,-0.629 -3.78,0 -4.41,-1.261 -4.41,0 -4.41,-0.629" /><path
         id="path404"
         style="fill:none;stroke:#5a777a;stroke-width:4.72424984;stroke-linecap:butt;stroke-linejoin:miter;stroke-miterlimit:10;stroke-dasharray:none;stroke-opacity:1"
         d="m 5500.05,627.855 1.26,2.52 1.26,2.52 0.63,1.886 0.63,2.524 0.63,2.519 0,7.559 -0.63,3.148 -0.63,1.891 -0.63,2.519 -1.26,2.52 -1.26,2.519 -1.89,1.887 -1.26,2.52 -2.52,2.519 -1.89,2.52 -2.52,1.89 -1.89,1.891 -3.15,1.891 -2.52,1.89 -3.77,1.887 -3.16,1.891 -3.14,1.261 -3.78,1.887 -3.15,1.262 -3.78,1.258 -3.78,1.261 -4.41,1.258 -3.78,0.633 -3.78,0.629 -4.41,0.629 -4.41,1.261 -4.41,0 -3.78,0.629 -17.64,0 -4.4,-0.629 -3.78,0 -4.41,-0.632 -4.41,-0.629 -4.41,-0.629" /><path
         id="path406"
         style="fill:#e6ebeb;fill-opacity:1;fill-rule:evenodd;stroke:none"
         d="m 5433.28,577.461 86.3,-20.785 1.89,2.519 1.26,2.52 1.26,2.519 1.26,3.149 0.63,2.519 0.63,2.52 0.63,3.152 0,5.668 -0.63,2.52 -0.63,3.148 -0.63,2.52 -1.26,2.519 -1.26,3.149 -1.89,2.519 -1.89,2.524 -1.89,2.519 -2.52,2.52 -2.52,2.519 -2.52,2.52" /><path
         id="path408"
         style="fill:none;stroke:#5a777a;stroke-width:4.72424984;stroke-linecap:butt;stroke-linejoin:miter;stroke-miterlimit:10;stroke-dasharray:none;stroke-opacity:1"
         d="m 5519.58,556.676 1.89,2.519 1.26,3.149 1.26,2.519 1.26,2.52 0.63,3.152 0.63,3.149 0.63,3.148 0,2.52 -0.63,3.148 -0.63,3.152 -0.63,2.52 -1.26,3.148 -1.26,3.149 -1.26,2.519 -1.89,2.52 -2.52,2.519 -2.52,3.153 -2.52,2.519 -3.15,2.52" /><path
         id="path410"
         style="fill:#e6ebeb;fill-opacity:1;fill-rule:evenodd;stroke:none"
         d="m 5430.13,520.141 -27.71,-79.996 4.41,-1.262 3.78,-1.258 4.41,-0.629 4.41,-1.262 22.04,0 4.41,1.262 3.78,0.629 4.41,1.258 4.41,1.262 3.78,1.257 4.41,1.891 3.78,1.891 3.78,1.89 3.77,2.52 3.79,2.519 3.14,2.52 3.15,3.148 3.15,3.149 3.15,3.152 2.52,3.148 2.52,3.778 2.52,3.152 2.52,3.778 2.52,3.781 1.89,4.406 1.26,3.781 1.26,4.41 1.26,3.778 1.26,4.41 0.63,4.41 0.63,3.777 0.63,4.411 0,8.82 -0.63,4.41 0,4.406 -1.26,4.41 -0.63,3.782 -1.26,4.406" /><path
         id="path412"
         style="fill:none;stroke:#5a777a;stroke-width:4.72424984;stroke-linecap:butt;stroke-linejoin:miter;stroke-miterlimit:10;stroke-dasharray:none;stroke-opacity:1"
         d="m 5402.42,440.145 4.41,-1.262 3.78,-1.258 4.41,-0.629 4.41,-1.262 21.41,0 5.04,1.262 3.78,0.629 4.41,1.258 3.78,1.262 4.41,1.257 3.78,1.891 3.78,1.891 4.41,1.89 3.77,2.52 3.16,2.519 3.77,2.52 3.15,3.148 3.15,3.149 3.15,3.152 2.52,3.148 2.52,3.778 2.52,3.152 2.52,3.778 1.89,3.781 1.89,4.406 1.89,3.781 1.26,4.41 1.26,3.778 1.26,4.41 0.63,4.41 0.63,3.777 0.63,4.411 0,8.82 -0.63,4.41 0,4.406 -1.26,4.41 -0.63,3.782 -1.26,4.406" /><path
         id="path414"
         style="fill:#e6ebeb;fill-opacity:1;fill-rule:evenodd;stroke:none"
         d="m 5069.2,567.383 -4.41,54.172 -3.15,0 -2.52,-0.629 -3.78,-0.629 -2.52,-0.633 -3.15,-1.258 -2.52,-0.629 -3.15,-0.632 -2.52,-1.258 -2.52,-1.891 -2.51,-1.258 -2.52,-1.261 -3.15,-1.891 -1.89,-1.887 -2.52,-1.89 -1.89,-1.891 -2.52,-1.891 -1.26,-2.519 -1.89,-1.891 -1.89,-2.519 -1.26,-1.887 -1.89,-2.52 -0.63,-2.519 -1.26,-2.52 -1.26,-3.152 -0.63,-2.52 -0.63,-2.519 -0.63,-3.148 0,-2.52 -0.63,-2.52 0,-5.668 0.63,-2.519 0.63,-3.152 0,-2.52 0.63,-2.519 1.26,-2.52 0.63,-2.52 1.26,-2.519 1.89,-3.148 0.63,-1.891 1.89,-2.52 1.89,-2.519 1.89,-1.887 1.89,-2.519 1.89,-1.891 2.52,-1.891 1.89,-1.89 2.52,-1.891 2.51,-1.258 1.9,-1.89 3.14,-0.629 2.52,-1.891" /><path
         id="path416"
         style="fill:none;stroke:#5a777a;stroke-width:4.72424984;stroke-linecap:butt;stroke-linejoin:miter;stroke-miterlimit:10;stroke-dasharray:none;stroke-opacity:1"
         d="m 5064.79,621.555 -3.15,-0.629 -3.15,0 -3.15,-0.629 -2.52,-0.633 -3.15,-0.629 -2.52,-1.258 -2.52,-1.261 -3.15,-1.258 -2.52,-1.262 -2.51,-1.258 -2.52,-1.261 -3.15,-1.891 -1.89,-1.887 -2.52,-1.89 -1.89,-1.891 -1.89,-1.891 -1.89,-2.519 -1.89,-1.891 -1.89,-2.519 -1.26,-1.887 -1.89,-2.52 -0.63,-2.519 -1.26,-3.152 -1.26,-2.52 -0.63,-2.52 -0.63,-2.519 -0.63,-3.148 0,-2.52 -0.63,-2.52 0,-5.668 0.63,-2.519 0.63,-3.152 0,-2.52 0.63,-2.519 1.26,-2.52 1.26,-2.52 0.63,-3.148 1.26,-2.519 1.26,-1.891 1.89,-2.52 1.89,-2.519 1.89,-2.52 1.89,-1.886 1.89,-1.891 2.52,-1.891 1.89,-1.89 2.52,-1.891 2.51,-1.258 1.9,-1.89 3.14,-1.258 2.52,-1.262" /><path
         id="path418"
         style="fill:#e6ebeb;fill-opacity:1;fill-rule:evenodd;stroke:none"
         d="m 5297.86,478.566 -129.14,-5.668 0.64,-3.148 1.88,-3.148 1.26,-2.52 1.89,-3.152 1.89,-3.149 2.52,-2.519 2.52,-2.52 3.15,-3.148 3.78,-2.52 3.15,-2.519 3.78,-2.52 4.41,-1.89 4.41,-2.52 4.41,-1.891 5.04,-2.519 4.41,-1.891 5.67,-1.886 5.67,-1.891 5.03,-1.262 6.3,-1.258 5.67,-1.261 6.3,-1.258 6.3,-1.262 6.3,-0.629 6.3,-0.629 6.3,-0.633 6.3,0 6.93,-0.628 12.59,0 6.93,0.628 6.3,0 6.93,0.633 6.3,0.629 6.3,0.629 5.67,1.262 6.3,0.629 5.66,1.261 5.68,1.887 6.29,1.262 5.04,1.891 5.67,1.257 5.04,2.52 5.04,1.89 4.41,1.891 4.41,2.52 3.78,2.519 4.41,1.887 3.78,2.519 3.15,3.153 3.14,2.519 2.52,2.52 2.52,3.148 2.52,2.52" /><path
         id="path420"
         style="fill:none;stroke:#5a777a;stroke-width:4.72424984;stroke-linecap:butt;stroke-linejoin:miter;stroke-miterlimit:10;stroke-dasharray:none;stroke-opacity:1"
         d="m 5168.72,472.898 0.64,-3.148 1.88,-3.148 1.26,-2.52 1.89,-3.152 1.89,-3.149 2.52,-2.519 3.15,-2.52 2.52,-3.148 3.78,-2.52 3.15,-2.519 3.78,-2.52 4.41,-1.89 4.41,-2.52 5.04,-1.891 4.41,-2.519 4.41,-1.258 5.67,-2.519 5.67,-1.262 5.03,-1.891 6.3,-1.258 5.67,-0.629 6.3,-1.89 6.3,-0.629 6.3,-0.633 6.3,-1.258 6.93,-0.633 38.42,0 6.93,0.633 6.3,1.258 6.3,0.633 6.3,0.629 5.67,1.258 6.29,1.261 5.67,1.258 5.67,1.262 5.67,1.891 5.04,1.886 5.04,1.891 5.04,1.89 4.41,2.52 4.41,2.52 3.78,1.89 4.41,2.52 3.78,2.519 3.15,2.52 3.14,2.519 2.52,2.52 2.52,3.148 2.52,3.149" /><g
         transform="scale(10,10)"
         id="g422"><text
           id="text424"
           style="font-variant:normal;font-weight:normal;font-size:21.73159981px;font-family:Helvetica;-inkscape-font-specification:Helvetica;writing-mode:lr-tb;fill:#000000;fill-opacity:1;fill-rule:nonzero;stroke:none"
           transform="matrix(1,0,0,-1,469.441,155.318)"><tspan
             id="tspan426"
             y="0"
             x="0 14.494977 28.989954 44.680168 50.721554 71.236183 83.318954 95.401726 101.44311 115.93809 128.02086 135.25748 146.12328 158.20605">PKU Web Server</tspan><tspan
             id="tspan428"
             y="28.345301"
             x="0 6.0413847 20.536362 26.577747 32.619133 44.7019 56.784672 68.867439 74.908829 86.991592 99.074364 111.15714 117.19852 129.2813 141.36406 153.44682 159.4882 171.57098">IP: 162.105.129.12</tspan><tspan
             id="tspan430"
             y="56.690601"
             x="0 14.494977 26.577747 33.814369 39.855755 45.897141 51.938522 64.021294 76.104065 82.145447 95.423454 111.11367">Port: 80/TCP</tspan></text>
</g><path
         id="path432"
         style="fill:#e6ebeb;fill-opacity:1;fill-rule:evenodd;stroke:none"
         d="m 5510.76,522.66 -0.63,4.41 0,4.41 -0.63,3.778 -0.63,3.781 -1.26,4.41 -0.63,3.778 -1.89,4.41 -1.26,3.777 -1.89,3.781 -1.89,3.778 -1.89,3.152 -2.52,3.777 -2.52,3.782 -2.52,3.148 -2.52,2.52 -3.15,3.148 -3.14,2.52 -3.79,3.152 -3.14,2.519 -3.15,2.52 -3.78,1.887 -3.78,1.89 -3.78,1.262 -4.41,1.891 -3.15,1.257 -4.41,1.262 -3.78,0.629 -4.41,1.258 -4.41,0 -3.78,0.633 -8.19,0 -4.4,-0.633 -4.41,0 -3.79,-1.258 -4.4,-0.629 -3.78,-1.262 -4.41,-1.257 -3.78,-1.891 -3.78,-1.262 -3.78,-1.89 -3.15,-1.887 -3.78,-2.52 -3.78,-2.519 -2.52,-3.152 -3.78,-2.52 -2.52,-3.148 -3.14,-2.52 -2.52,-3.148 -2.52,-3.782 -1.89,-3.777 -2.52,-3.152 -1.89,-3.778 -1.9,-3.781 -1.25,-3.777 -1.26,-4.41 -1.26,-3.778 -0.64,-4.41 -1.25,-3.781 -0.63,-3.778 0,-4.41 -0.64,-4.41 0.64,-4.41 0,-3.777 0.63,-3.782 1.25,-4.406 0.64,-3.781 1.26,-4.41 1.26,-3.778 1.25,-4.41 1.9,-3.148 1.89,-3.781 2.52,-3.778 1.89,-3.781 2.52,-3.148 2.52,-3.149 3.14,-3.152 2.52,-2.52 3.78,-3.148 2.52,-2.52 3.78,-2.519 3.78,-2.52 3.15,-1.89 3.78,-1.891 3.78,-1.887 3.78,-1.261 4.41,-1.891 3.78,-0.629 4.4,-1.258 3.79,-0.633 4.41,-0.629 16.37,0 4.41,0.629 4.41,0.633 3.78,1.258 4.41,0.629 3.15,1.891 4.41,1.261 3.78,1.887 3.78,1.891 3.78,1.89 3.15,2.52 3.14,2.519 3.79,2.52 3.14,3.148 3.15,2.52 2.52,3.152 2.52,3.149 2.52,3.148 2.52,3.781 1.89,3.778 1.89,3.781 1.89,3.148 1.26,4.41 1.89,3.778 0.63,4.41 1.26,3.781 0.63,4.406 0.63,3.782 0,3.777" /><path
         id="path434"
         style="fill:none;stroke:#dadacd;stroke-width:4.72424984;stroke-linecap:butt;stroke-linejoin:miter;stroke-miterlimit:10;stroke-dasharray:none;stroke-opacity:1"
         d="m 846.98,788.48 1.891,1.887 0.629,1.891 1.258,1.89 0.633,1.891 1.257,1.887 0,1.89 0.629,1.891 0.633,1.891 0,10.078 -0.633,1.89 -0.629,1.887 -0.628,1.891 -0.629,1.89 -0.633,1.891 -1.887,1.887 -1.262,1.89 -0.629,1.891 -1.261,1.891 -1.887,1.257 -1.891,1.891 -1.89,1.258 -1.891,1.262 -1.887,1.257 -1.89,1.891 -1.891,0.629 -2.519,1.262 -1.891,1.257 -2.519,1.262 -2.52,0.629 -2.52,0.629 -1.89,0.633 -3.149,0.629 -2.519,0.629 -2.52,0.629 -5.039,0 -3.148,0.632 -2.52,0 -2.519,-0.632 -5.039,0 -2.52,-0.629 -3.152,-0.629 -2.52,-0.629 -2.519,-0.633 -2.52,-0.629 -2.519,-0.629 -1.887,-1.262 -2.52,-0.628 -1.89,-1.258 -2.52,-1.262 -1.89,-1.258 -1.891,-1.262 -1.887,-1.89 -1.89,-1.258 -1.262,-1.262 -1.891,-1.886 -1.257,-1.891" /><path
         id="path436"
         style="fill:#c8c8b5;fill-opacity:1;fill-rule:evenodd;stroke:none"
         d="m 460.223,848.32 42.832,42.203 303.613,0 -42.836,-42.203" /></g></g></svg>