<?xml version="1.0" encoding="UTF-8" standalone="no"?>
<svg
   xmlns:dc="http://purl.org/dc/elements/1.1/"
   xmlns:cc="http://creativecommons.org/ns#"
   xmlns:rdf="http://www.w3.org/1999/02/22-rdf-syntax-ns#"
   xmlns:svg="http://www.w3.org/2000/svg"
   xmlns="http://www.w3.org/2000/svg"
   viewBox="0 0 382.71249 137.7"
   height="137.7"
   width="382.71249"
   xml:space="preserve"
   version="1.1"
   id="svg2"><metadata
     id="metadata8"><rdf:RDF><cc:Work
         rdf:about=""><dc:format>image/svg+xml</dc:format><dc:type
           rdf:resource="http://purl.org/dc/dcmitype/StillImage" /></cc:Work></rdf:RDF></metadata><defs
     id="defs6" /><g
     transform="matrix(1.25,0,0,-1.25,0,137.7)"
     id="g10"><g
       transform="scale(0.1,0.1)"
       id="g12"><g
         transform="scale(10,10)"
         id="g14"><text
           id="text16"
           style="font-variant:normal;font-weight:normal;font-size:8px;font-family:Helvetica;-inkscape-font-specification:Helvetica;writing-mode:lr-tb;fill:#000000;fill-opacity:1;fill-rule:nonzero;stroke:none"
           transform="matrix(1,0,0,-1,0.196484,24.9504)"><tspan
             id="tspan18"
             y="0"
             x="0 5.336 9.7840004 14.232 18.68 20.455999 24.903999 29.351999 31.576 36.023998 38.688 43.136002 47.136002 51.584 55.584">Sending process</tspan><tspan
             id="tspan20"
             y="-0.33281299"
             x="240.616 246.392 250.84 254.84 259.28799 261.064 265.064 266.84 271.28799 275.73599 277.95999 282.40799 285.07199 289.51999 293.51999 297.96799 301.96799">Receiving process</tspan></text>
</g><path
         id="path22"
         style="fill:#ffffff;fill-opacity:1;fill-rule:nonzero;stroke:none"
         d="m 2293.61,469.617 720,0 0,359.383 -720,0 0,-359.383 z" /><path
         id="path24"
         style="fill:none;stroke:#000000;stroke-width:5;stroke-linecap:butt;stroke-linejoin:miter;stroke-miterlimit:4;stroke-dasharray:none;stroke-opacity:1"
         d="m 2293.61,469.617 720,0 0,359.383 -720,0 0,-359.383 z" /><path
         id="path26"
         style="fill:#ffffff;fill-opacity:1;fill-rule:nonzero;stroke:none"
         d="m 2653.61,550 c 54.66,0 99,44.324 99,98.992 0,54.68 -44.34,99 -99,99 -54.67,0 -99,-44.32 -99,-99 0,-54.668 44.33,-98.992 99,-98.992" /><path
         id="path28"
         style="fill:none;stroke:#000000;stroke-width:5;stroke-linecap:butt;stroke-linejoin:miter;stroke-miterlimit:4;stroke-dasharray:none;stroke-opacity:1"
         d="m 2653.61,550 c 54.66,0 99,44.324 99,98.992 0,54.68 -44.34,99 -99,99 -54.67,0 -99,-44.32 -99,-99 0,-54.668 44.33,-98.992 99,-98.992 z" /><path
         id="path30"
         style="fill:#ffffff;fill-opacity:1;fill-rule:nonzero;stroke:none"
         d="m 10,469.211 720,0 0,359.789 -720,0 0,-359.789 z" /><path
         id="path32"
         style="fill:none;stroke:#000000;stroke-width:5;stroke-linecap:butt;stroke-linejoin:miter;stroke-miterlimit:4;stroke-dasharray:none;stroke-opacity:1"
         d="m 10,469.211 720,0 0,359.789 -720,0 0,-359.789 z" /><path
         id="path34"
         style="fill:#ffffff;fill-opacity:1;fill-rule:nonzero;stroke:none"
         d="m 370,550 c 54.672,0 98.992,44.324 98.992,98.992 0,54.68 -44.32,99 -98.992,99 -54.672,0 -99,-44.32 -99,-99 C 271,594.324 315.328,550 370,550" /><path
         id="path36"
         style="fill:none;stroke:#000000;stroke-width:5;stroke-linecap:butt;stroke-linejoin:miter;stroke-miterlimit:4;stroke-dasharray:none;stroke-opacity:1"
         d="m 370,550 c 54.672,0 98.992,44.324 98.992,98.992 0,54.68 -44.32,99 -98.992,99 -54.672,0 -99,-44.32 -99,-99 C 271,594.324 315.328,550 370,550 Z" /><path
         id="path38"
         style="fill:#d9d9d9;fill-opacity:1;fill-rule:nonzero;stroke:none"
         d="m 1515,385.461 c 255.57,0 462.77,117.996 462.77,263.523 0,145.575 -207.2,263.555 -462.77,263.555 -255.57,0 -462.77,-117.98 -462.77,-263.555 0,-145.527 207.2,-263.523 462.77,-263.523" /><path
         id="path40"
         style="fill:none;stroke:#000000;stroke-width:5;stroke-linecap:butt;stroke-linejoin:miter;stroke-miterlimit:4;stroke-dasharray:none;stroke-opacity:1"
         d="m 1515,385.461 c 255.57,0 462.77,117.996 462.77,263.523 0,145.575 -207.2,263.555 -462.77,263.555 -255.57,0 -462.77,-117.98 -462.77,-263.555 0,-145.527 207.2,-263.523 462.77,-263.523 z" /><path
         id="path42"
         style="fill:none;stroke:#000000;stroke-width:5;stroke-linecap:butt;stroke-linejoin:miter;stroke-miterlimit:4;stroke-dasharray:none;stroke-opacity:1"
         d="m 298.328,320.859 52.961,189.532" /><path
         id="path44"
         style="fill:#000000;fill-opacity:1;fill-rule:nonzero;stroke:none"
         d="m 361.328,498.309 0.543,50.504 -25.726,-43.458 25.183,-7.046" /><path
         id="path46"
         style="fill:none;stroke:#000000;stroke-width:5;stroke-linecap:butt;stroke-linejoin:miter;stroke-miterlimit:4;stroke-dasharray:none;stroke-opacity:1"
         d="M 2747.91,329.813 2670.97,510.93" /><path
         id="path48"
         style="fill:#000000;fill-opacity:1;fill-rule:nonzero;stroke:none"
         d="m 2686.34,507.77 -31.1,39.785 7.05,-50.016 24.05,10.231" /><path
         id="path50"
         style="fill:none;stroke:#000000;stroke-width:5;stroke-linecap:butt;stroke-linejoin:miter;stroke-miterlimit:4;stroke-dasharray:none;stroke-opacity:1"
         d="m 1638.11,216.07 -88.17,175.918" /><path
         id="path52"
         style="fill:#000000;fill-opacity:1;fill-rule:nonzero;stroke:none"
         d="m 1565.48,389.801 -33.55,37.754 10.19,-49.473 23.36,11.719" /><g
         transform="scale(10,10)"
         id="g54"><text
           id="text56"
           style="font-variant:normal;font-weight:normal;font-size:8px;font-family:Helvetica;-inkscape-font-specification:Helvetica;writing-mode:lr-tb;fill:#000000;fill-opacity:1;fill-rule:nonzero;stroke:none"
           transform="matrix(1,0,0,-1,12.4758,88.4)"><tspan
             id="tspan58"
             y="0"
             x="0 5.336 9.7840004 14.232 18.68 20.455999 24.903999 29.351999 31.576 36.023998 40.472 44.472">Sending host</tspan><tspan
             id="tspan60"
             y="-14.3156"
             x="92.299599 98.0756 102.5236 106.9716 109.1956 113.6436 163.62737 168.96336 173.41136 177.85936 182.30736 186.75536">RouterSubnet</tspan><tspan
             id="tspan62"
             y="58.099998"
             x="153.80231 159.57829 164.02631 168.4743 170.6983 175.1463 177.8103 180.0343 185.8103 188.0343 194.6983 199.1463 203.1463 207.5943 211.5943 213.8183 218.2663">Router C makes a</tspan><tspan
             id="tspan64"
             y="67.599998"
             x="153.80231 157.80231 162.25031 166.6983 168.4743 172.4743 176.9223 179.1463 181.3703 185.8183 188.0423 190.2663 194.71429 197.3783 203.1543 207.60229 210.2663 214.71429">choice to forward</tspan><tspan
             id="tspan66"
             y="77.099998"
             x="153.80231 158.25031 162.6983 166.6983 170.6983 175.1463 177.3703 181.3703 183.5943 185.8183 190.2663 192.4903 197.82629 200.05029 204.49831 208.9463 213.3943">packets to E and</tspan><tspan
             id="tspan68"
             y="86.599998"
             x="153.80231 158.25031 162.6983 164.9223 167.1463 169.3703 173.8183 176.0423">not to D</tspan><tspan
             id="tspan70"
             y="58.099998"
             x="87.462799 92.798798 97.246803 101.2468 105.2468 109.6948">Packet</tspan><tspan
             id="tspan72"
             y="7.1054274e-15"
             x="225.9668 231.7428 236.1908 240.1908 244.63879 246.41479 250.41479 252.1908 256.63879 261.08679 263.31079 267.75879 272.20679 276.20679">Receiving host</tspan></text>
</g><path
         id="path74"
         style="fill:none;stroke:#000000;stroke-width:5;stroke-linecap:butt;stroke-linejoin:miter;stroke-miterlimit:4;stroke-dasharray:none;stroke-opacity:1"
         d="m 1150,657.059 -414.238,0" /><path
         id="path76"
         style="fill:none;stroke:#000000;stroke-width:5;stroke-linecap:butt;stroke-linejoin:miter;stroke-miterlimit:4;stroke-dasharray:none;stroke-opacity:1"
         d="m 2291.45,657.059 -414.24,0" /><path
         id="path78"
         style="fill:none;stroke:#000000;stroke-width:5;stroke-linecap:butt;stroke-linejoin:miter;stroke-miterlimit:4;stroke-dasharray:none;stroke-opacity:1"
         d="m 1165,656.863 215,145 310,2.5 175,-142.5" /><path
         id="path80"
         style="fill:none;stroke:#000000;stroke-width:5;stroke-linecap:butt;stroke-linejoin:miter;stroke-miterlimit:4;stroke-dasharray:none;stroke-opacity:1"
         d="m 1167.5,644.363 355,-157.5 337.5,165" /><path
         id="path82"
         style="fill:none;stroke:#000000;stroke-width:5;stroke-linecap:butt;stroke-linejoin:miter;stroke-miterlimit:4;stroke-dasharray:none;stroke-opacity:1"
         d="m 1520,501.863 162.5,290" /><path
         id="path84"
         style="fill:#ffffff;fill-opacity:1;fill-rule:nonzero;stroke:none"
         d="m 1689.86,742.828 c 31.35,0 56.78,25.43 56.78,56.785 0,31.364 -25.43,56.789 -56.78,56.789 -31.36,0 -56.79,-25.425 -56.79,-56.789 0,-31.355 25.43,-56.785 56.79,-56.785" /><path
         id="path86"
         style="fill:none;stroke:#000000;stroke-width:5;stroke-linecap:butt;stroke-linejoin:miter;stroke-miterlimit:4;stroke-dasharray:none;stroke-opacity:1"
         d="m 1689.86,742.828 c 31.35,0 56.78,25.43 56.78,56.785 0,31.364 -25.43,56.789 -56.78,56.789 -31.36,0 -56.79,-25.425 -56.79,-56.789 0,-31.355 25.43,-56.785 56.79,-56.785 z" /><g
         transform="scale(10,10)"
         id="g88"><text
           id="text90"
           style="font-variant:normal;font-weight:normal;font-size:8px;font-family:Helvetica;-inkscape-font-specification:Helvetica;writing-mode:lr-tb;fill:#000000;fill-opacity:1;fill-rule:nonzero;stroke:none"
           transform="matrix(1,0,0,-1,166.098,77.1383)"><tspan
             id="tspan92"
             y="0"
             x="0">D</tspan></text>
</g><path
         id="path94"
         style="fill:#ffffff;fill-opacity:1;fill-rule:nonzero;stroke:none"
         d="m 1387.36,742.828 c 31.35,0 56.78,25.43 56.78,56.785 0,31.364 -25.43,56.789 -56.78,56.789 -31.36,0 -56.79,-25.425 -56.79,-56.789 0,-31.355 25.43,-56.785 56.79,-56.785" /><path
         id="path96"
         style="fill:none;stroke:#000000;stroke-width:5;stroke-linecap:butt;stroke-linejoin:miter;stroke-miterlimit:4;stroke-dasharray:none;stroke-opacity:1"
         d="m 1387.36,742.828 c 31.35,0 56.78,25.43 56.78,56.785 0,31.364 -25.43,56.789 -56.78,56.789 -31.36,0 -56.79,-25.425 -56.79,-56.789 0,-31.355 25.43,-56.785 56.79,-56.785 z" /><g
         transform="scale(10,10)"
         id="g98"><text
           id="text100"
           style="font-variant:normal;font-weight:normal;font-size:8px;font-family:Helvetica;-inkscape-font-specification:Helvetica;writing-mode:lr-tb;fill:#000000;fill-opacity:1;fill-rule:nonzero;stroke:none"
           transform="matrix(1,0,0,-1,136.068,77.1383)"><tspan
             id="tspan102"
             y="0"
             x="0">B</tspan></text>
</g><path
         id="path104"
         style="fill:none;stroke:#000000;stroke-width:40;stroke-linecap:butt;stroke-linejoin:miter;stroke-miterlimit:4;stroke-dasharray:40, 40;stroke-dashoffset:0;stroke-opacity:1"
         d="m 477.5,669.363 c 0,0 195,30 282.5,30 l 322.5,0 c 0,0 87.5,-7.5 172.5,-45 l 237.5,-112.5 c 0,0 45,-7.5 87.5,17.5 l 205,105 c 0,0 80,45 167.5,45 l 357.5,0 c 0,0 157.5,-12.5 222.5,-32.5" /><path
         id="path106"
         style="fill:#ffffff;fill-opacity:1;fill-rule:nonzero;stroke:none"
         d="m 1162.36,599.656 c 31.35,0 56.78,25.434 56.78,56.801 0,31.356 -25.43,56.75 -56.78,56.75 -31.36,0 -56.79,-25.394 -56.79,-56.75 0,-31.367 25.43,-56.801 56.79,-56.801" /><path
         id="path108"
         style="fill:none;stroke:#000000;stroke-width:5;stroke-linecap:butt;stroke-linejoin:miter;stroke-miterlimit:4;stroke-dasharray:none;stroke-opacity:1"
         d="m 1162.36,599.656 c 31.35,0 56.78,25.434 56.78,56.801 0,31.356 -25.43,56.75 -56.78,56.75 -31.36,0 -56.79,-25.394 -56.79,-56.75 0,-31.367 25.43,-56.801 56.79,-56.801 z" /><g
         transform="scale(10,10)"
         id="g110"><text
           id="text112"
           style="font-variant:normal;font-weight:normal;font-size:8px;font-family:Helvetica;-inkscape-font-specification:Helvetica;writing-mode:lr-tb;fill:#000000;fill-opacity:1;fill-rule:nonzero;stroke:none"
           transform="matrix(1,0,0,-1,113.568,62.8215)"><tspan
             id="tspan114"
             y="0"
             x="0">A</tspan></text>
</g><path
         id="path116"
         style="fill:#ffffff;fill-opacity:1;fill-rule:nonzero;stroke:none"
         d="m 1870,599.656 c 31.35,0 56.78,25.434 56.78,56.801 0,31.356 -25.43,56.75 -56.78,56.75 -31.37,0 -56.79,-25.394 -56.79,-56.75 0,-31.367 25.42,-56.801 56.79,-56.801" /><path
         id="path118"
         style="fill:none;stroke:#000000;stroke-width:5;stroke-linecap:butt;stroke-linejoin:miter;stroke-miterlimit:4;stroke-dasharray:none;stroke-opacity:1"
         d="m 1870,599.656 c 31.35,0 56.78,25.434 56.78,56.801 0,31.356 -25.43,56.75 -56.78,56.75 -31.37,0 -56.79,-25.394 -56.79,-56.75 0,-31.367 25.42,-56.801 56.79,-56.801 z" /><g
         transform="scale(10,10)"
         id="g120"><text
           id="text122"
           style="font-variant:normal;font-weight:normal;font-size:8px;font-family:Helvetica;-inkscape-font-specification:Helvetica;writing-mode:lr-tb;fill:#000000;fill-opacity:1;fill-rule:nonzero;stroke:none"
           transform="matrix(1,0,0,-1,184.331,62.8215)"><tspan
             id="tspan124"
             y="0"
             x="0">E</tspan></text>
</g><path
         id="path126"
         style="fill:#231f20;fill-opacity:1;fill-rule:nonzero;stroke:none"
         d="m 1480,523.535 45,0 0,40.3906 -45,0 0,-40.3906 z" /><path
         id="path128"
         style="fill:#ffffff;fill-opacity:1;fill-rule:nonzero;stroke:none"
         d="m 1530,429.656 c 31.35,0 56.78,25.434 56.78,56.801 0,31.356 -25.43,56.758 -56.78,56.758 -31.37,0 -56.79,-25.402 -56.79,-56.758 0,-31.367 25.42,-56.801 56.79,-56.801" /><path
         id="path130"
         style="fill:none;stroke:#000000;stroke-width:5;stroke-linecap:butt;stroke-linejoin:miter;stroke-miterlimit:4;stroke-dasharray:none;stroke-opacity:1"
         d="m 1530,429.656 c 31.35,0 56.78,25.434 56.78,56.801 0,31.356 -25.43,56.758 -56.78,56.758 -31.37,0 -56.79,-25.402 -56.79,-56.758 0,-31.367 25.42,-56.801 56.79,-56.801 z" /><g
         transform="scale(10,10)"
         id="g132"><text
           id="text134"
           style="font-variant:normal;font-weight:normal;font-size:8px;font-family:Helvetica;-inkscape-font-specification:Helvetica;writing-mode:lr-tb;fill:#000000;fill-opacity:1;fill-rule:nonzero;stroke:none"
           transform="matrix(1,0,0,-1,150.111,45.8215)"><tspan
             id="tspan136"
             y="0"
             x="0">C</tspan></text>
</g><path
         id="path138"
         style="fill:none;stroke:#000000;stroke-width:5;stroke-linecap:butt;stroke-linejoin:miter;stroke-miterlimit:4;stroke-dasharray:none;stroke-opacity:1"
         d="m 1160.49,374.063 161.17,181.972" /><path
         id="path140"
         style="fill:#000000;fill-opacity:1;fill-rule:nonzero;stroke:none"
         d="m 1325.42,540.801 22.56,45.183 -42.13,-27.847 19.57,-17.336" /><path
         id="path142"
         style="fill:none;stroke:#000000;stroke-width:5;stroke-linecap:butt;stroke-linejoin:miter;stroke-miterlimit:4;stroke-dasharray:none;stroke-opacity:1"
         d="M 1184.84,1002.04 1318.82,876.008" /><path
         id="path144"
         style="fill:#000000;fill-opacity:1;fill-rule:nonzero;stroke:none"
         d="m 1303.48,872.711 44.49,-23.902 -26.58,42.945 -17.91,-19.043" /><path
         id="path146"
         style="fill:none;stroke:#000000;stroke-width:5;stroke-linecap:butt;stroke-linejoin:miter;stroke-miterlimit:4;stroke-dasharray:none;stroke-opacity:1"
         d="m 1874.81,1004.89 -98.09,-93.46" /><path
         id="path148"
         style="fill:#000000;fill-opacity:1;fill-rule:nonzero;stroke:none"
         d="m 1774.27,926.93 -26.3,-43.121 44.33,24.195 -18.03,18.926" /></g></g></svg>